<svg xmlns="http://www.w3.org/2000/svg" viewBox="0 0 514.1 1314.6" id="background-grey"><defs><linearGradient id="A" y1="657.32" x2="514.06" y2="657.32" gradientUnits="userSpaceOnUse"><stop offset="0" stop-color="#40bfb4"/><stop offset=".24" stop-color="#2da2a5"/><stop offset=".67" stop-color="#056787"/></linearGradient></defs><path d="M514.1 657.3c0-237.8-108-446.2-270-562.4C171.9 43.1 88.9 9.6 0 0v231.3s15.5-2.8 64.7-8.5c256.6-16.1 182.7 351 29.9 601.3C65.4 872 33.3 915.6 0 951.5v363.1c79-8.5 153.3-35.9 219.6-78.2l7.4-4.9 1.4-.9c5-3.3 9.9-6.7 14.8-10.2l1.3-.9 6.9-5.1.4-.2 7.3-5.6 1-.8 6.6-5.2.8-.5 7.7-6.3 6.7-5.7a2.7 2.7 0 00.8-.7c4.8-4 9.5-8.2 14.1-12.4l.8-.7 13.7-13.1.7-.6 13.5-13.7.4-.3c2-2.2 4-4.4 6.1-6.5l2.1-2.4 3.9-4.3 1.3-1.3c67-74.8 118.3-168.6 147.5-273.9a760 760 0 0027.3-202.9z" opacity=".2" fill="url(#A)"/><g fill="#40bfb4"><path d="M64.6 222.8c249.2 17 119.6 462.8-64.6 692.6v36c207.1-223.2 370.3-747.8 64.6-728.6z" opacity=".15"/><path d="M244.1 94.9C171.9 43.1 88.9 9.6 0 0v174.2c103.6 39.1 163.1-5.6 238.1 16.8 38.7 11.6 87.9 37.5 136.7 109.4 129.7 200 108 532.8 98.4 603.4 4.9-14.3 9.5-28.8 13.6-43.6a760 760 0 0027.3-202.9c0-237.8-108-446.2-270-562.4z" opacity=".1"/><path d="M244.1 94.9c-5.2 40.4-7.2 84.9-5.3 133.1 2.9 73 14.8 154.5 38.2 243.3 47.7 169.8 120.3 279 188.8 363.6 7 8.7 14 17.1 21 25.3a760 760 0 0027.3-202.9c0-237.8-108-446.2-270-562.4zm-15.7 1135.7c5-3.3 9.9-6.7 14.8-10.2l1.3-.9 6.9-5.1.4-.2 7.3-5.6 1-.8 6.6-5.2.8-.5 7.7-6.3 6.7-5.7a2.7 2.7 0 00.8-.7c4.8-4 9.5-8.2 14.1-12.4l.8-.7 13.7-13.1.7-.6 13.5-13.7.4-.3 13.4-14.5C264.8 1021.6 170 837.4 77.9 799.9 48.7 847.8 33.3 879.5 0 915.4v278.9c59.6-82.3 158.2-45 219.6 42.1l7.4-4.9z" opacity=".05"/></g></svg>