<svg xmlns="http://www.w3.org/2000/svg" viewBox="0 0 579.73 926.94" id="contact-bg"><defs><linearGradient id="A" x1="-38.61" y1="404.75" x2="1238.13" y2="404.75" gradientUnits="userSpaceOnUse"><stop offset=".28" stop-color="#40bfb4"/><stop offset=".33" stop-color="#3dbbb2"/><stop offset=".37" stop-color="#34afac"/><stop offset=".42" stop-color="#269ba1"/><stop offset=".46" stop-color="#127f93"/><stop offset=".49" stop-color="#006686"/></linearGradient></defs><g fill="#40bfb4"><path d="M41.24 486.62c15.2 71.8 74.17 156.7 161.92 229.7a748.06 748.06 0 00115.83 79c77.08 42.67 165.8 74.3 260.74 85.8v-87.26C282.43 749.1 69.1 612 65.7 409.36v-7.15l.08-5.8c0-1.87.1-3.74.18-5.6l.06-1.45.3-5.67a.62.62 0 000-.13l.4-5.52.12-1.34v-.1l.53-5.65v-.17q.28-2.73.63-5.45c0-.3.07-.6.1-.88l.06-.55q.36-2.8.76-5.6v-.2l.85-5.42c0-.16 0-.33.08-.5 0-.3.1-.62.16-.93l1-5.55a.5.5 0 000-.12v-.16l1.06-5.3.3-1.44 1.2-5.5c0-.13.07-.26.1-.4q.6-2.58 1.25-5.14c.12-.48.24-1 .37-1.44l1.45-5.45.06-.2v-.17l1.48-5.1c.14-.48.28-1 .43-1.44l1.68-5.4c0-.15.1-.3.15-.46l1.7-5 .37-1.06.12-.37 1.92-5.33.2-.48q.9-2.46 1.88-4.9l.53-1.32.05-.12 2.15-5.26.06-.12.18-.43q1-2.4 2.1-4.8c.1-.2.2-.42.28-.62l.35-.8 2.4-5.18c.1-.2.18-.4.28-.58q1.13-2.35 2.3-4.7l.7-1.4 2.63-5.1.25-.38.2-.37q1.22-2.28 2.46-4.54l.45-.8.34-.62q1.4-2.52 2.87-5c.13-.23.27-.45.4-.67q1.32-2.24 2.67-4.45l.63-1c.08-.13.16-.26.25-.4q1.52-2.48 3.1-4.94l.37-.58.1-.14q1.4-2.18 2.86-4.34l1-1.42 3.33-4.83.5-.7v-.07l4-5.64q1.76-2.4 3.57-4.74l.3-.37.33-.43 3.23-4.1 1.13-1.4 3.8-4.64.73-.86q1.67-2 3.38-4l.5-.58.72-.83q2-2.27 4-4.52l.57-.63a2.73 2.73 0 00.23-.25q1.77-1.93 3.58-3.85l.74-.78.57-.62q2.1-2.22 4.28-4.43l.9-.9 3.74-3.73.87-.85.54-.53q2.24-2.17 4.52-4.33l.74-.68.25-.24q1.93-1.82 3.92-3.6l.16-.14 1.34-1.22q2.35-2.12 4.77-4.22l.55-.48.54-.46q2-1.74 4.07-3.48l1.62-1.35 5-4.1 1.2-.96q2.1-1.68 4.24-3.35l1.7-1.33 5.24-4 1.33-1 4.38-3.2.84-.6 1-.72q2.7-1.94 5.46-3.86l1.45-1q2.25-1.56 4.55-3.1l1.94-1.3q2.83-1.9 5.7-3.75l1.55-1q2.34-1.5 4.72-3l.86-.54 1.18-.73 6.28-3.8 1.4-.82 4.87-2.85 1.44-.83.72-.4c2-1.18 4.12-2.34 6.2-3.5l1.8-1 5-2.72 2.3-1.22q3.2-1.7 6.43-3.36l.47-.24 1.45-.73q2.58-1.32 5.2-2.6l2.4-1.2 7.24-3.5 1.5-.7 5.33-2.48 1.1-.5 1.42-.65 6.93-3.1 2.18-1 5.5-2.36 2.64-1.1 7.16-3 1.06-.42 1.25-.5 5.7-2.25.63-.24 2.1-.82q3.68-1.42 7.42-2.82l5.35-2 .63-.23 5.6-2 .65-.23 2.22-.77 3.47-1.2 7.08-2.4 6.5-2.13 5.44-1.73 1.15-.36 3.14-1 2.1-.65 1.43-.44 6.74-2.02 4.7-1.36 2.12-.6 4.5-.98 2.56-.7 3.9-1.06 3.1-.84 3.36-.9 3.7-1 2.74-.7 4.4-1.12 1.82-.45h.2l5.2-1.27.33-.08 6.97-1.66h.15l.28-.07 7.6-1.73.42-.1 7.33-1.6.62-.14 7.22-1.52.7-.15q3.6-.75 7.23-1.47l.75-.15 8.02-1.56L493 28.2l.64-.12 7.65-1.37.5-.08 8.22-1.4q33.47-5.6 69.7-9.58V2.4C463 12.63 366.86 35.62 289.5 68 71.26 159.17 6.76 323.6 41.24 486.62z" opacity=".85"/><path d="M312.44 48l-.66.2-5.92 2-1.5.5-5.24 1.8-2.07.7-7.2 2.58-4.36 1.6-2.75 1-4.1 1.57-2.56 1a844.47 844.47 0 00-106.4 53.23q-5.7 3.66-11.18 7.4l-.24.17-5.12 3.54-.52.38q-2.4 1.68-4.75 3.4l-.68.5q-2.26 1.65-4.5 3.32l-.76.57q-2.2 1.64-4.35 3.3l-.76.6q-2.16 1.67-4.27 3.34l-.72.57q-2.15 1.7-4.24 3.42l-.64.52q-2.16 1.77-4.28 3.56l-.48.4q-2.23 1.9-4.4 3.78l-.25.22a382.74 382.74 0 00-38.21 38.14l-.2.25q-1.77 2.06-3.5 4.1l-.34.4q-1.66 2-3.3 4l-.4.5q-1.6 2-3.16 4l-.4.52q-1.55 2-3.06 4l-.4.5-3 4.07-.32.44q-1.53 2.1-3 4.23l-.2.3q-1.57 2.23-3.1 4.5a325.25 325.25 0 00-22.2 37.95v.08q-1.16 2.34-2.27 4.7l-.17.35q-1 2.22-2.07 4.45l-.23.52q-1 2.16-1.92 4.32l-.26.6-1.8 4.28-.26.63q-.88 2.14-1.73 4.3l-.24.6q-.86 2.17-1.68 4.37l-.2.54q-.84 2.26-1.65 4.53l-.14.38q-.84 2.4-1.65 4.8v.13a309.39 309.39 0 00-9.77 35.56l-1 5c0 .15 0 .3-.08.43l-.84 4.63c0 .22-.07.45-.1.67l-.73 4.4-.12.82-.64 4.3-.12.9-.67 5.16-.48 4.25c0 .3-.07.6-.1.9q-.22 2.16-.42 4.32c0 .28-.05.56-.07.83l-.37 4.47c0 .23 0 .45-.05.68l-.3 4.72v.42q-.9 15.72-.3 31.57v.05l.23 5.12v.6l.28 4.57.06.9.32 4.3c0 .36.07.72.1 1.08l.37 4.12.12 1.2.43 4 .14 1.26.48 4 .17 1.28.54 4 .18 1.26.8 5.18q.33 2.08.7 4.17l.18 1.06.8 4.38c0 .28.1.55.16.83l.94 4.83c0 .12 0 .25.07.37q2.16 10.62 4.93 21.22v.06q.68 2.57 1.38 5.12l.2.76 1.26 4.43.33 1.1 1.2 4.06.42 1.33 1.2 3.85 1.68 5.18.52 1.53 1.25 3.65.54 1.57 1.3 3.6.58 1.58 1.34 3.63.58 1.54 1.42 3.67.58 1.5 1.5 3.76.56 1.38 1.64 4 .5 1.16 1.87 4.35.33.76q4.53 10.35 9.63 20.62l.4.76q1.07 2.14 2.16 4.3l.62 1.2 2 3.84.78 1.46 1.92 3.58.86 1.57q.93 1.73 1.9 3.45l.92 1.64 1.9 3.36 1 1.7 1.93 3.3 1 1.7 2 3.3 1 1.7 2 3.3 1 1.67 2.1 3.34 1 1.58 2.22 3.45.95 1.46q1.2 1.82 2.4 3.63l.84 1.26 3.3 4.84q5.07 7.4 10.45 14.7l.25.34q1.64 2.22 3.3 4.44l.8 1.05 2.82 3.7 1 1.36 2.63 3.38 1.2 1.52 3.84 4.8 2.52 3.1 1.36 1.64 2.53 3 1.4 1.66 2.55 3 1.43 1.66 2.6 3 1.44 1.64 2.65 3 1.44 1.6 2.75 3 1.38 1.52q1.44 1.57 2.9 3.13l1.3 1.4q1.56 1.66 3.13 3.3l1.13 1.2 3.55 3.7.76.78q6.62 6.78 13.5 13.43l.65.62q1.93 1.88 3.9 3.73l1.17 1.1q1.7 1.62 3.44 3.22l.82.76q3.42 3.17 6.92 6.3l.28.26q3.54 3.17 7.14 6.3l1 .88q3.57 3.1 7.2 6.17l.7.58q7.6 6.4 15.45 12.6l.66.52q3.93 3.1 7.93 6.16l.4.3q8.28 6.33 16.85 12.48l.1.07a714.13 714.13 0 0074.13 46.47l5.7 3.07 2.27 1.3 4.5 2.37 2.62 1.35q2.16 1.13 4.34 2.22l2.54 1.3 5.18 2.58 1.67.82q3.4 1.68 6.84 3.3l2 .93 5.1 2.4 2.38 1.1 7.2 3.26 6.14 2.72 1 .43q3.72 1.62 7.47 3.2l.9.38q3.24 1.38 6.5 2.7l1.65.68 6.13 2.47 1.44.57q11.63 4.6 23.52 8.87l.6.2 7.64 2.7.4.14a811.61 811.61 0 00158.52 37.27V881.1C484.8 869.62 396.07 838 319 795.32a748.06 748.06 0 01-115.83-79c-87.75-73-146.73-157.9-161.92-229.7C6.76 323.6 71.26 159.17 289.5 68 366.86 35.62 463 12.63 579.73 2.4V.82c-65.24 4.86-126.36 12.6-181 23.86A885.29 885.29 0 00312.44 48z" opacity=".45"/></g><path d="M509.75 25.26l-8.43 1.44-8.3 1.5-7.44 1.4-.72.14-8.05 1.57q-3.63.72-7.23 1.47l-.7.15-7.22 1.52-.62.14-7.33 1.6-.42.1-7.6 1.73-.28.07h-.15l-7.3 1.74-5.2 1.27h-.2l-1.82.45-4.4 1.12-2.74.7-3.7 1-3.36.9-3.1.84-3.9 1.06-2.52.76-4.36 1.23-2.12.6-4.7 1.36-1.74.52-5 1.5-1.43.44-2.1.65-3.14 1-1.15.36-5.44 1.73-.88.3-5.63 1.84-.8.27-9.8 3.3-2.22.77-.65.23q-2.82 1-5.6 2l-.63.23-5.35 2q-3.75 1.37-7.42 2.77l-2.1.82-.63.24-5.7 2.25-1.25.5-1.06.42-7.16 3-2.64 1.1-5.5 2.36-2.18 1-6.93 3.1-1.42.65-1.1.5-6.83 3.18-7.24 3.5-2.4 1.2-5.2 2.6-1.45.73-.47.24q-3.24 1.67-6.43 3.36l-2.3 1.22-5 2.72-1.8 1-6.2 3.5-.72.4-1.44.83-4.87 2.85-1.4.82-.28.17-6 3.62-1.18.73-.86.54q-2.38 1.5-4.72 3l-1.55 1q-2.88 1.86-5.7 3.75l-1.94 1.3q-2.3 1.53-4.55 3.1l-1.45 1q-2.76 1.92-5.46 3.86l-1 .72-.84.6-4.38 3.2-1.33 1-5.24 4-1.7 1.33q-2.14 1.66-4.24 3.35l-1.2.96-5 4.1-1.62 1.35q-2.05 1.74-4.07 3.48l-.54.46-.57.28q-2.4 2.1-4.77 4.22l-1.34 1.22-.16.14q-2 1.8-3.92 3.6l-.25.24-.74.68q-2.28 2.16-4.52 4.33l-.54.53-.87.85-3.74 3.73-.9.9q-2.16 2.2-4.28 4.43l-.57.62-.74.78q-1.82 1.92-3.58 3.85a2.73 2.73 0 01-.23.25l-.57.63q-2 2.25-4 4.52l-.72.83-.5.58q-1.7 2-3.38 4l-.73.86-3.8 4.64-1.13 1.4-3.23 4.1-.33.43-.3.37q-1.8 2.36-3.57 4.74l-4 5.64v.07l-.5.7-3.33 4.83-1 1.42q-1.45 2.16-2.86 4.34l-.1.14-.37.58q-1.6 2.46-3.1 4.94l-.25.4-.63 1q-1.35 2.22-2.67 4.45l-.4.67q-1.45 2.5-2.87 5l-.34.62-.45.8q-1.25 2.26-2.46 4.54l-.2.37-.15.3-2.63 5.1-.7 1.4q-1.17 2.34-2.3 4.7l-.28.58-2.4 5.18-.35.8-.28.62q-1.06 2.38-2.1 4.8l-.18.43-.06.12-2.2 5.38-.53 1.32q-1 2.44-1.88 4.9l-.2.48-1.92 5.33-.12.37-.37 1.06-1.7 5c0 .16-.1.3-.15.46l-1.68 5.4-.43 1.44-1.48 5.1v.17l-.06.2-1.45 5.45-.37 1.44q-.65 2.56-1.25 5.14c0 .13-.07.26-.1.4l-1.2 5.5-.3 1.44-1.06 5.3v.16a.5.5 0 010 .12l-1 5.55-.16.93c0 .16 0 .33-.08.5l-.85 5.42v.2q-.4 2.8-.76 5.6l-.06.55c0 .3-.08.6-.1.88q-.34 2.72-.63 5.45v.17l-.53 5.65v.1L66.7 378l-.4 5.52a.62.62 0 010 .13l-.3 5.67-.06 1.45-.18 5.6v.12l-.08 5.7v7.15c3.4 202.65 216.72 339.74 514 384.5V580.6c-209-130.06-376.3-443.36-68.63-432a469.11 469.11 0 0168.63 2.79V15.63q-36.26 4-69.7 9.58z" fill="url(#A)"/><g fill="#40bfb4"><path d="M511.1 148.65c-307.66-11.4-140.33 301.9 68.63 432V559.8C393.44 425.26 260.1 158.73 511.1 148.65z" opacity=".85"/><path d="M579.73 559.8v-13.15c-178-146.77-285.9-402.34 0-387.36v-7.84c-340.88-36.72-201.36 262.93 0 408.35z" opacity=".45"/></g><g fill="#fff"><path d="M258.5 68C107.9 131 28.5 229.22 6.44 337.33a329.72 329.72 0 00-5.08 95.07c6.1 68.93 32.56 138.8 76.18 203.65a271 271 0 0016.08-37c48.14-136.6-16.68-278.75 111.3-404.7C367 76.25 422.65 155 579.73 120V0C448.9 8.68 342.6 32.8 258.5 68z" opacity=".1"/><path d="M327 43.35Q290.56 54.5 258.5 68C107.9 131 28.5 229.22 6.44 337.33a329.72 329.72 0 00-5.08 95.07C5.2 476 17.23 520 36.57 562.82l77.36-53.4C182.46 459.57 255 395.16 302.75 295.1c23.4-52.32 35.3-100.37 38.2-143.42 2.75-40.82-2.6-77.14-13.95-108.33zm200.4 454.98q6.24.12 12.55.73c-133.07-12.9-236.7 143.78-336.8 217.25a249.61 249.61 0 01-36.8 22.85 691.82 691.82 0 00139.26 99.57A112.73 112.73 0 01319 795.32c44.2-82.78 184.4-136.16 260.74-74.07v-174.6a643.36 643.36 0 01-52.34-48.31z" opacity=".1"/></g></svg>