<svg viewBox="0 0 1923.1 745" id="svg-background"><g fill="#fff"><path id="path-1" d="M618.8 708.7l-9-1zm-9.4-1.1A3170.5 3170.5 0 01.1 576.9a3163.2 3163.2 0 00609.3 130.7zm18.9 2.1l-6.1-.7zm9.6 1l-3-.3z" opacity=".25"/><path id="path-2" d="M634.9 710.4l-6.6-.7zm-12.7-1.3l-3.4-.4zm15.7 1.6c720.4 75.4 1248.7-115.6 1285-129.2v-1.3s-539.3 208.4-1285 130.5zm-28.1-3z" opacity=".25"/><path id="path-3" d="M1922.9 580.3v-67.1c-167.4 118.3-733.1 262-1415.2 136.1-213.1-45-360.9-108.3-413.5-145.1C52 474.8 17.2 435.8.3 395.7-.2 394.3.1 516.6.3 577c1054.7 337.7 1919.9 4.4 1922.6 3.3z" opacity=".3"/></g><path id="path-4" d="M733.3 732.4z" fill="#fcfcfc"/><g fill="#fff"><path id="path-5" d="M1922.9 580.3l.3-317s-69.7 277.2-355 358.1C865.7 769.9 940.4 412.5 489.3 370.3c-196-22-418.5 98.8-489.2 153v53.6h.2c1047 335.3 1907.4 9.2 1922.6 3.4z" opacity=".15"/><path id="path-6" d="M965.8 583.5c-121.7-339.6-445.3 59.4-683.3-72.3C197.3 462.1 243.7 199.1 77.8 48 51.8 25.5 25.8 10.2.1 0v576.9h.3c343.3 109.9 666.5 148.7 946.4 151 26.6-31.4 35-99.9 19-144.4z" opacity=".05"/><path id="path-7" d="M1923.2 355.7V171c-365.9-171-233 410-452.5 437.3-105.8 13.2-253.1-168.9-496.8-158.6-218.2 14.8-303.2 151.9-283.5 266 474 41.7 858.9-30.5 1066-84.5-158.1-69.6 8.1-376.7 166.8-275.5z" opacity=".1"/></g><path id="path-8" d="M1922.9 580.3h-.2C1907.5 586.2 1047.3 912.2.3 577H.1v168h1922.8z" fill="#f2f2f2"/></svg>