<svg xmlns="http://www.w3.org/2000/svg" viewBox="0 0 1922.8 250.8">
<defs>
<style>.cls-1,.cls-2{fill:#fff;}.cls-2{opacity:0.5;}</style
></defs>
<title>2a</title>
<g id="background_white" data-name="background white">
<path class="cls-1" d="M962.3,207.4C682.7,205,355.6,160.5,0,34V247.8H1922.8V34C1920.6,35,1544,212.4,962.3,207.4ZM0,82.9V55.4C332.2,173.6,639.5,220.2,906.5,227.8,906.5,227.8,437.1,239,0,82.9Z"/></g>
<g id="transparencias">
<path class="cls-2" d="M962.3,190.4C682.7,188,355.6,143.5,0,17V246.8H1922.8V17C1920.6,18,1544,195.4,962.3,190.4Z"/>
<path class="cls-2" d="M962.3,173.4C682.7,171,355.6,126.5,0,0V250.8l962.3-4,960.5,4V0C1920.6,1,1544,178.4,962.3,173.4Z"/>
</g>
</svg>