<svg xmlns="http://www.w3.org/2000/svg" viewBox="0 0 1922.8 262.9"><defs><style>.cls-1,.cls-2,.cls-3{fill:#f5f5f5;}.cls-2{opacity:0.75;}.cls-3{opacity:0.5;}</style></defs><title>3a</title><g id="_245" data-name="245"><path class="cls-1" d="M0,78V262.3H1922.8V140.2S1056.5,416.3,0,78Z"/><path class="cls-1" d="M820.8,224.2c637.2,56.5,1102-123.4,1102-123.4V81.7S1435.3,265,820.8,224.2Z"/><path class="cls-1" d="M.2,0,0,20.1s916.6,426.2,1922.8.6C1039.3,363.6,283.7,122.3.2,0Z"/></g><g id="transparencias"><path class="cls-1" d="M1426.2,262.9h496.6v-.7C1921.7,262.7,1709.4,262.9,1426.2,262.9Z"/><path class="cls-2" d="M0,78V19.6c1016.6,432.1,1922.8,81.2,1922.8,81.2v39.4S1056.5,416.3,0,78Z"/><path class="cls-3" d="M821,224.7C568.4,202.3,288.6,142.8,0,20.1c0,0,916.6,426.2,1922.8.6V82.2S1435.4,265.5,821,224.7Z"/></g></svg>