<svg xmlns="http://www.w3.org/2000/svg" viewBox="0 0 31 31" fill="#231f20"><path d="M11.1 11.6H8.3v2.6h3.1c2.1 0 2.5-2.6-.3-2.6zM15.5 0A15.5 15.5 0 1 0 31 15.5 15.5 15.5 0 0 0 15.5 0zm3.1 9h6.1v1.7h-6.1zm-7.3 13H5.7V9h6c4.7.1 4.8 4.7 2.4 6 2.9 1.1 3 7-2.8 7zm15.2-4.3h-7a2.3 2.3 0 0 0 4 1.8h2.7c-.4 1.1-1.8 2.6-4.4 2.6s-4.8-1.6-4.8-5 2-5.1 4.7-5.1a4.3 4.3 0 0 1 4.7 3.8 11.6 11.6 0 0 1 0 1.8z"/><path d="M11.2 16.8H8.3v2.6h2.9c2.6 0 2.4-2.6 0-2.6zM21.7 14a2 2 0 0 0-2.2 1.9h4.3a1.9 1.9 0 0 0-2.1-1.9z"/></svg>