<svg id="Layer_1" data-name="Layer 1" xmlns="http://www.w3.org/2000/svg" viewBox="0 0 536.69 96.78"><defs><style>.cls-1{fill:none;}.cls-2{fill:#fff;}.cls-3{fill:#40bfb4;}</style></defs><title>brand-new-negative1</title><path class="cls-1" d="M374.71,11.25A24.54,24.54,0,0,0,353,24q17.72-.38,35.79-1.15l6.75-.31A24.55,24.55,0,0,0,374.71,11.25Z"/><path class="cls-1" d="M350.48,30.74a26,26,0,0,0-.59,5.46,24.82,24.82,0,1,0,49.64,0,25.8,25.8,0,0,0-1-7.1l-9.44.44Q369.6,30.38,350.48,30.74Z"/><path class="cls-1" d="M478.5,30.7h46.07a24.27,24.27,0,0,0-5.7-12.2q-18.33,2.4-37.54,4.37A25.27,25.27,0,0,0,478.5,30.7Z"/><path class="cls-1" d="M488.23,15.36q11.28-1.22,22.26-2.59a23,23,0,0,0-8.18-1.52A24.79,24.79,0,0,0,488.23,15.36Z"/><path class="cls-1" d="M243.19,11.25c-8,0-14,3.54-17.21,9.86Q242.1,22.28,259.06,23C257.35,15.48,251.78,11.25,243.19,11.25Z"/><path class="cls-2" d="M202.35,1.42H190.84V18q5.69.62,11.51,1.18Z"/><path class="cls-3" d="M190.84,71h11.51V25.91q-5.83-.55-11.51-1.16Z"/><path class="cls-2" d="M259.62,71h11.64V30.24q-5.86-.2-11.64-.45Z"/><path class="cls-3" d="M243.7,0c-8.47,0-15.45,2.81-20.56,8.21V1.42H211.63V20q7.08.61,14.35,1.13c3.26-6.32,9.19-9.86,17.21-9.86,8.6,0,14.17,4.22,15.87,11.77q5.89.26,11.87.46C269.06,9.07,258.81,0,243.7,0Z"/><path class="cls-2" d="M211.63,71h11.51V34.39a35.09,35.09,0,0,1,.62-6.68q-6.13-.45-12.13-1Z"/><path class="cls-3" d="M305.5,11.25c6.79,0,12.09,3.07,14.17,8.22l1.09,2.69,9.91-5.67-.92-2.09C325.75,5.39,316.69,0,305.5,0,291.33,0,281,8.77,281,20.85a20.89,20.89,0,0,0,.22,3q6,.16,12.12.27a6.26,6.26,0,0,1-.83-3.22C292.55,14.22,299.05,11.25,305.5,11.25Z"/><path class="cls-2" d="M304.53,41.31c9.67,2.5,15.6,4.34,15.6,10.24,0,7.08-7.29,9.6-14.11,9.6-8.36,0-14.56-3.6-16.56-9.62l-1-2.95-10.08,5.87.75,2c3.75,10,13.8,16,26.88,16,15.08,0,25.62-8.57,25.62-20.85,0-14.29-12.45-17.86-22.85-20.54q-12.62-.09-24.95-.4C288.23,37.06,297,39.37,304.53,41.31Z"/><path class="cls-3" d="M375.1,0C365,0,356.15,3.88,349.9,10.87V1.42H338.39V24.2q7.27-.09,14.62-.25a24.92,24.92,0,0,1,42.54-1.46q6.35-.3,12.65-.65A35.51,35.51,0,0,0,375.1,0Z"/><path class="cls-2" d="M399.53,36.2a24.82,24.82,0,1,1-49.64,0,26,26,0,0,1,.59-5.46q-6.07.12-12.1.2V96.78H349.9V61.53c6.26,7,15.09,10.87,25.21,10.87C395.26,72.4,411,56.5,411,36.2a37.85,37.85,0,0,0-.8-7.72q-5.84.33-11.71.62A25.8,25.8,0,0,1,399.53,36.2Z"/><path class="cls-2" d="M416.74,71h11.51V27.37q-5.73.39-11.51.73Z"/><path class="cls-3" d="M416.74,1.42V21.34q5.78-.35,11.51-.74V1.42Z"/><path class="cls-3" d="M466.2,11.77h2.53V.52H466.2c-8,0-14.41,2.56-19,7.49V1.42H435.67V20.09q7.66-.56,15.24-1.18C455.54,12.46,463.18,11.77,466.2,11.77Z"/><path class="cls-2" d="M435.67,71h11.51V32.59a30.26,30.26,0,0,1,.69-6.66q-6.07.49-12.2.92Z"/><path class="cls-3" d="M502.3,0c-13.7,0-24.89,6.61-31,17.09q8.52-.82,16.9-1.73a24.79,24.79,0,0,1,14.08-4.11,23,23,0,0,1,8.18,1.52q8.35-1,16.5-2.18A32.44,32.44,0,0,0,502.3,0Z"/><path class="cls-2" d="M524.57,30.7H478.5a25.27,25.27,0,0,1,2.83-7.83q-6.52.67-13.13,1.29a39.67,39.67,0,0,0-1.84,12c0,21,15.33,36.2,36.46,36.2,13.2,0,24.24-5.76,30.29-15.8l1.32-2.19-10.13-6L523,50.72c-3.57,6.53-11.08,10.42-20.1,10.42-12.48,0-22-7.55-24.39-19.06h58V39.55c0-.46,0-.93.06-1.39s.07-1.14.07-1.7a39.83,39.83,0,0,0-5.21-19.68q-6.25.88-12.61,1.72A24.27,24.27,0,0,1,524.57,30.7Z"/><rect class="cls-2" y="3.53" width="4.19" height="66"/><polygon class="cls-2" points="9.46 3.21 9.46 69.32 30.07 69.32 10.09 3.21 9.46 3.21"/><polygon class="cls-2" points="49.14 69.32 69.23 69.32 59.19 33.83 49.14 69.32"/><path class="cls-2" d="M141.28,19.73c-7.72,0-12.87,3.67-14.77,10.35h29.12C153.47,22.48,147.38,19.73,141.28,19.73Z"/><path class="cls-2" d="M143.18,53.92c5.55,0,10.3-2.1,13-5l16.26,9A32,32,0,0,1,156.8,69.32h18.06V44.75H126.92C129.5,51.56,135.73,53.92,143.18,53.92Z"/><path class="cls-2" d="M39.88,38.66l8-29C42.35,8.87,37,8,31.87,7.09Z"/><path class="cls-2" d="M78.5,38.66l6.15-24.25c-4.41-.49-8.83-1-13.24-1.54Z"/><path class="cls-2" d="M105.38,36.89a34.64,34.64,0,0,1,6-19.77l-7-.67-16,52.87h40.44C114,64.5,105.38,52,105.38,36.89Z"/><path class="cls-2" d="M48.31,3.21H30.89l1,3.88c5.13.91,10.48,1.78,16,2.6l1.7-6.19Z"/><path class="cls-2" d="M68.75,3.21,70,7.73l1.42,5.15c4.41.54,8.83,1.05,13.24,1.54L87.49,3.21Z"/><path class="cls-2" d="M108.29,3.21l-4,13.24,7,.67c.34-.5.7-1,1.07-1.47l.06-.07q.54-.7,1.13-1.37a34.39,34.39,0,0,1,19.1-11Z"/><path class="cls-2" d="M149.6,3.21a32.83,32.83,0,0,1,21.66,15.93h0a33.89,33.89,0,0,1,2,4.18h0q.43,1.08.79,2.21t.65,2.3c.05.21.12.41.17.63V3.21Z"/></svg>