<svg id="Layer_1" data-name="Layer 1" xmlns="http://www.w3.org/2000/svg" viewBox="0 0 481.5 82.7"><defs><style>.cls-1{fill:#009889;}.cls-2{fill:#00416b;}</style></defs><title>brand_ color</title><path class="cls-1" d="M181.2,21.8l-8.6-.8-1.6-.2V66.4h11.5V21.9Z"/><path class="cls-2" d="M171,1.3V17.9h1.3l8.6.8h1.6V1.3Z"/><path class="cls-2" d="M242.9,25.1h-1.3l-8.8-.3h-1.6v1.6c0,.5.1,1,.1,1.5V66.4h11.6V27.8c0-.4,0-.9,0-1.3Z"/><path class="cls-2" d="M274.2,29.4c-4.4-1.1-8.3-2.2-10.6-3.7l-.3-.2h-.4l-11-.2h-2.1l.8,2c3.2,8.3,12.7,10.8,20.4,12.8s13.4,3.7,13.4,8.5-6.4,7.9-11.9,7.9c-7.2,0-12.5-3-14.2-8.1L257,44.9l-10.1,5.9.9,2.3c3.4,9.2,12.6,14.6,24.5,14.6,13.8,0,23.5-7.9,23.5-19.2C295.8,34.9,283.3,31.7,274.2,29.4Z"/><path class="cls-2" d="M364.9,23.4h-1.1l-9,.5h-2.1l.8,1.9a22,22,0,0,1,1.8,8.9,21.5,21.5,0,1,1-43,0,22.3,22.3,0,0,1,1.3-7.5l.7-2h-2.1l-10,.2h-1.4V82.7h11.5V58.9a30.2,30.2,0,0,0,21.8,8.8,32.4,32.4,0,0,0,32.7-32.9,34,34,0,0,0-1.6-10.4Z"/><path class="cls-2" d="M372.4,23.1H371V66.4h11.5v-44H381Z"/><path class="cls-2" d="M389.9,22.2h-1.3V66.4h11.5V31.6a23.2,23.2,0,0,1,1.4-8.2l.8-2.1-2.3.2Z"/><path class="cls-2" d="M475.2,14.7l-.5-.7h-.9l-10,1.3-3.1.4L463,18a20.8,20.8,0,0,1,6.3,11.3H429.8a21,21,0,0,1,3.6-7.9l1.9-2.6-3.2.3-10.6,1h-.9l-.3.8a35.1,35.1,0,0,0-2.7,13.8c0,19.1,13.9,32.9,33.1,32.9,12,0,22-5.2,27.5-14.4l1.5-2.5-10.1-6-1.4,2.6c-3.1,5.6-9.6,9-17.4,9-10.5,0-18.6-6.1-21-15.7h51.5V37.8c0-.4,0-.8.1-1.2s.1-1,.1-1.6A35.7,35.7,0,0,0,475.2,14.7Z"/><path class="cls-2" d="M199.9,23l-9.8-.8h-1.6V66.4h11.5V33.2a28.6,28.6,0,0,1,1.1-8.4l.5-1.7Z"/><path class="cls-1" d="M217.8,0c-7.1,0-13.1,2.2-17.7,6.5V1.3H188.5V19.2h1.3l11.4.9h.9l.4-.8c2.9-5.3,7.9-8.1,14.7-8.1s11.8,3.4,13.4,9.5l.3,1H232l9,.3h1.7l-.3-1.7C240.5,7.9,231,0,217.8,0Z"/><path class="cls-1" d="M271.9,0c-13,0-22.4,8.1-22.4,19.2,0,.6,0,1.2.1,1.8v1.3h1.3l8.8.2h1.9l-.5-1.8a5.8,5.8,0,0,1-.2-1.5c0-5.4,5.7-7.9,10.9-7.9s10.3,2.6,12,6.9l1.2,3.1,10-5.7L294,13.2C290.4,4.9,282.1,0,271.9,0Z"/><path class="cls-1" d="M334.2,0a30.2,30.2,0,0,0-21.8,8.8V1.3H300.9V22.7h1.5l11.8-.2h.8l.4-.7a21.6,21.6,0,0,1,36.2-1.3l.5.7h.8l9.6-.5h2.1l-.9-1.9A32.2,32.2,0,0,0,334.2,0Z"/><path class="cls-1" d="M371,20.3h1.5l8.6-.6h1.3V1.3H371Z"/><path class="cls-1" d="M400.1,6.3v-5H388.5V19.4h1.5l12.3-.9h.7l.4-.5c3.9-5.3,9.8-6,13-6h2.9V.5h-2.9C409.8.5,404.2,2.5,400.1,6.3Z"/><path class="cls-1" d="M472.2,9.2a29.6,29.6,0,0,0-22-9.2c-11.8,0-21.9,5.4-27.7,14.8L421,17.3l2.9-.3,12.8-1.3h.4l.3-.2a21.1,21.1,0,0,1,12.8-4.2,19.6,19.6,0,0,1,8.2,1.8l.4.2h.4l12.1-1.6,2.8-.4Z"/><path class="cls-2" d="M119.2,3C100.9,3,87.6,16.4,87.6,34.9s13.5,31.8,32,31.8c11.6,0,21.3-5.1,26.6-13.9l1.5-2.6-10.1-6-1.5,2.7c-2.9,5.3-9.1,8.5-16.5,8.5-10,0-17.6-5.6-19.9-14.8h49.5v-.5s.1-4.6.1-5.1C149.4,19.5,138.8,3,119.2,3Zm18.1,26.3H99.8c2.1-9.3,9.5-15.1,19.4-15.1S135.3,20,137.3,29.4Z"/><path class="cls-2" d="M82.7,3.7a4.8,4.8,0,0,0-4.5,3.2L62.8,51.1h0L55.6,39h0L69.6,15.7h0l-7.4-1.2a5.5,5.5,0,0,0-5.4,2.4L49,28.3h0L47.7,26a5.5,5.5,0,0,0-6.3-2.6l-6.7,1.9h0l8,13.6h0L35.1,51.5h0L19.2,7.8a6.2,6.2,0,0,0-5.8-4.1H6L28.3,64.9v.3h8.8a4.4,4.4,0,0,0,3.7-2.1l8-13.3h0l9.3,15.4h8.1a4.4,4.4,0,0,0,4.1-3L90.7,3.7H82.7Z"/><path class="cls-1" d="M0,57.5a8.9,8.9,0,0,0,8.9,8.9H21L0,8.7Z"/><path class="cls-1" d="M152.9,1.1H133.2S156,3.5,155.6,37.5V40h4.8V8.6A7.4,7.4,0,0,0,152.9,1.1Z"/></svg>