<svg id="Layer_1" data-name="Layer 1" xmlns="http://www.w3.org/2000/svg" viewBox="0 0 407.8 70.2"><defs><style>.cls-1{fill:none;}.cls-2{fill:#005b7f;}.cls-3{fill:#40bfb4;}</style></defs><title>weinspire</title><path class="cls-1" d="M94.1,21.4h21.7c-1.6-5.7-6.1-7.7-10.7-7.7C99.4,13.7,95.5,16.5,94.1,21.4Z"/><path class="cls-1" d="M105.1,13.7c-5.7,0-9.6,2.7-11,7.7h21.7C114.2,15.8,109.6,13.7,105.1,13.7Z"/><path class="cls-1" d="M105.1,13.7c-5.7,0-9.6,2.7-11,7.7h21.7C114.2,15.8,109.6,13.7,105.1,13.7Z"/><path class="cls-1" d="M105.1,13.7c-5.7,0-9.6,2.7-11,7.7h21.7C114.2,15.8,109.6,13.7,105.1,13.7Z"/><path class="cls-2" d="M188.7,22.5v28h14.8V20c-5.1-.1-10.1-.2-15.1-.4A13.57,13.57,0,0,1,188.7,22.5Z"/><path class="cls-2" d="M156.3,50.6h14.8V23.7a13.77,13.77,0,0,1,.8-4.8c-5.2-.2-10.4-.5-15.5-.8V50.6Z"/><path class="cls-2" d="M231.7,35.7c0,2-1.8,3-5.3,3-4.3,0-7.1-2.1-8.4-5.8l-12.8,7.3c3.8,8,11.3,11.7,21.1,11.7,10.6,0,20.5-4.8,20.5-16.1,0-10.3-7.7-13.6-14.4-15.5-8.1,0-16.2-.1-24.4-.2C211.5,32.7,231.7,30.8,231.7,35.7Z"/><path class="cls-2" d="M288,26c0,7.4-4.9,12-11.7,12s-11.7-4.6-11.7-12a13.07,13.07,0,0,1,1.4-6.1l-16.1.3v50h14.8V46c3.2,3.7,8.1,6,14.7,6,12.9,0,23.5-11.3,23.5-26a31,31,0,0,0-1-7.6c-5.1.3-10.3.6-15.5.8A15.16,15.16,0,0,1,288,26Z"/><path class="cls-2" d="M306.2,50.6H321V17.1c-4.8.4-9.7.7-14.8,1Z"/><path class="cls-2" d="M326.8,50.6h14.8V28.3c0-9.7,8.7-12.2,14.8-11.2V13.7c-9.3,1.1-19.2,2.1-29.5,3V50.6Z"/><path class="cls-2" d="M356.6,26c0,14.7,10.4,26,27.2,26,9.3,0,16.6-3.4,21.4-10.1L393.5,35a12.69,12.69,0,0,1-9.4,3.7c-5.4,0-9.9-1.8-11.8-6.9h34.9a28.1,28.1,0,0,0,.6-5.9c0-7.8-2.9-14.6-7.8-19.2-11.6,2.5-25.2,4.7-40.3,6.6A26.52,26.52,0,0,0,356.6,26Zm26.1-12.9c4.4,0,8.9,2.1,10.4,7.8H372C373.3,15.9,377.1,13.1,382.7,13.1Z"/><path class="cls-2" d="M150.4,1.4H135.6V13.7c4.9.4,9.8.7,14.8,1Z"/><rect class="cls-2" y="1.7" width="3.1" height="49.1"/><polygon class="cls-2" points="7 1.4 7 50.6 22.4 50.6 7.5 1.4 7 1.4"/><polygon class="cls-2" points="36.6 50.6 51.5 50.6 44 24.2 36.6 50.6"/><path class="cls-2" d="M105.1,13.7c-5.7,0-9.6,2.7-11,7.7h21.7C114.2,15.8,109.6,13.7,105.1,13.7Z"/><path class="cls-2" d="M106.5,39.2a13.67,13.67,0,0,0,9.7-3.7l12.1,6.7a23.8,23.8,0,0,1-11.6,8.4h13.4V32.3H94.4C96.3,37.4,101,39.2,106.5,39.2Z"/><path class="cls-2" d="M29.7,27.8,35.6,6.2c-4.1-.6-8.1-1.3-11.9-1.9Z"/><path class="cls-2" d="M58.4,27.8,63,9.8c-3.3-.4-6.6-.7-9.9-1.1Z"/><path class="cls-2" d="M78.4,26.5a26,26,0,0,1,4.4-14.7c-1.7-.2-3.5-.3-5.2-.5L65.7,50.6H95.8C84.8,47,78.4,37.8,78.4,26.5Z"/><path class="cls-3" d="M135.6,50.6h14.8V17.8c-5-.3-9.9-.6-14.8-1Z"/><path class="cls-3" d="M185.1,0c-6.5,0-11.4,2.4-14.1,6V1.4H156.2V15l17.5.9a8.69,8.69,0,0,1,6.4-2.3,8.27,8.27,0,0,1,6.6,2.8c5.5.2,11,.3,16.5.5C201.9,5.9,194.1,0,185.1,0Z"/><path class="cls-3" d="M226.8,0c-10.2,0-19.3,5.4-19.3,16.1v.8h.2c5.2.1,10.4.2,15.5.2a2,2,0,0,1-.6-1.4c0-1.8,1.6-2.8,4.1-2.8,3.2,0,5.1,1.7,6.5,4.2h.3l12.3-6.6C241.9,3.6,234.8,0,226.8,0Z"/><path class="cls-3" d="M279.2,0c-6.6,0-11.4,2.3-14.7,6V1.4H249.7V17.1c6.3-.1,12.5-.2,18.6-.4a11.9,11.9,0,0,1,7.8-2.7,12.29,12.29,0,0,1,7.2,2.2c5.8-.2,11.6-.5,17.3-.8C297,6.2,288.7,0,279.2,0Z"/><path class="cls-3" d="M306.2,1.4V15c5-.3,9.9-.6,14.8-1V1.4Z"/><path class="cls-3" d="M341.6,10.2V1.4H326.8V13.5c10.2-.8,20.1-1.8,29.5-3V.4C350.1.4,343.5,3.6,341.6,10.2Z"/><path class="cls-3" d="M361.8,9.9c13-1.7,24.7-3.6,34.9-5.7a25.08,25.08,0,0,0-14-4.1C373.8,0,366.4,3.8,361.8,9.9Z"/><path class="cls-3" d="M35.9,1.4h-13l.7,2.9c3.8.7,7.8,1.3,11.9,1.9l1.3-4.6A3.71,3.71,0,0,1,35.9,1.4Z"/><path class="cls-3" d="M51.1,1.4,52,4.8l1.1,3.8c3.3.4,6.6.8,9.9,1.1l2.1-8.3Z"/><path class="cls-3" d="M80.6,1.4l-3,9.9c1.8.2,3.5.3,5.2.5.3-.4.5-.7.8-1.1v-.1c.3-.3.5-.7.8-1A26.33,26.33,0,0,1,98.6,1.4Z"/><path class="cls-3" d="M111.3,1.4a24.59,24.59,0,0,1,16.1,11.9h0a17.72,17.72,0,0,1,1.5,3.1h0c.2.5.4,1.1.6,1.6s.3,1.1.5,1.7c0,.2.1.3.1.5V1.4Z"/></svg>