<svg xmlns="http://www.w3.org/2000/svg" viewBox="0 0 154.2 64" id="brand-mobile" aria-labelledby="title, description">
    <title>sub_brand</title><desc>We Inspire Brand Logo Icon Mobile Version</desc>
    <path class="brand-blue" d="M115.7,1.7c-17.9,0-30.9,13.1-30.9,31.2S97.9,64,116.1,64c11.4,0,20.9-5,26.1-13.6l1.5-2.5L133.8,42l-1.4,2.6c-2.9,5.2-8.9,8.3-16.2,8.3-9.8,0-17.2-5.5-19.5-14.4h48.5v-.5s.1-4.6.1-5C145.3,17.8,134.9,1.7,115.7,1.7Zm17.7,25.8H96.6c2.1-9.1,9.3-14.8,19-14.8S131.4,18.3,133.4,27.4Z"/>
    <path class="brand-blue" d="M79.9,2.3a4.8,4.8,0,0,0-4.5,3.2L60,49.7h0L52.8,37.5h0l14-23.2h0l-7.4-1.2A5.5,5.5,0,0,0,54,15.5L46.3,26.9h0L45,24.6A5.5,5.5,0,0,0,38.8,22L32,23.9h0l8,13.6h0L32.4,50.1h0L16.5,6.4a6.2,6.2,0,0,0-5.8-4.1H3.3L25.6,63.4v.3h8.8a4.4,4.4,0,0,0,3.7-2.1l8-13.3h0l9.3,15.4h8.1a4.4,4.4,0,0,0,4.1-2.9L88,2.3H79.9Z"/>
    <path class="brand-green" d="M0,54.8a8.7,8.7,0,0,0,8.7,8.7H20.6L0,6.9Z"/>
    <path class="brand-green" d="M147,0H127.6S150,2.4,149.6,35.6v2.5h4.7V7.3A7.3,7.3,0,0,0,147,0Z"/>
</svg>