<svg id="Layer_1" data-name="Layer 1" xmlns="http://www.w3.org/2000/svg" viewBox="0 0 537.7 95.14"><defs><style>.cls-1,.cls-4{fill:none;}.cls-2{fill:#fff;}.cls-3{fill:#40bfb4;}.cls-4{stroke:#fff;stroke-miterlimit:10;stroke-width:3px;}</style></defs><title>brand-new-negative11</title><path class="cls-1" d="M377.38,12.77A24.12,24.12,0,0,0,356,25.26q17.42-.37,35.19-1.13l6.63-.3A24.14,24.14,0,0,0,377.38,12.77Z" transform="translate(1.09 -1.71)"/><path class="cls-1" d="M353.56,31.93A25.56,25.56,0,0,0,353,37.3a24.4,24.4,0,1,0,48.8,0,25.37,25.37,0,0,0-1-7l-9.28.43Q372.35,31.58,353.56,31.93Z" transform="translate(1.09 -1.71)"/><path class="cls-1" d="M479.41,31.89H524.7a23.86,23.86,0,0,0-5.61-12q-18,2.36-36.9,4.3A24.84,24.84,0,0,0,479.41,31.89Z" transform="translate(1.09 -1.71)"/><path class="cls-1" d="M489,16.81q11.08-1.2,21.88-2.55a22.63,22.63,0,0,0-8-1.49A24.37,24.37,0,0,0,489,16.81Z" transform="translate(1.09 -1.71)"/><path class="cls-1" d="M248.08,12.77c-7.88,0-13.72,3.48-16.92,9.69q15.85,1.14,32.52,1.88C262,16.93,256.53,12.77,248.08,12.77Z" transform="translate(1.09 -1.71)"/><path class="cls-2" d="M207.94,3.11H196.62V19.37q5.59.61,11.32,1.16Z" transform="translate(1.09 -1.71)"/><path class="cls-3" d="M196.62,71.49h11.32V27.18q-5.73-.54-11.32-1.14Z" transform="translate(1.09 -1.71)"/><path class="cls-2" d="M264.24,71.49h11.44v-40q-5.76-.2-11.44-.44Z" transform="translate(1.09 -1.71)"/><path class="cls-3" d="M248.59,1.71c-8.33,0-15.19,2.77-20.21,8.07V3.11H217.06V21.35q7,.6,14.1,1.11c3.2-6.21,9-9.69,16.92-9.69,8.45,0,13.93,4.15,15.6,11.57q5.79.25,11.67.45C273.51,10.63,263.44,1.71,248.59,1.71Z" transform="translate(1.09 -1.71)"/><path class="cls-2" d="M217.06,71.49h11.31v-36A34.5,34.5,0,0,1,229,29q-6-.44-11.93-.95Z" transform="translate(1.09 -1.71)"/><path class="cls-3" d="M309.34,12.77c6.68,0,11.88,3,13.93,8.08l1.07,2.64,9.75-5.57-.91-2.05C329.24,7,320.34,1.71,309.34,1.71c-13.93,0-24,8.62-24,20.49a20.53,20.53,0,0,0,.22,2.9q5.92.16,11.92.27a6.16,6.16,0,0,1-.82-3.17C296.61,15.69,303,12.77,309.34,12.77Z" transform="translate(1.09 -1.71)"/><path class="cls-2" d="M308.38,42.32c9.51,2.46,15.34,4.26,15.34,10.07,0,7-7.16,9.43-13.87,9.43-8.22,0-14.31-3.54-16.28-9.46l-1-2.9-9.91,5.77.74,2C287.1,67,297,72.88,309.84,72.88c14.83,0,25.19-8.43,25.19-20.49,0-14-12.24-17.56-22.47-20.19q-12.41-.09-24.52-.39C292.35,38.14,301,40.41,308.38,42.32Z" transform="translate(1.09 -1.71)"/><path class="cls-3" d="M377.76,1.71A32.52,32.52,0,0,0,353,12.4V3.11H341.67V25.5q7.15-.09,14.37-.24a24.49,24.49,0,0,1,41.82-1.44q6.24-.3,12.43-.64A34.91,34.91,0,0,0,377.76,1.71Z" transform="translate(1.09 -1.71)"/><path class="cls-2" d="M401.78,37.3a24.4,24.4,0,1,1-48.8,0,25.56,25.56,0,0,1,.58-5.37q-6,.12-11.89.2V96.85H353V62.2a32.53,32.53,0,0,0,24.78,10.69c19.81,0,35.33-15.63,35.33-35.58a37.21,37.21,0,0,0-.79-7.59q-5.74.32-11.51.61A25.37,25.37,0,0,1,401.78,37.3Z" transform="translate(1.09 -1.71)"/><path class="cls-2" d="M418.69,71.49H430V28.62q-5.64.38-11.31.72Z" transform="translate(1.09 -1.71)"/><path class="cls-3" d="M418.69,3.11V22.69q5.68-.34,11.31-.72V3.11Z" transform="translate(1.09 -1.71)"/><path class="cls-3" d="M467.31,13.28h2.49V2.22h-2.49c-7.84,0-14.17,2.52-18.69,7.37V3.11H437.31V21.46q7.53-.55,15-1.16C456.83,14,464.34,13.28,467.31,13.28Z" transform="translate(1.09 -1.71)"/><path class="cls-2" d="M437.31,71.49h11.32V33.74a29.75,29.75,0,0,1,.68-6.55q-6,.48-12,.91Z" transform="translate(1.09 -1.71)"/><path class="cls-3" d="M502.8,1.71c-13.47,0-24.47,6.5-30.45,16.8q8.38-.81,16.61-1.7a24.37,24.37,0,0,1,13.84-4,22.63,22.63,0,0,1,8,1.49q8.21-1,16.22-2.14A31.89,31.89,0,0,0,502.8,1.71Z" transform="translate(1.09 -1.71)"/><path class="cls-2" d="M524.7,31.89H479.41a24.84,24.84,0,0,1,2.78-7.7q-6.41.66-12.9,1.26a39,39,0,0,0-1.81,11.84c0,20.62,15.07,35.58,35.84,35.58,13,0,23.82-5.66,29.78-15.53l1.3-2.15-10-5.88-1.23,2.26c-3.51,6.42-10.9,10.25-19.76,10.25-12.27,0-21.59-7.42-24-18.74h57V40.59c0-.46,0-.91.06-1.37s.07-1.12.07-1.68a39.15,39.15,0,0,0-5.13-19.34q-6.14.87-12.4,1.69A23.86,23.86,0,0,1,524.7,31.89Z" transform="translate(1.09 -1.71)"/><polygon class="cls-2" points="54.85 2.49 24.35 2.49 39.21 51.08 54.85 2.49"/><polygon class="cls-2" points="96.05 2.49 65.55 2.49 81.19 51.08 96.05 2.49"/><polygon class="cls-2" points="9.03 2.49 9.03 69.03 33.43 69.03 12.4 2.49 9.03 2.49"/><polygon class="cls-2" points="44.73 69.03 75.67 69.03 60.2 21.63 44.73 69.03"/><path class="cls-2" d="M144.65,13.12c-12.12,0-21.23,7.57-23.4,19.12h45.29C164.21,19.05,154.12,13.12,144.65,13.12Z" transform="translate(1.09 -1.71)"/><path class="cls-2" d="M109.32,37.64c0-16,9-28.63,22.66-33.44H106.91l-21,66.54H131.3C118,65.68,109.32,53.3,109.32,37.64Z" transform="translate(1.09 -1.71)"/><path class="cls-2" d="M180.55,4.2H156.79c14.15,5.34,21.67,19.86,21.67,33.69,0,.56,0,1.12-.07,1.68s-.06.91-.06,1.36v2.49h-57c2.39,11.32,11.71,18.74,24,18.74,8.86,0,16.25-3.83,19.76-10.25l1.23-2.26,10,5.88-1.3,2.15a31.17,31.17,0,0,1-15.79,13h21.4Z" transform="translate(1.09 -1.71)"/><line class="cls-4" x1="1.5" y1="2.49" x2="1.5" y2="69.03"/></svg>