<svg id="Layer_1" data-name="Layer 1" xmlns="http://www.w3.org/2000/svg" viewBox="0 0 416.56 71.73"><defs><style>.cls-1{fill:none;}.cls-2{fill:#fff;}.cls-3{fill:#40bfb4;}.cls-4{fill:#96d5cf;}</style></defs><title>weinspire negativo</title><path class="cls-1" d="M96.16,21.86h22.14C116.65,16.08,112,14,107.38,14,101.51,14,97.6,16.78,96.16,21.86Z" transform="translate(0)"/><path class="cls-1" d="M107.38,14c-5.87,0-9.78,2.79-11.22,7.86h22.14C116.65,16.08,112,14,107.38,14Z" transform="translate(0)"/><path class="cls-1" d="M107.38,14c-5.87,0-9.78,2.79-11.22,7.86h22.14C116.65,16.08,112,14,107.38,14Z" transform="translate(0)"/><path class="cls-1" d="M107.38,14c-5.87,0-9.78,2.79-11.22,7.86h22.14C116.65,16.08,112,14,107.38,14Z" transform="translate(0)"/><polygon class="cls-2" points="66.5 1.44 65.11 6.9 64.34 9.95 59.66 28.38 54.27 8.78 53.2 4.87 52.25 1.44 37.72 1.44 37.66 1.66 36.37 6.36 30.31 28.38 24.22 4.39 23.48 1.44 9.66 1.44 7.67 1.44 22.86 51.68 37.35 51.68 44.99 24.71 52.62 51.68 67.12 51.68 79.26 11.5 80.01 9.02 82.31 1.44 66.5 1.44"/><path class="cls-2" d="M132.91,20.62c0-.16-.09-.32-.13-.48a26.2,26.2,0,0,0-2.61-6.6A25,25,0,0,0,113.7,1.44H100.86A26.14,26.14,0,0,0,86.34,9.8,24.78,24.78,0,0,0,84.62,12,26.33,26.33,0,0,0,80.1,27c0,11.51,6.58,21,17.76,24.65h21.32a24.29,24.29,0,0,0,11.88-8.62l-12.35-6.87A13.68,13.68,0,0,1,108.82,40c-5.66,0-10.4-1.79-12.35-7h36.44ZM96.16,21.86C97.6,16.78,101.51,14,107.38,14c4.63,0,9.27,2.09,10.91,7.86Z" transform="translate(0)"/><path class="cls-2" d="M192.83,23V51.64H207.9V20.8c0-.13,0-.25,0-.37q-7.74-.17-15.42-.42A12,12,0,0,1,192.83,23Z" transform="translate(0)"/><path class="cls-2" d="M159.67,51.64h15.07V24.21a13.93,13.93,0,0,1,.78-4.87q-8-.36-15.85-.8Z" transform="translate(0)"/><path class="cls-2" d="M236.73,36.47c0,2-1.81,3.11-5.43,3.11-4.42,0-7.23-2.11-8.54-5.93l-13.06,7.43c3.92,8.14,11.55,12,21.6,12,10.85,0,20.9-4.92,20.9-16.48,0-10.51-7.9-13.85-14.76-15.81q-12.35,0-24.91-.24C216.08,33.42,236.73,31.42,236.73,36.47Z" transform="translate(0)"/><path class="cls-2" d="M294.2,26.52c0,7.54-5,12.26-12,12.26s-12-4.72-12-12.26a13.51,13.51,0,0,1,1.41-6.22q-8.16.22-16.48.33v51.1h15.07V46.92c3.32,3.82,8.24,6.13,15,6.13,13.16,0,24-11.55,24-26.52a29.49,29.49,0,0,0-1-7.74q-7.81.45-15.85.8A13.19,13.19,0,0,1,294.2,26.52Z" transform="translate(0)"/><path class="cls-2" d="M312.79,51.64h15.07V17.48q-7.4.56-15.07,1Z" transform="translate(0)"/><path class="cls-2" d="M333.88,51.64H349V28.93C349,19,357.79,16.48,364,17.48V14c-9.52,1.14-19.6,2.15-30.14,3Z" transform="translate(0)"/><path class="cls-2" d="M364.32,26.52c0,15,10.65,26.52,27.83,26.52,9.54,0,17-3.52,21.9-10.35L402,35.77a13.12,13.12,0,0,1-9.64,3.82c-5.53,0-10.15-1.81-12.06-7H416a29.21,29.21,0,0,0,.6-6,26.84,26.84,0,0,0-8-19.66c-11.88,2.54-25.75,4.79-41.16,6.71A27.71,27.71,0,0,0,364.32,26.52Zm26.62-13.16c4.52,0,9,2.11,10.65,7.94H380C381.4,16.18,385.21,13.36,390.94,13.36Z" transform="translate(0)"/><path class="cls-2" d="M153.64,1.41H138.57V14q7.47.54,15.07,1Z" transform="translate(0)"/><rect class="cls-2" y="1.68" width="3.19" height="50.17"/><polygon class="cls-3" points="7.19 1.44 7.19 51.68 22.86 51.68 7.67 1.44 7.19 1.44"/><polygon class="cls-3" points="37.35 51.68 52.62 51.68 44.99 24.71 37.35 51.68"/><path class="cls-3" d="M107.38,14c-5.87,0-9.78,2.79-11.22,7.86h22.14C116.65,16.08,112,14,107.38,14Z" transform="translate(0)"/><path class="cls-3" d="M108.82,40a13.68,13.68,0,0,0,9.88-3.78l12.35,6.87a24.29,24.29,0,0,1-11.88,8.62h13.73V33H96.47C98.42,38.18,103.16,40,108.82,40Z" transform="translate(0)"/><path class="cls-3" d="M30.31,28.38l6.05-22c-4.18-.63-8.24-1.28-12.14-2Z" transform="translate(0)"/><path class="cls-3" d="M59.66,28.38,64.34,10C61,9.58,57.62,9.19,54.27,8.78Z" transform="translate(0)"/><path class="cls-3" d="M80.1,27a26.33,26.33,0,0,1,4.52-15l-5.36-.51L67.12,51.68H97.86C86.68,48,80.1,38.55,80.1,27Z" transform="translate(0)"/><path class="cls-3" d="M138.57,51.64h15.07V18.19q-7.6-.46-15.07-1Z" transform="translate(0)"/><path class="cls-3" d="M189.11,0c-6.63,0-11.65,2.41-14.37,6.13V1.41H159.67V15.32q8.85.5,17.84.89a9.14,9.14,0,0,1,6.57-2.34,8.52,8.52,0,0,1,6.76,2.86q8.37.28,16.83.47C206.28,6,198.32,0,189.11,0Z" transform="translate(0)"/><path class="cls-3" d="M231.71,0C221.26,0,212,5.53,212,16.48c0,.28,0,.55,0,.81h.25q7.95.15,15.87.21a1.93,1.93,0,0,1-.66-1.43c0-1.81,1.61-2.81,4.22-2.81,3.25,0,5.25,1.74,6.65,4.28h.35l12.59-6.79C247.08,3.62,239.85,0,231.71,0Z" transform="translate(0)"/><path class="cls-3" d="M285.26,0c-6.73,0-11.65,2.31-15,6.13V1.41H255.22v16q9.6-.13,19-.39a12.06,12.06,0,0,1,8-2.76,12.28,12.28,0,0,1,7.32,2.23q8.93-.36,17.63-.86C303.44,6.31,295,0,285.26,0Z" transform="translate(0)"/><path class="cls-3" d="M312.79,1.41V15.31q7.64-.47,15.07-1V1.41Z" transform="translate(0)"/><path class="cls-3" d="M349,10.35V1.41H333.88V13.8c10.46-.87,20.54-1.88,30.14-3V.4C357.69.4,351,3.62,349,10.35Z" transform="translate(0)"/><path class="cls-3" d="M369.65,10.05c13.29-1.71,25.26-3.68,35.66-5.82A25.37,25.37,0,0,0,391,0C381.85,0,374.35,3.88,369.65,10.05Z" transform="translate(0)"/><path class="cls-4" d="M36.72,1.44H23.48l.75,3c3.9.69,8,1.35,12.14,2l1.29-4.71Z" transform="translate(0)"/><path class="cls-4" d="M52.25,1.44l.94,3.43,1.08,3.91c3.35.41,6.71.8,10.06,1.17L66.5,1.44Z" transform="translate(0)"/><path class="cls-4" d="M82.31,1.44l-3,10.06,5.36.51c.26-.38.54-.75.82-1.11l0-.06q.41-.53.86-1a26.14,26.14,0,0,1,14.52-8.36Z" transform="translate(0)"/><path class="cls-4" d="M113.7,1.44a25,25,0,0,1,16.46,12.11h0a25.76,25.76,0,0,1,1.52,3.17h0q.33.82.6,1.68t.5,1.74c0,.16.09.31.13.48V1.44Z" transform="translate(0)"/></svg>