<svg id="Layer_1" data-name="Layer 1" xmlns="http://www.w3.org/2000/svg" xmlns:xlink="http://www.w3.org/1999/xlink" viewBox="0 0 614.99 437.26"><defs><style>.cls-1{fill:#40bfb4;}.cls-2{clip-path:url(#clip-path);}.cls-3{fill:#8cd8d2;}.cls-4{fill:#fff;}.cls-5{fill:none;stroke:#fff;stroke-miterlimit:10;stroke-width:5px;}</style><clipPath id="clip-path" transform="translate(170.1 129.9)"><rect class="cls-1" x="0.11" width="300.23" height="300.23" rx="21.5" ry="21.5"/></clipPath></defs><title>submarca mobile</title><rect class="cls-1" x="170.22" y="129.9" width="300.23" height="300.23" rx="21.5" ry="21.5"/><g class="cls-2"><polygon class="cls-1" points="109.71 218.63 557.75 229.41 483.84 384.91 463.83 434.18 165.14 437.26 135.89 363.36 109.71 218.63"/><path class="cls-3" d="M-88.11,10.21c167.82,55.43,475.75,77,475.75,77L352.23-108.34,229.06-129.9H-12.66S-255.93-45.22-88.11,10.21Z" transform="translate(170.1 129.9)"/><path class="cls-4" d="M176,104.28l-34.77,115H110.76L93.38,157.88,76,219.3H45.58l-34.77-115H45.58l15.65,61.65,16.95-61.65h30.42l16.95,61.65,15.65-61.65Z" transform="translate(170.1 129.9)"/><path class="cls-4" d="M235.27,191.35c9.25,0,17.15-3.49,21.66-8.29L284,198.11c-11.06,14.84-27.75,22.47-49.19,22.47-38.58,0-62.5-25.09-62.5-57.6s24.37-57.6,60-57.6c32.94,0,57.31,24.65,57.31,57.6a61.38,61.38,0,0,1-1.35,13.09H208.2C212.48,187.42,222.86,191.35,235.27,191.35ZM256,151.64c-3.61-12.65-13.76-17.24-23.92-17.24-12.86,0-21.43,6.11-24.59,17.24Z" transform="translate(170.1 129.9)"/><path class="cls-5" d="M-168.94-30.59S92,107.21,444.61,68.72" transform="translate(170.1 129.9)"/></g></svg>