 <svg xmlns="http://www.w3.org/2000/svg" viewBox="0 0 468.8 81" id="brand-desktop" aria-labelledby="title, description">
    <title>brand</title><desc>We Inspire Brand Logo Icon Desktop Version</desc>
    <path class="brand-green" d="M0,56.1a8.7,8.7,0,0,0,8.7,8.7H20.6L0,8.3Z"/>
    <path class="brand-green" d="M147,1.3H127.6S150,3.7,149.6,36.9v2.5h4.7V8.6A7.3,7.3,0,0,0,147,1.3Z"/>
    <path class="brand-green" d="M174.5,21.3l-8.4-.8-1.6-.2V65.1h11.3V21.5Z"/>
    <path class="brand-blue" d="M115.7,3C97.7,3,84.7,16.1,84.7,34.1s13.2,31.2,31.4,31.2c11.4,0,20.9-5,26.1-13.6l1.5-2.5-9.9-5.8L132.4,46c-2.9,5.2-8.9,8.3-16.2,8.3-9.8,0-17.2-5.5-19.5-14.4h48.5v-.5s.1-4.6.1-5C145.3,19.1,134.9,3,115.7,3Zm17.7,25.8H96.6c2.1-9.1,9.3-14.8,19-14.8S131.4,19.6,133.4,28.8Z"/>
    <path class="brand-blue" d="M79.9,3.7a4.8,4.8,0,0,0-4.5,3.2L60,51h0L52.8,38.9h0l14-23.2h0l-7.4-1.2A5.5,5.5,0,0,0,54,16.8L46.3,28.2h0L45,25.9a5.5,5.5,0,0,0-6.3-2.6L32,25.3h0l8,13.6h0L32.4,51.4h0L16.5,7.7a6.2,6.2,0,0,0-5.8-4.1H3.3L25.6,64.7V65h8.8a4.4,4.4,0,0,0,3.7-2.1l8-13.3h0L55.6,65h8.1a4.4,4.4,0,0,0,4.1-2.9L88,3.7H79.9Z"/>
    <path class="brand-blue" d="M167.6,1.2a3.1,3.1,0,0,0-3.1,3.1V17.6h1.3l8.5.8h1.5V4.4a3.1,3.1,0,0,0-3.1-3.1Z"/>
    <path class="brand-blue" d="M234.8,24.6h-1.3l-8.6-.3h-1.6v1.6c0,.5.1,1,.1,1.5V65.1h11.4V27.2c0-.4,0-.9,0-1.3Z"/>
    <path class="brand-blue" d="M265.5,28.8c-4.3-1.1-8.1-2.1-10.4-3.6l-.3-.2h-.4l-10.7-.2h-2.1l.7,2c3.1,8.2,12.4,10.6,19.9,12.5s13.2,3.6,13.2,8.3-6.3,7.8-11.7,7.8c-7,0-12.2-3-13.9-8L248.7,44l-9.9,5.8.8,2.2c3.4,9,12.4,14.3,24,14.3,13.5,0,23-7.7,23-18.8C286.7,34.2,274.5,31.1,265.5,28.8Z"/>
    <path class="brand-blue" d="M354.4,22.9h-1.1l-8.8.5h-2l.8,1.9a21.6,21.6,0,0,1,1.8,8.7,21.1,21.1,0,1,1-42.1,0,21.8,21.8,0,0,1,1.2-7.3l.7-1.9h-2l-9.8.2h-1.4V81H303V57.7a29.6,29.6,0,0,0,21.4,8.6,31.8,31.8,0,0,0,32-32.2,33.3,33.3,0,0,0-1.6-10.2Z"/>
    <path class="brand-blue" d="M361.7,22.6h-1.3V65.1h11.3V22h-1.5Z"/>
    <path class="brand-blue" d="M378.9,21.7h-1.3V65.1h11.3V30.9c.4-8.2,2.1-10.1,2.1-10.1l-2.2.2Z"/>
    <path class="brand-blue" d="M462.5,14.3l-.5-.8h-.9L451.2,15l-3.4.4,2.5,2.3a20.2,20.2,0,0,1,6.1,10.8H418.1a20.4,20.4,0,0,1,3.5-7.5l2.1-2.8-3.5.4-10.4,1h-.9l-.4.9a34.5,34.5,0,0,0-2.7,13.6c0,18.7,13.7,32.4,32.6,32.4,11.8,0,21.7-5.2,27.1-14.2l1.5-2.6-10-5.9h-.1l-1.5,2.7c-3,5.5-9.3,8.7-16.9,8.7-10.2,0-18-5.8-20.3-15.1h50.4C468.6,39.7,470.1,26,462.5,14.3Z"/>
    <path class="brand-blue" d="M192.8,22.5l-9.6-.7h-1.5V65.1h11.3V32.5a28,28,0,0,1,1.1-8.2l.5-1.7Z"/>
    <path class="brand-green" d="M210.2,0c-6.9,0-12.8,2.2-17.3,6.3V4.4a3.2,3.2,0,0,0-3.2-3.2h-4.9a3.2,3.2,0,0,0-3.2,3.2V18.8h1.3l11.2.9h.9l.4-.8c2.8-5.2,7.8-8,14.4-8s11.5,3.3,13.1,9.3l.3,1h1l8.8.3h1.7l-.3-1.7C232.5,7.7,223.2,0,210.2,0Z"/>
    <path class="brand-green" d="M263.3,0c-12.7,0-22,7.9-22,18.8,0,.6,0,1.1.1,1.8v1.2h1.3l8.6.2h1.9l-.5-1.8a5.7,5.7,0,0,1-.2-1.5c0-5.3,5.5-7.8,10.7-7.8s10.1,2.5,11.8,6.8h0a2.8,2.8,0,0,0,4,1.4l4.7-2.7a2.8,2.8,0,0,0,1.2-3.6h0C281.4,4.8,273.3,0,263.3,0Z"/>
    <path class="brand-green" d="M324.3,0A29.6,29.6,0,0,0,303,8.6V4.4a3.2,3.2,0,0,0-3.2-3.2h-4.9a3.2,3.2,0,0,0-3.2,3.2V22.2h1.4l11.6-.2h.8l.4-.7a21.2,21.2,0,0,1,35.5-1.2l.4.7h.8l9.5-.5h2.1l-.9-1.9A31.6,31.6,0,0,0,324.3,0Z"/>
    <path class="brand-green" d="M360.4,19.9h1.5l8.5-.5h1.3V4.4a3.2,3.2,0,0,0-3.2-3.2h-5a3.2,3.2,0,0,0-3.2,3.2Z"/>
    <path class="brand-green" d="M388.8,6.2V4.4a3.2,3.2,0,0,0-3.2-3.2h-4.9a3.2,3.2,0,0,0-3.2,3.2V19h1.5l12-.9h.6l.4-.5a16.1,16.1,0,0,1,12.7-6.4h0a2.8,2.8,0,0,0,2.8-2.8V2.8A2.8,2.8,0,0,0,404.8,0h0A23.2,23.2,0,0,0,388.8,6.2Z"/>
    <path class="brand-green" d="M459.5,9A29,29,0,0,0,438,0c-11.6,0-21.5,5.3-27.2,14.5l-1.5,2.4,2.8-.3,12.5-1.2h.4l.3-.2A20.7,20.7,0,0,1,438,11a19.2,19.2,0,0,1,8.1,1.7l.4.2h.4l11.9-1.5,2.7-.4Z"/>
</svg>