<svg id="Layer_1" data-name="Layer 1" xmlns="http://www.w3.org/2000/svg" viewBox="0 0 416.1 71.66"><defs><style>.cls-1{fill:none;}.cls-2{fill:#fff;}</style></defs><title>weinspire blanco</title><path class="cls-1" d="M96.51,21.78h22.11c-1.65-5.77-6.27-7.86-10.9-7.86C101.86,13.92,98,16.71,96.51,21.78Z" transform="translate(-0.46 0.05)"/><path class="cls-1" d="M107.72,13.92c-5.86,0-9.77,2.78-11.21,7.86h22.11C117,16,112.35,13.92,107.72,13.92Z" transform="translate(-0.46 0.05)"/><path class="cls-1" d="M107.72,13.92c-5.86,0-9.77,2.78-11.21,7.86h22.11C117,16,112.35,13.92,107.72,13.92Z" transform="translate(-0.46 0.05)"/><path class="cls-1" d="M107.72,13.92c-5.86,0-9.77,2.78-11.21,7.86h22.11C117,16,112.35,13.92,107.72,13.92Z" transform="translate(-0.46 0.05)"/><path class="cls-2" d="M193.07,22.93v28.6h15.05V20.72c0-.13,0-.25,0-.37q-7.73-.17-15.41-.42A12,12,0,0,1,193.07,22.93Z" transform="translate(-0.46 0.05)"/><path class="cls-2" d="M160,51.53H175V24.13a13.92,13.92,0,0,1,.78-4.86q-8-.36-15.84-.8Z" transform="translate(-0.46 0.05)"/><path class="cls-2" d="M236.93,36.38c0,2-1.81,3.11-5.42,3.11-4.42,0-7.23-2.11-8.53-5.92l-13,7.43c3.91,8.13,11.54,11.94,21.58,11.94,10.84,0,20.87-4.92,20.87-16.46,0-10.49-7.89-13.84-14.75-15.8q-12.34,0-24.88-.24C216.3,33.33,236.93,31.33,236.93,36.38Z" transform="translate(-0.46 0.05)"/><path class="cls-2" d="M294.33,26.44c0,7.53-5,12.24-11.94,12.24S270.45,34,270.45,26.44a13.5,13.5,0,0,1,1.41-6.21q-8.15.22-16.46.33v51h15.05V46.81c3.31,3.81,8.23,6.12,15,6.12,13.15,0,24-11.54,24-26.49a29.45,29.45,0,0,0-1-7.73q-7.8.45-15.83.8A13.18,13.18,0,0,1,294.33,26.44Z" transform="translate(-0.46 0.05)"/><path class="cls-2" d="M312.9,51.53H328V17.41q-7.39.56-15.05,1Z" transform="translate(-0.46 0.05)"/><path class="cls-2" d="M334,51.53H349V28.85c0-9.94,8.83-12.44,15.05-11.44V13.92c-9.51,1.13-19.58,2.14-30.11,3Z" transform="translate(-0.46 0.05)"/><path class="cls-2" d="M364.37,26.44c0,15,10.64,26.49,27.8,26.49,9.53,0,17-3.51,21.88-10.34l-12-6.92a13.1,13.1,0,0,1-9.63,3.81c-5.52,0-10.14-1.81-12-7H416a29.18,29.18,0,0,0,.6-6,26.81,26.81,0,0,0-8-19.64c-11.86,2.54-25.72,4.79-41.12,6.7A27.68,27.68,0,0,0,364.37,26.44ZM391,13.29c4.52,0,9,2.11,10.64,7.93H380C381.43,16.1,385.25,13.29,391,13.29Z" transform="translate(-0.46 0.05)"/><path class="cls-2" d="M153.93,1.35H138.88V13.89q7.46.54,15.05,1Z" transform="translate(-0.46 0.05)"/><rect class="cls-2" y="1.68" width="3.18" height="50.11"/><polygon class="cls-2" points="7.18 1.43 7.18 51.63 22.83 51.63 7.66 1.43 7.18 1.43"/><polygon class="cls-2" points="37.31 51.63 52.56 51.63 44.94 24.68 37.31 51.63"/><path class="cls-2" d="M107.72,13.92c-5.86,0-9.77,2.78-11.21,7.86h22.11C117,16,112.35,13.92,107.72,13.92Z" transform="translate(-0.46 0.05)"/><path class="cls-2" d="M109.16,39.88A13.67,13.67,0,0,0,119,36.1L131.38,43a24.26,24.26,0,0,1-11.87,8.61h13.71V32.92H96.82C98.77,38.09,103.51,39.88,109.16,39.88Z" transform="translate(-0.46 0.05)"/><path class="cls-2" d="M30.74,28.3l6-22c-4.17-.62-8.23-1.28-12.13-2Z" transform="translate(-0.46 0.05)"/><path class="cls-2" d="M60.06,28.3,64.73,9.89C61.38,9.52,58,9.13,54.67,8.72Z" transform="translate(-0.46 0.05)"/><path class="cls-2" d="M80.47,27a26.3,26.3,0,0,1,4.52-15l-5.35-.51L67.5,51.57h30.7C87,47.91,80.47,38.45,80.47,27Z" transform="translate(-0.46 0.05)"/><path class="cls-2" d="M138.88,51.53h15.05V18.12q-7.59-.46-15.05-1Z" transform="translate(-0.46 0.05)"/><path class="cls-2" d="M189.36-.05c-6.62,0-11.64,2.41-14.35,6.12V1.35H160v13.9q8.84.5,17.82.89a9.12,9.12,0,0,1,6.56-2.34,8.51,8.51,0,0,1,6.75,2.86q8.36.28,16.81.47C206.51,5.9,198.56-.05,189.36-.05Z" transform="translate(-0.46 0.05)"/><path class="cls-2" d="M231.91-.05c-10.44,0-19.67,5.52-19.67,16.46,0,.28,0,.55,0,.81h.25q7.94.15,15.85.21A1.93,1.93,0,0,1,227.7,16c0-1.81,1.61-2.81,4.22-2.81,3.25,0,5.24,1.74,6.64,4.27h.35l12.58-6.78C247.27,3.56,240-.05,231.91-.05Z" transform="translate(-0.46 0.05)"/><path class="cls-2" d="M285.4-.05c-6.72,0-11.64,2.31-15,6.12V1.35H255.4v16q9.59-.13,19-.39a12,12,0,0,1,8-2.76,12.27,12.27,0,0,1,7.31,2.23q8.92-.36,17.61-.86C303.56,6.25,295.12-.05,285.4-.05Z" transform="translate(-0.46 0.05)"/><path class="cls-2" d="M312.9,1.35V15.24q7.64-.47,15.05-1V1.35Z" transform="translate(-0.46 0.05)"/><path class="cls-2" d="M349,10.28V1.35H334V13.73c10.45-.87,20.52-1.88,30.11-3V.35C357.76.35,351,3.56,349,10.28Z" transform="translate(-0.46 0.05)"/><path class="cls-2" d="M369.71,10C383,8.28,394.94,6.32,405.33,4.18A25.34,25.34,0,0,0,391.07-.05C381.88-.05,374.39,3.83,369.71,10Z" transform="translate(-0.46 0.05)"/><path class="cls-2" d="M37.13,1.38H23.91l.75,2.95c3.89.69,8,1.35,12.13,2l1.29-4.7Z" transform="translate(-0.46 0.05)"/><path class="cls-2" d="M52.66,1.38l.94,3.43,1.07,3.91c3.35.41,6.7.8,10.05,1.17l2.16-8.51Z" transform="translate(-0.46 0.05)"/><path class="cls-2" d="M82.67,1.38l-3,10.05,5.35.51c.26-.38.53-.75.82-1.11l0-.06q.41-.53.85-1a26.11,26.11,0,0,1,14.5-8.35Z" transform="translate(-0.46 0.05)"/><path class="cls-2" d="M114,1.38a24.92,24.92,0,0,1,16.44,12.1h0A25.73,25.73,0,0,1,132,16.65h0q.33.82.6,1.68t.49,1.74c0,.16.09.31.13.48V1.38Z" transform="translate(-0.46 0.05)"/></svg>