<svg xmlns="http://www.w3.org/2000/svg" xmlns:xlink="http://www.w3.org/1999/xlink" viewBox="0 0 548.6 924.8" xmlns:v="https://vecta.io/nano"><defs><linearGradient id="A" x1="-112.32" y1="4.01" x2="967.59" y2="4.01" gradientUnits="userSpaceOnUse"><stop offset="0" stop-color="#00405d"/><stop offset=".21" stop-color="#005f7f"/><stop offset=".23" stop-color="#006182"/><stop offset=".26" stop-color="#076c88"/><stop offset=".42" stop-color="#2699a0"/><stop offset=".54" stop-color="#39b5ae"/><stop offset=".61" stop-color="#40bfb4"/><stop offset=".69" stop-color="#3dbbb2"/><stop offset=".77" stop-color="#34afac"/><stop offset=".86" stop-color="#269ba1"/><stop offset=".94" stop-color="#127f93"/><stop offset="1" stop-color="#006686"/></linearGradient><linearGradient id="B" y1="920.79" y2="920.79" xlink:href="#A"/></defs><path d="M483.3 0H473a470.1 470.1 0 0 1 75.6 8V4.6A468 468 0 0 0 483.3 0z" fill="url(#A)"/><path d="M483.3,924.8a468,468,0,0,0,65.3-4.6v-3.4a468.9,468.9,0,0,1-75.5,7.9Z" fill="url(#B)"/><path d="M20.9,462.4c0,183.8,107.2,342.5,262.5,417.1a461.5,461.5,0,0,0,189.7,45.2,468.9,468.9,0,0,0,75.5-7.9V8A470.1,470.1,0,0,0,473,.1C222.4,5.6,20.9,210.5,20.9,462.4Z" fill="#40bfb4"/><g fill="#fff"><path d="M350.8 774c-27.7 30.6-49.9 67.1-67.4 105.5a461.3 461.3 0 0 0 199.9 45.3 468 468 0 0 0 65.3-4.6V631.1c-63.7 26.7-129 64.1-197.8 142.9z" opacity=".15"/><path d="M317.9,23c-50.5,135.5,127,358.9,39.5,502.9-48.5,79.9-213.3,27.9-342.9,51.9C56,739.2,182.3,866.4,343.1,909.3c0,0,177.8-41.6,205.5-88.3V8a470,470,0,0,0-86.2-8A463.2,463.2,0,0,0,317.9,23Z" opacity=".1"/><path d="M250 58.6h-13.1A464.2 464.2 0 0 0 87.5 191.7c51.4 123.8 344.5 85.6 361.7 223.2 10.3 83.3-71.6 196.1-63.5 388.1a219.2 219.2 0 0 0 45.4 120.8c10.3.6 20.8 1 31.3 1a470 470 0 0 0 86.2-8V101.6c-77 182.9-377 80.6-298.6-43z" opacity=".1"/></g><path d="M20.9,462.4C20.9,210.5,222.4,5.6,473,.1H462.4C207,0,0,207,0,462.4S207,924.8,462.4,924.8h10.7a461.5,461.5,0,0,1-189.7-45.2C128.1,804.9,20.9,646.2,20.9,462.4Z" fill="#40bfb4" opacity=".55"/></svg>