<svg xmlns="http://www.w3.org/2000/svg" viewBox="0 0 408.2 262.9" id="design">
    <g fill="none" stroke="#000000" stroke-width="2.3">
        <path d="M60.9 139.9A381.4 381.4 0 0 0 1.8 82.5c24.1-21.4 55.1-49.9 84.9-81 32 24.7 65.5 55.4 91.2 85.2l-15.8 13.2"/>
        <path d="M61.8 153.3C44.7 136.9 26 111.5 5.8 94c11.5-10.9 24-28.4 37.4-43s27.7-27.3 42.9-36.5q22.5 24.6 42.6 40.6c13.4 11.1 25.9 19.4 37.7 33.8-3.8 3.8-7.4 7.1-11.1 10.2"/>
        <path d="M308.1 60.4c3.8 8.3 5.2 17.5 5.3 27.2a62.6 62.6 0 0 0 26.9.3c-1.9-11.4-1.2-23.1 1-35.1-11.6.4-22.6 3.3-33.2 7.6z"/>
        <path d="M291.5 46.4c3.8 8.4 5.2 17.5 5.2 27.2a62.7 62.7 0 0 0 26.9.3c-1.9-11.4-1.1-23.1 1.1-35.1-11.6.4-22.6 3.3-33.2 7.6z"/>
        <path d="M389.6 168.7l17-55.2a11.4 11.4 0 0 0-11.4-14.7l-168 8m-67.8 134.1l191.9 20.8a11.4 11.4 0 0 0 12.1-8l8.8-28.7M61.4 154.9l-28.8 57.3a11.4 11.4 0 0 0 9.2 16l19.6 2.1"/>
        <path d="M61.4 107.7v128.2a11.4 11.4 0 0 0 12.2 11.4l309.5-23.1a11.4 11.4 0 0 0 10.6-12.4l-7.4-78.5a11.4 11.4 0 0 0-10.1-10.4l-223-24.2"/>
        <path d="M163 148.5a229.5 229.5 0 0 1 38.4 16.8l-36.3 27.4c-1.3-14.7-2-29.4-2.1-44.2z"/>
        <path d="M207.4 151.2c9.6 1.9 21 6.5 33.2 14.7-8.9 6-20 13-32.6 22.1-.7-12.5-.9-24.7-.6-36.8z"/>
        <path d="M247.2 157.1c7.8 3.6 16.7 7.7 26.5 12.8a251.1 251.1 0 0 0-25 19.7c-.9-10.5-1.4-21.3-1.5-32.5z"/>
        <path d="M119.4 95.3l16.8-9a10 10 0 0 1 13.6 4l2.2 4.2a9.9 9.9 0 0 1-4 13.6l-47.8 25.8m-1.9-52.1l10-16.2a10.2 10.2 0 0 1 13.9-3.3l4 2.5a10 10 0 0 1 3.3 13.8l-31.6 51.3M73.4 80l.7-18.2c.217-5.54 4.86-9.87 10.4-9.7l4.8.2a10 10 0 0 1 9.6 10.4l-3 63.9"/>
        <path d="M94 147.3l-2.8 1.7c-4.4 2.7-9.4 1.1-11.5-3.7a571.7 571.7 0 0 0-33.9-64.6c-3.1-5.3-1.6-11.5 3.9-13.8l3.4-1.4a12.9 12.9 0 0 1 15.4 5.4 531.9 531.9 0 0 1 30.6 63.2c1.8 4.7-.6 10.5-5.1 13.2z"/>
        <path d="M81.5 71.9c8.2.3 8.2 2.3 16.4 2.7M85.2 85.7c6.1 0 6.1 2 12.1 2.1m-8.7 10.5c4.3 0 4.2 2 8.4 2.1m14.2-23.2c3.9 3.1 6.7 7.3 13.8 8.7M107.3 91c2.9 2.2 5.1 5.1 10.4 6.1m-15 8.8c2 1.3 3.4 2.9 6.9 3.5m25.6-12.6c2.3 4.9 4 11.6 8.3 13.9m-19-4.8c1.8 3.8 3.2 8.8 6.5 10.6m-17.1.9c1.3 2.2 2.2 5.1 4.5 6.1"/>
        <path d="M90 136.3c-.8 1.9-2.6 3.1-4.3 2.1s-3-2.8-2.6-4.2a4.7 4.7 0 0 1 4.8-2.8c2.1 0 2.9 2.9 2.1 4.9z"/>
    </g>
</svg>