<svg xmlns="http://www.w3.org/2000/svg" viewBox="0 0 408.6 264.6" id="design">
    <g fill="none" stroke="#000000" stroke-width="2">
        <path d="M64.7,140.8A377.1,377.1,0,0,0,1.8,82.5c24.1-21.4,55.1-49.9,85-81,32,24.7,65.5,55.4,91.2,85.2l-18.5,17.1"/>
        <path d="M64.4,157.8C46.6,141.1,27.1,114.2,5.9,95.9,17.5,84.8,30.1,67.2,43.5,52.5S71.2,25.4,86.4,16.2Q109.1,41,129.1,57c13.4,11.1,26,19.3,37.8,33.3-3.7,3.9-7.4,7.3-11,10.5"/>
        <path d="M308.5 62.1c3.7 8.4 5.2 17.5 5.2 27.2a62.7 62.7 0 0 0 26.9.3c-1.9-11.4-1.2-23.1 1.1-35.1-11.6.4-22.6 3.3-33.2 7.6z"/>
        <path d="M291.9 48.1c3.7 8.4 5.2 17.5 5.2 27.2a64.3 64.3 0 0 0 26.9.4c-1.9-11.5-1.2-23.2 1.1-35.2-11.6.5-22.6 3.4-33.2 7.6z"/>
        <path d="M389.9 170.4l17-55.1a11.4 11.4 0 0 0-11.4-14.8l-167.9 8m-67.9 134.1l191.9 20.8a11.3 11.3 0 0 0 12.1-8l8.9-28.6M61.7 156.6L33 213.9a11.4 11.4 0 0 0 9.1 16l19.6 2.1"/>
        <path d="M61.7,113.1V237.6A11.4,11.4,0,0,0,74,249l309.5-23.1A11.3,11.3,0,0,0,394,213.5L386.7,135a11.4,11.4,0,0,0-10.2-10.3L153.6,100.4" fill="#fff" class="F G I"/><path d="M49.4 164c-1.2 9.7-8.5 12.9-16.4 16.7s-15.3-7.6-16.5-16.2c-1.2-6.8 6.2-8.6 16.5-16.7s17.6 4.9 16.4 16.2z" />
        <path d="M189.9 148.7l-9.8 6.2-9.7 6-19 11.7v-1.7l19.6 11.3 19.5 11.5-1.6.8.5-22.5.3-11.5zm0 0l.6 22.6.5 23.2v1.8l-1.6-.9-19.5-11.3-19.5-11.5-1.5-.9 1.5-.8 20-11.3 9.9-5.5zm39 43.7l-8.7-4.9-9-4.9-18.2-10.2-1.5-.8 1.5-.9 17.6-10.5 17.8-10.2 1.5-.9v1.8c0 7.1-.2 14.1-.4 21.1l-.3 10.3zm0 0l-.6-21.1-.4-20.4 1.5.9-17.6 10.4-17.7 10.2v-1.7c5.7 3.4 11.4 7 17.1 10.6l8.7 5.5zm39-40.9l-8.7 5.4-8.5 5.4-16.6 10.3v-1.7c5.8 3.2 11.5 6.6 17.2 9.9l17.1 10.1-1.5.9c0-6.6.2-13.1.4-19.8l.3-10.1zm0 0l.3 9.8.3 10 .4 20.5v1.7l-1.5-.8-17.2-10-18.6-11 1.5-.8 17.6-10 8.7-4.7z" />
        <path d="M119.7 97l16.8-9a9.9 9.9 0 0 1 13.6 4l2.3 4.2a10 10 0 0 1-4.1 13.6l-47.7 25.9m-1.9-52.2l10-16.2a10.1 10.1 0 0 1 13.8-3.3l4.1 2.5a10.1 10.1 0 0 1 3.2 13.9l-31.5 51.2M73.8 81.7l.6-18.2a10.1 10.1 0 0 1 10.5-9.7l4.7.2a10.1 10.1 0 0 1 9.7 10.5l-2.5 63"/>
        <rect x="59" y="56.6" width="24.9" height="96.42" rx="10" transform="matrix(.892586 -.450878 .450878 .892586 -39.6 43.5)"/>
        <path d="M81.9 73.6c8.2.3 8.1 2.3 16.3 2.7M85.5 87.4c6.1 0 6.1 2 12.2 2.1M89 100c4.2.1 4.2 2.1 8.4 2.1m14.1-23.2c3.9 3.1 6.8 7.3 13.8 8.7m-17.7 5.2c3 2.1 5.1 5 10.5 6m-15 8.9c1.9 1.2 3.3 2.8 6.8 3.4m25.6-12.6c2.4 5 4.1 11.6 8.3 13.9m-19-4.8c1.9 3.8 3.2 8.9 6.6 10.6m-17.2.9c1.3 2.2 2.2 5.1 4.5 6.1"/>
        <path d="M90.4 138c-.9 1.9-2.7 3.1-4.4 2.1s-3-2.8-2.6-4.2a4.8 4.8 0 0 1 4.9-2.8c2.1 0 2.9 2.9 2.1 4.9z"/>
    </g>
</svg>