<svg xmlns="http://www.w3.org/2000/svg" viewBox="0 0 411.9 300.2">
<style><![CDATA[.D{stroke-width:2.5}.E{stroke-miterlimit:10}.F{stroke:#009889}.G{stroke:#00416b}]]></style>
<g fill="none"><g class="E"><g class="F">
<path d="M64.9 156.9L4 96 98.3 1.7 192.6 96l-20.5 20.5" stroke-width="2.44"/>
<path d="M219.5 78.5h30.7v30.7h-30.7z" class="D"/></g>
<path d="M204.1 63.2h30.7v30.7h-30.7z" class="D G"/>
<path d="M393.1 184.8l17-55.2a11.4 11.4 0 0 0-11.4-14.7l-167.9 8M163 257l191.8 20.8a11.3 11.3 0 0 0 12.1-8l8.9-28.7m-313.4-71l-26.2 58.2a11.3 11.3 0 0 0 9.1 15.9l19.6 2.2" class="F D"/>
<path d="M397.2 227.8l-7.3-78.5a11.5 11.5 0 0 0-10.2-10.3L77.6 106.2a11.5 11.5 0 0 0-12.7 11.4V252a11.5 11.5 0 0 0 12.3 11.4l309.5-23.1a11.4 11.4 0 0 0 10.5-12.5z" class="D G"/></g><g class="F D">
<circle cx="20.6" cy="172.5" r="19.3"/>
<circle cx="161.2" cy="287.5" r="11.4"/>
<circle cx="190.7" cy="278.8" r="9.7"/>
<path d="M193.2 165.4l-38.4 22.2 38.4 22.1v-44.3zm42.7.8l-37 21.4 37 21.3v-42.7zm42.5.3L242 187.6l36.4 21v-42.1z" class="E"/></g>
<path d="M64.9 172.6L4 111.7l94.3-94.3 94.3 94.3-6.4 6.3" class="D E G"/></g>
</svg>