<svg id="Layer_1" data-name="Layer 1" xmlns="http://www.w3.org/2000/svg" viewBox="0 0 100 100"><defs><style>.cls-1{fill:#fff;}.cls-2{fill:none;stroke:#e5e013;stroke-miterlimit:10;stroke-width:5.04px;}</style></defs><title>email1</title><path class="cls-1" d="M50,100a50,50,0,1,1,50-50A50.06,50.06,0,0,1,50,100ZM50,2.12A47.88,47.88,0,1,0,97.88,50,47.94,47.94,0,0,0,50,2.12Z"/><path class="cls-1" d="M21.64,31H79L49.93,51.17S21.64,31,21.64,31Z"/><path class="cls-1" d="M75.32,70.08h-51c-.06,0,20-19,20-18.92,2,1.3,3.6,2.71,5.67,4.06C51.82,54,53.06,53,55.3,51.44,61.55,56.87,67.26,63.07,75.32,70.08Z"/><path class="cls-1" d="M21.95,35S22,56,22,68c7.2-6.23,13-12.51,20.1-18.62Z"/><path class="cls-2" d="M56,49.82"/><path class="cls-1" d="M79.08,35.25s0,21.08,0,33C71.85,62,66,55.76,59,49.64Z"/></svg>