<svg xmlns="http://www.w3.org/2000/svg" viewBox="0 0 31 31" id="instagram">
<circle cx="15.5" cy="15.5" r="3"/>
    <path d="M23.1 11.5C23 9.1 21.9 8 19.5 7.8h-7.8C9 8 7.9 9.1 7.8 11.5v7.9c.1 2.4 1.2 3.5 3.7 3.7h7.8c2.5-.1 3.6-1.2 3.7-3.7.1-1.3.1-2.6.1-4 .1.1 0-3.9 0-3.9zm-7.6 9.1c-2.8 0-5.1-2.3-5.1-5.1s2.3-5.1 5.1-5.1 5.1 2.3 5.1 5.1-2.3 5.1-5.1 5.1zm5.1-9.1a1.11 1.11 0 0 1-1.1-1.1 1.11 1.11 0 0 1 1.1-1.1 1.11 1.11 0 0 1 1.1 1.1c0 .7-.5 1.1-1.1 1.1zM15.7 0h-.2C7 0 0 6.9 0 15.4v.1C0 24 6.9 31 15.4 31h.1C24 31 31 24.1 31 15.6v-.1C31.1 7 24.2.1 15.7 0zm9.6 19.4c-.2 3.6-2.2 5.6-5.9 5.9h-7.8c-3.7-.2-5.7-2.3-5.9-5.8-.1-1.3-.2-2.6-.1-3.9 0-1.3 0-2.6.1-3.9.1-3.7 2.2-5.8 5.9-6h7.8c3.6.2 5.6 2.2 5.9 5.9 0 0 0 7.8 0 7.8z"/>
</svg>