<svg version="1.1" id="screen" xmlns="http://www.w3.org/2000/svg" xmlns:xlink="http://www.w3.org/1999/xlink" x="0px" y="0px" width="702.5px" height="489.1px" viewBox="0 0 702.5 489.1" enable-background="new 0 0 702.5 489.1" xml:space="preserve">
<path fill="none" stroke="#000" stroke-width="2" stroke-miterlimit="10" d="M700.8,487.4H0.8V8.8c0-4.4,3.6-8,8-8h684
	c4.4,0,8,3.6,8,8V487.4z"></path>
<circle fill="none" stroke="#000" stroke-width="2" stroke-miterlimit="10" cx="25.2" cy="17.1" r="4.9"></circle>
<circle fill="none" stroke="#000" stroke-width="2" stroke-miterlimit="10" cx="42.4" cy="17.1" r="4.9"></circle>
<circle fill="none" stroke="#000" stroke-width="2" stroke-miterlimit="10" cx="59.5" cy="17.1" r="4.9"></circle>
<g>
	<g>
		
			<line fill="none" stroke="#000" stroke-width="2" stroke-linecap="round" stroke-linejoin="round" stroke-miterlimit="10" x1="676.9" y1="44" x2="692.5" y2="44"></line>
		
			<line fill="none" stroke="#000" stroke-width="2" stroke-linecap="round" stroke-linejoin="round" stroke-miterlimit="10" x1="676.9" y1="49.8" x2="692.5" y2="49.8"></line>
		
			<line fill="none" stroke="#000" stroke-width="2" stroke-linecap="round" stroke-linejoin="round" stroke-miterlimit="10" x1="676.9" y1="55.6" x2="692.5" y2="55.6"></line>
	</g>
</g>
<g>
	<g>
		<g>
			
				<polyline fill="none" stroke="#000" stroke-width="2" stroke-linecap="round" stroke-linejoin="round" stroke-miterlimit="10" points="
				17.2,57.2 9.7,49.8 17.2,42.3 			"></polyline>
		</g>
		
			<line fill="none" stroke="#000" stroke-width="2" stroke-linecap="round" stroke-linejoin="round" stroke-miterlimit="10" x1="9.7" y1="49.8" x2="25" y2="49.8"></line>
	</g>
	<g>
		<g>
			
				<polyline fill="none" stroke="#000" stroke-width="2" stroke-linecap="round" stroke-linejoin="round" stroke-miterlimit="10" points="
				44.4,42.3 51.8,49.8 44.3,57.2 			"></polyline>
		</g>
		
			<line fill="none" stroke="#000" stroke-width="2" stroke-linecap="round" stroke-linejoin="round" stroke-miterlimit="10" x1="51.8" y1="49.8" x2="36.5" y2="49.8"></line>
	</g>
	<g>
		<path fill="none" stroke="#000" stroke-width="2" stroke-linecap="round" stroke-miterlimit="10" d="M75.2,54.5
			c-1,0.7-2.2,1.2-3.6,1.2c-3.3,0-5.9-2.6-5.9-5.9s2.6-5.9,5.9-5.9c2.5,0,4.7,1.6,5.5,3.9"></path>
		
			<polygon fill="#000" stroke="#000" stroke-width="2" stroke-linecap="round" stroke-linejoin="round" stroke-miterlimit="10" points="
			74,48.9 78.7,44.2 78.7,48.9 		"></polygon>
	</g>
</g>
<path fill="none" stroke="#000" stroke-width="2" stroke-miterlimit="10" d="M665.6,61.3H95.1c-1.1,0-2-0.9-2-2v-19
	c0-1.1,0.9-2,2-2h570.5c1.1,0,2,0.9,2,2v19C667.6,60.4,666.7,61.3,665.6,61.3z"></path>
<path fill="none" stroke="#000" stroke-width="2" stroke-miterlimit="10" d="M284.5,32.7h416.3v34.2H0.8V32.7h76.1
	c0,0,2-0.1,3-2.3c1-2.2,6.7-17.4,8.1-19.4c1-1.5,2.5-2.3,3.5-2.3c2.3,0,32.8,0,32.8,0h113c0,0,30.5,0,32.8,0c1,0,2.5,0.8,3.5,2.3
	c1.4,2,7.1,17.3,8.1,19.4S284.5,32.7,284.5,32.7z"></path>
<path fill="none" stroke="#000" stroke-width="2" stroke-miterlimit="10" d="M309.4,26.8h-20.8c-0.9,0-1.7-0.5-2-1.4l-4.2-10.4
	c-0.6-1.4,0.5-3,2-3h20.8c0.9,0,1.7,0.5,2,1.4l4.2,10.4C312,25.3,311,26.8,309.4,26.8z"></path>
</svg>