<svg xmlns="http://www.w3.org/2000/svg" viewBox="0 0 369.7 296.1" id="software">
    <g fill="none" stroke="#000000" stroke-width="2.3">
        <path d="M214.3 250.8l-202-9.8c-6.282-.32-11.208-5.5-11.2-11.8L2 38.8a11.7 11.7 0 0 1 10.5-11.7L266.3 1.2a11.7 11.7 0 0 1 12.9 11.7v108.7m-14.9 131.6l-13.3-.6"/>
        <path d="M120.9 246.1s9.5 23-14 26.1L60.5 281l80.7 4.9 41.4-8.9s10.4-7.9 2.2-27.6zm94.2-7.7l-202-7.9V38.3l254.2-25.2v108.1m-3.8 119.1l-11.6-.5"/>
        <path d="M161.9 79.5L27.5 88.3V54.2l226.2-21.9v41.2L169.9 79"/>
        <path d="M126.5 211.3l-99-2V108.5l99-5.6z"/>
        <path d="M263.8 121.1l86.4 2.9a6.7 6.7 0 0 1 6.4 6.2l12 152.9a6.7 6.7 0 0 1-6.3 7.2l-89 4.6a6.7 6.7 0 0 1-7-6.3q-4.7-80.3-9.4-160.4a6.7 6.7 0 0 1 6.9-7.1z"/>
        <path d="M250.1 190.8l-75.2-2.1-.3-86.8 75.5-4.7z"/>
        <path d="M161.9 93.4V71.1l16 15.5v.2h-5.1c-2.2 0-2 0-1.2 1.8l2.6 6.3c.4.7.2 1.1-.5 1.3l-2 .8c-.6.3-.9.2-1.2-.5l-3-7c-.4-.9-.5-.9-1.2-.3z"/>
        <path d="M174.3 208.4l21.3.8m-21.7 7.8l35.3 1.3"/>
        <path d="M221.8 206.6l27.2.5a4.7 4.7 0 0 1 4.7 5.1l-4.8 71.7a4.8 4.8 0 0 1-5.4 4.4l-27-3.5a4.7 4.7 0 0 1-4.1-5q2.3-34.4 4.6-68.7a4.7 4.7 0 0 1 4.8-4.5z"/>
        <path d="M88.1 169.6l-29.6-.9a6.1 6.1 0 0 1-6.1-6.2v-9.7a6.1 6.1 0 0 1 6.1-6.2l29.6-.7a6.2 6.2 0 0 1 6.2 6.2v11.3a6.2 6.2 0 0 1-6.2 6.2z"/>
        <path d="M68.4 154.4v6.7l9.9-3.3z"/>
        <path d="M361.6 283.4l-88.1 4.9-9.3-159.4 85.9 1.5q5.7 76.5 11.5 153z"/>
        <path d="M347.9 180l-74.2-.4-2.5-43.9 74.2.7 2.5 43.6zm5.7 97.9l-28.1 1.5-3.9-64.6 28.2-.7 3.8 63.8zm-39.8-40.8l-36.6.7-1.2-22.2h36.6zm2.5 41.4l-36.3 1.8-2.1-33.2 36.6-1.5z"/>
        <path d="M273.5 192.1l76.1-1.2m-70.7 16.2l69.3-1"/>
        <path d="M287 199.5l59.6-.9"/>
        <path d="M243.4 283l-25.6-3.1 3.8-68.9 26.8.8-5 71.2z"/>
        <path d="M242.5 228.8l-17.5-1.2.6-10.8 17.8.8zm-3.4 48.9l-16.8-2 1.7-30.5 17.8.8z"/>
        <path d="M224.7 232.7l16.7.9m-14.8 3l11.9.5m-13.8 3.3l15.3.8"/>
    </g>
</svg>