<svg xmlns="http://www.w3.org/2000/svg" viewBox="0 0 153 65.26"><path d="M115.63 0c-18.77 0-32.4 13.72-32.4 32.63S97 65.26 116.1 65.26c11.9 0 21.85-5.2 27.3-14.26l1.35-2.23-9.6-5.68-1.28 2.34c-3.13 5.72-9.73 9.13-17.65 9.13-10.88 0-19.1-6.37-21.37-16.36h51.7l.12-5.35C146.64 16.93 135.77 0 115.63 0zM94.78 27.4c2.07-10.2 10.1-16.7 20.85-16.7 10 0 17.5 6.5 19.48 16.7z" fill="#fff"/><path d="M0 64h18.25L0 13.9V64z" fill="#c5c7c9"/><path d="M58.77 51.6l-8.27-14L67.8 9H54.43L44.2 26.93 40.7 21H28.6l9.75 16.2-8.26 14.48L11.6 1H.46L23.4 64h11.12l10-16.53L54.48 64h11.07L87.3 1H76.44L58.77 51.6z" fill="#fff"/><path d="M151 38h2V1h-20c19.9 9.2 18 34.35 18 37z" fill="#c5c7c9"/></svg>