<svg id="Layer_1" data-name="Layer 1" xmlns="http://www.w3.org/2000/svg" viewBox="0 0 160.4 65.5"><defs><style>.cls-1{fill:#00416b;}.cls-2{fill:#009889;}</style></defs><title>subbrand_color</title><path class="cls-1" d="M119.2,1.9c-18.3,0-31.6,13.4-31.6,31.8s13.5,31.8,32,31.8c11.6,0,21.3-5.1,26.6-13.9l1.5-2.6-10.1-6-1.5,2.7c-2.9,5.3-9.1,8.5-16.5,8.5-10,0-17.6-5.6-19.9-14.8h49.5v-.5s.1-4.6.1-5.1C149.4,18.4,138.8,1.9,119.2,1.9Zm18.1,26.3H99.8c2.1-9.3,9.5-15.1,19.4-15.1S135.3,18.9,137.3,28.2Z"/><path class="cls-1" d="M82.7,2.6a4.8,4.8,0,0,0-4.5,3.2L62.8,50h0L55.6,37.8h0L69.6,14.6h0l-7.4-1.2a5.5,5.5,0,0,0-5.4,2.4L49,27.2h0l-1.3-2.3a5.5,5.5,0,0,0-6.3-2.6l-6.7,1.9h0l8,13.6h0L35.1,50.4h0L19.2,6.7a6.2,6.2,0,0,0-5.8-4.1H6L28.3,63.7v.3h8.8a4.4,4.4,0,0,0,3.7-2.1l8-13.3h0l9.3,15.4h8.1a4.4,4.4,0,0,0,4.1-3L90.7,2.6H82.7Z"/><path class="cls-2" d="M0,56.4a8.9,8.9,0,0,0,8.9,8.9H21L0,7.6Z"/><path class="cls-2" d="M152.9,0H133.2S156,2.4,155.6,36.4v2.5h4.8V7.4A7.4,7.4,0,0,0,152.9,0Z"/></svg>