<svg xmlns="http://www.w3.org/2000/svg" xmlns:xlink="http://www.w3.org/1999/xlink" viewBox="0 0 265.7 1466.7" id="svg-bg-left">
<defs>
<linearGradient id="A" x1="-556.44" y1="784.18" x2="283.59" y2="784.18" gradientUnits="userSpaceOnUse">
<stop offset=".45" stop-color="#076887"/>
<stop offset=".52" stop-color="#10768e"/>
<stop offset=".73" stop-color="#2a9ea3"/>
<stop offset=".9" stop-color="#3ab6af"/>
<stop offset="1" stop-color="#40bfb4"/>
</linearGradient>
<linearGradient id="B" x1="-473.16" y1="1235.36" x2="241.14" y2="1235.36" xlink:href="#A"/>
<linearGradient id="C" x1="-473.16" y1="1420.53" x2="241.14" y2="1420.53" xlink:href="#A"/>
<linearGradient id="D" y1="3.13" y2="3.13" xlink:href="#A"/>
<linearGradient id="E" y1="134.37" y2="134.37" xlink:href="#A"/>
<path id="F" d="M240.6 1087.7c-11.7-14.4-23.8-28.1-36-41.8-3.7 4.6-7.4 9.5-11 14.6-73.2 109.1-30.9 228-66.6 272.9-27.3 34.3-75.6 25.7-127 11.8v56.5c16.9 4.1 32.1 11.9 42.7 23.1 89.2-36.5 207.2-124.9 197.9-337.1z"/>
<path id="G" d="M204.6 1045.9l9 10.1.5.6 3.6 4.1 1 1.2 3.5 4 .8.9 4.2 4.8.6.8 3.4 4 1.3 1.5 2.9 3.5 1.2 1.4 4 4.9a615.5 615.5 0 0 0-7.3-71.4 225.3 225.3 0 0 0-28.7 29.6z"/>
<path id="H" d="M87.8 63.3C64.1 40.5 35.5 20.2 3.8 2.1 2.5 3.5 1.2 4.8 0 6.3V211c34.5 31.3 88.9 44.4 147.4 55.6 23.7-83.5-4.4-150.2-59.6-203.3z"/>
</defs>
<g fill="#b4e0dd">
<path d="M248.7 990.1C180.6 683.9-36.6 802.3 161.9 317c44.7-109.3 3.8-191.9-74.1-253.7 61.4 59.1 89.3 135.1 49.6 232.4q-14.1 34.5-25.5 65.1h-1.3c-35.2 61.4-106.9 249-69 400.8 39.8 173.1 126.6 237.1 199 326.1C251.5 1336.4 87.4 1415.2 0 1439.4v27.3c85.8-17.6 332-101.5 248.7-476.6z"/>
<path d="M240.6 1087.7c-72.4-89-159.2-153-199-326.1-37.9-151.8 33.8-339.4 69-400.7h1.3q11.4-30.6 25.5-65.1c39.7-97.3 11.8-173.3-49.6-232.4C62 42.8 32.2 24.6 0 8.4v871.7q5.6 14.1 10.2 28.8c27.3 87.8 21.3 175.7-10.2 242.6v287.9c87.4-24.2 251.5-103 240.6-351.7z"/>
</g>
<path d="M240.6 1087.7c-1.5-36-6.8-75.5-16.4-119-64.8-291.6-265-198.1-112.3-607.9q11.4-30.6 25.5-65.1a264.4 264.4 0 0 0 10-29.1C88.9 255.4 34.5 242.3 0 211v551.3a374.8 374.8 0 0 1 54.1 109.1c33.5 107.9 16.8 215.9-35.7 284.9A197 197 0 0 1 0 1177.5v167.7c51.4 13.9 99.7 22.5 127-11.8 35.7-44.9-6.6-163.8 66.6-272.9 3.6-5.1 7.3-10 11-14.6-10.1-11.3 14.6 15.5 36 41.8z" fill="url(#A)"/>
<use xlink:href="#F" fill="url(#B)"/>
<use xlink:href="#F" fill="#fff" opacity=".1"/>
<path d="M0 1401.7v37.7a381 381 0 0 0 42.7-14.6c-10.6-11.2-25.8-19-42.7-23.1z" fill="url(#C)"/>
<g fill="#fff">
<path d="M222.2 1065.9l-3.5-4zm-4.5-5.2l-3.6-4.1zm9.5 10.9l-4.2-4.8zm8.2 9.8l-2.9-3.5zm-4.2-5l-3.4-4zm9.4 11.3l-4-4.9zm-36-41.8l9 10.1-9-10.1z" opacity=".1"/>
<path d="M236.6 1082.8l-1.2-1.4zm-4.1-4.9l-1.3-1.5zm-4.7-5.5l-.6-.8zm-4.8-5.6l-.8-.9zm-8.9-10.2l-.5-.6zm4.6 5.3l-1-1.2z" opacity=".15"/>
<use xlink:href="#G" opacity=".1"/>
</g>
<path d="M0,0V6.3C1.2,4.8,2.5,3.5,3.8,2.1Z" fill="url(#D)"/>
<use xlink:href="#H" fill="url(#E)"/>
<use xlink:href="#H" fill="#fff" opacity=".08"/>
<g fill="#fff">
<path d="M233.3 1016.3a895.65 895.65 0 0 0-9.1-47.6c-64.8-291.6-265-198.1-112.3-607.9h-1.3c-35.2 61.4-106.9 249-69 400.8 33.3 145.1 99.7 213.5 163 284.3a225.3 225.3 0 0 1 28.7-29.6z" opacity=".15"/>
<use xlink:href="#G" opacity=".25"/>
</g>
<path d="M18.4 1156.3c52.5-69 69.2-177 35.7-284.9A374.8 374.8 0 0 0 0 762.3v73.8a388.8 388.8 0 0 1 31 72.7c27.9 90 21 180-12.6 247.5z" fill="#60c5bb"/>
<path d="M31,908.8A388.8,388.8,0,0,0,0,836.1v44q5.6,14.1,10.2,28.8C37.5,996.7,31.5,1084.6,0,1151.5v26a197,197,0,0,0,18.4-21.2C52,1088.8,58.9,998.8,31,908.8Z" fill="#a4dad7"/>
</svg>