<!-- 11/4 brand mobile email behance  -->
<svg 
    id="svg-definitions"
    style="display: none"
    xmlns="http://www.w3.org/2000/svg"
    xmlns:xlink="http://www.w3.org/1999/xlink">
    <defs>
        <symbol 
            xmlns="http://www.w3.org/2000/svg" 
            viewBox="0 0 153 65.26"
            id="brand-mobile"
            aria-labelledby="title, description">
            <title>Brand Icon</title>
            <desc>We Inspire Brand Icon Mobile Version</desc>
            <path fill="var(--letter-e)" id="letter-e" d="M115.63 0c-18.77 0-32.4 13.72-32.4 32.63S97 65.26 116.1 65.26c11.9 0 21.85-5.2 27.3-14.26l1.35-2.23-9.6-5.68-1.28 2.34c-3.13 5.72-9.73 9.13-17.65 9.13-10.88 0-19.1-6.37-21.37-16.36h51.7l.12-5.35C146.64 16.93 135.77 0 115.63 0zM94.78 27.4c2.07-10.2 10.1-16.7 20.85-16.7 10 0 17.5 6.5 19.48 16.7z"/>
            <path fill="var(--shape-left)" id="shape-left" d="M0 64h18.25L0 13.9V64z" />
            <path fill="var(--letter-w)" id="letter-w" d="M58.77 51.6l-8.27-14L67.8 9H54.43L44.2 26.93 40.7 21H28.6l9.75 16.2-8.26 14.48L11.6 1H.46L23.4 64h11.12l10-16.53L54.48 64h11.07L87.3 1H76.44L58.77 51.6z"/>
            <path fill="var(--shape-right)" id="shape-right" d="M151 38h2V1h-20c19.9 9.2 18 34.35 18 37z" />
        </symbol>
        <symbol
            viewBox="0 0 24 24"
            id="icon-facebook"
            aria-labelledby="title, description">
            <title>Facebook Example</title>
            <desc>This inline svg (Facebook Icon) Example is good for understanding</desc>
            <path
            d="M12 0c-6.627 0-12 5.373-12 12s5.373 12 12 12 12-5.373 12-12-5.373-12-12-12zm3 8h-1.35c-.538 0-.65.221-.65.778v1.222h2l-.209 2h-1.791v7h-3v-7h-2v-2h2v-2.308c0-1.769.931-2.692 3.029-2.692h1.971v3z"
            />
        </symbol>
        <symbol 
            xmlns="http://www.w3.org/2000/svg"
            viewBox="0 0 100 100"
            id="icon-email">
            <title>email fondo</title>
            <path class="cls-3" d="M50,100a50,50,0,1,1,50-50A50.06,50.06,0,0,1,50,100ZM50,2.12A47.88,47.88,0,1,0,97.88,50,47.94,47.94,0,0,0,50,2.12Z"/>
            <path class="cls-3" d="M21.64,31H79L49.93,51.17S21.64,31,21.64,31Z"/>
            <path class="cls-3" d="M75.32,70.08h-51c-.06,0,20-19,20-18.92,2,1.3,3.6,2.71,5.67,4.06C51.82,54,53.06,53,55.3,51.44,61.55,56.87,67.26,63.07,75.32,70.08Z"/>
            <path class="cls-3" d="M21.95,35S22,56,22,68c7.2-6.23,13-12.51,20.1-18.62Z"/>
            <path class="cls-4" d="M56,49.82"/>
            <path class="cls-3" d="M79.08,35.25s0,21.08,0,33C71.85,62,66,55.76,59,49.64Z"/>
        </symbol>
        <symbol 
            viewBox="0 0 512 512" 
            xmlns="http://www.w3.org/2000/svg"
            id="icon-face"
            aria-labelledby="title, description">
            <title>Facebook Icon</title>
            <desc>Facebook Social Network Icon</desc>
            <path d="m297.277344 508.667969c-2.132813.347656-4.273438.667969-6.421875.960937 2.148437-.292968 4.289062-.613281 6.421875-.960937zm0 0"/>
            <path d="m302.398438 507.792969c-1.019532.1875-2.039063.359375-3.058594.535156 1.019531-.175781 2.039062-.347656 3.058594-.535156zm0 0"/>
            <path d="m285.136719 510.339844c-2.496094.28125-5.007813.53125-7.527344.742187 2.519531-.210937 5.03125-.460937 7.527344-.742187zm0 0"/>
            <path d="m290.054688 509.738281c-1.199219.160157-2.40625.308594-3.609376.449219 1.203126-.140625 2.410157-.289062 3.609376-.449219zm0 0"/>
            <path d="m309.367188 506.410156c-.898438.191406-1.800782.382813-2.703126.566406.902344-.183593 1.804688-.375 2.703126-.566406zm0 0"/>
            <path d="m326.664062 502.113281c-.726562.207031-1.453124.402344-2.179687.605469.726563-.203125 1.453125-.398438 2.179687-.605469zm0 0"/>
            <path d="m321.433594 503.542969c-.789063.207031-1.582032.417969-2.375.617187.792968-.199218 1.585937-.40625 2.375-.617187zm0 0"/>
            <path d="m314.589844 505.253906c-.835938.195313-1.679688.378906-2.523438.566406.84375-.1875 1.6875-.371093 2.523438-.566406zm0 0"/>
            <path d="m277.527344 511.089844c-1.347656.113281-2.695313.214844-4.046875.304687 1.351562-.089843 2.699219-.191406 4.046875-.304687zm0 0"/>
            <path d="m512 256c0-141.363281-114.636719-256-256-256s-256 114.636719-256 256 114.636719 256 256 256c1.503906 0 3-.03125 4.5-.058594v-199.285156h-55v-64.097656h55v-47.167969c0-54.703125 33.394531-84.476563 82.191406-84.476563 23.367188 0 43.453125 1.742188 49.308594 2.519532v57.171875h-33.648438c-26.546874 0-31.6875 12.617187-31.6875 31.128906v40.824219h63.476563l-8.273437 64.097656h-55.203126v189.453125c107.003907-30.675781 185.335938-129.257813 185.335938-246.109375zm0 0"/><path d="m272.914062 511.429688c-2.664062.171874-5.339843.308593-8.023437.398437 2.683594-.089844 5.359375-.226563 8.023437-.398437zm0 0"/>
            <path d="m264.753906 511.835938c-1.414062.046874-2.832031.082031-4.25.105468 1.417969-.023437 2.835938-.058594 4.25-.105468zm0 0"/>
        </symbol>
        <symbol 
            xmlns="http://www.w3.org/2000/svg"
            viewBox="0 0 31 31"
            fill="#231f20"
            id="icon-behance"
            aria-labelledby="title, description">
            <title>Behance Icon</title>
            <desc>Behance Social Media Platform Icon</desc>
            <path d="M11.1 11.6H8.3v2.6h3.1c2.1 0 2.5-2.6-.3-2.6zM15.5 0A15.5 15.5 0 1 0 31 15.5 15.5 15.5 0 0 0 15.5 0zm3.1 9h6.1v1.7h-6.1zm-7.3 13H5.7V9h6c4.7.1 4.8 4.7 2.4 6 2.9 1.1 3 7-2.8 7zm15.2-4.3h-7a2.3 2.3 0 0 0 4 1.8h2.7c-.4 1.1-1.8 2.6-4.4 2.6s-4.8-1.6-4.8-5 2-5.1 4.7-5.1a4.3 4.3 0 0 1 4.7 3.8 11.6 11.6 0 0 1 0 1.8z"/>
            <path d="M11.2 16.8H8.3v2.6h2.9c2.6 0 2.4-2.6 0-2.6zM21.7 14a2 2 0 0 0-2.2 1.9h4.3a1.9 1.9 0 0 0-2.1-1.9z"/>
        </symbol>
        <symbol 
            xmlns="http://www.w3.org/2000/svg" 
            viewBox="0 0 31 31"
            id="icon-email1"
            aria-labelledby="title, description">
            <title>Email Icon</title>
            <desc>Contact Email Icon</desc>
            <path d="M15.5,0A15.5,15.5,0,1,0,31,15.5,15.5,15.5,0,0,0,15.5,0Zm9,9-9,7.3L6.5,9ZM6.5,20.7V10.9L12,15.5,6.5,20.7Zm1.3,1.2,5.6-5.4,2.1,1.7,2.1-1.7,5.6,5.4Zm16.8-1.2L19,15.5l5.6-4.5Z" fill="#231f20"/>
        </symbol>
    </defs>
</svg>

