<!-- 11/4 brand mobile email behance  -->
<svg 
    id="svg-definitions"
    style="display: none"
    xmlns="http://www.w3.org/2000/svg"
    xmlns:xlink="http://www.w3.org/1999/xlink">
    <defs>
        <symbol xmlns="http://www.w3.org/2000/svg" viewBox="0 0 160.4 65.5" id="brand-mobile" aria-labelledby="title, description">
            <title>Brand Mobile Icon</title>
            <desc>We Inspire Brand Logo Icon Mobile Version</desc>
            <path id="letter-w" d="M119.2,1.9c-18.3,0-31.6,13.4-31.6,31.8s13.5,31.8,32,31.8c11.6,0,21.3-5.1,26.6-13.9l1.5-2.6-10.1-6-1.5,2.7c-2.9,5.3-9.1,8.5-16.5,8.5-10,0-17.6-5.6-19.9-14.8h49.5v-.5s.1-4.6.1-5.1C149.4,18.4,138.8,1.9,119.2,1.9Zm18.1,26.3H99.8c2.1-9.3,9.5-15.1,19.4-15.1S135.3,18.9,137.3,28.2Z"/>
            <path id="letter-e" d="M82.7,2.6a4.8,4.8,0,0,0-4.5,3.2L62.8,50h0L55.6,37.8h0L69.6,14.6h0l-7.4-1.2a5.5,5.5,0,0,0-5.4,2.4L49,27.2h0l-1.3-2.3a5.5,5.5,0,0,0-6.3-2.6l-6.7,1.9h0l8,13.6h0L35.1,50.4h0L19.2,6.7a6.2,6.2,0,0,0-5.8-4.1H6L28.3,63.7v.3h8.8a4.4,4.4,0,0,0,3.7-2.1l8-13.3h0l9.3,15.4h8.1a4.4,4.4,0,0,0,4.1-3L90.7,2.6H82.7Z"/>
            <path id="shape-left" d="M0,56.4a8.9,8.9,0,0,0,8.9,8.9H21L0,7.6Z"/>
            <path id="shape-right" d="M152.9,0H133.2S156,2.4,155.6,36.4v2.5h4.8V7.4A7.4,7.4,0,0,0,152.9,0Z"/>
        </symbol>
        <!-- <symbol 
            xmlns="http://www.w3.org/2000/svg" 
            viewBox="0 0 153 65.26"
            id="brand-mobile"
            aria-labelledby="title, description">
            <title>Brand Icon</title>
            <desc>We Inspire Brand Icon Mobile Version</desc>
            <path id="shape-left" d="M0 64h18.25L0 13.9V64z" />
            <path id="letter-w" d="M58.77 51.6l-8.27-14L67.8 9H54.43L44.2 26.93 40.7 21H28.6l9.75 16.2-8.26 14.48L11.6 1H.46L23.4 64h11.12l10-16.53L54.48 64h11.07L87.3 1H76.44L58.77 51.6z"/>
            <path id="letter-e" d="M115.63 0c-18.77 0-32.4 13.72-32.4 32.63S97 65.26 116.1 65.26c11.9 0 21.85-5.2 27.3-14.26l1.35-2.23-9.6-5.68-1.28 2.34c-3.13 5.72-9.73 9.13-17.65 9.13-10.88 0-19.1-6.37-21.37-16.36h51.7l.12-5.35C146.64 16.93 135.77 0 115.63 0zM94.78 27.4c2.07-10.2 10.1-16.7 20.85-16.7 10 0 17.5 6.5 19.48 16.7z"/>
            <path id="shape-right" d="M151 38h2V1h-20c19.9 9.2 18 34.35 18 37z" />
        </symbol> -->
        <!-- <symbol id="brand-desktop" xmlns="http://www.w3.org/2000/svg" viewBox="0 0 481.5 82.7">
            <title>brand_ color</title>
            <path class="cls-1" d="M181.2,21.8l-8.6-.8-1.6-.2V66.4h11.5V21.9Z"/>
            <path class="cls-2" d="M171,1.3V17.9h1.3l8.6.8h1.6V1.3Z"/>
            <path class="cls-2" d="M242.9,25.1h-1.3l-8.8-.3h-1.6v1.6c0,.5.1,1,.1,1.5V66.4h11.6V27.8c0-.4,0-.9,0-1.3Z"/>
            <path class="cls-2" d="M274.2,29.4c-4.4-1.1-8.3-2.2-10.6-3.7l-.3-.2h-.4l-11-.2h-2.1l.8,2c3.2,8.3,12.7,10.8,20.4,12.8s13.4,3.7,13.4,8.5-6.4,7.9-11.9,7.9c-7.2,0-12.5-3-14.2-8.1L257,44.9l-10.1,5.9.9,2.3c3.4,9.2,12.6,14.6,24.5,14.6,13.8,0,23.5-7.9,23.5-19.2C295.8,34.9,283.3,31.7,274.2,29.4Z"/>
            <path class="cls-2" d="M364.9,23.4h-1.1l-9,.5h-2.1l.8,1.9a22,22,0,0,1,1.8,8.9,21.5,21.5,0,1,1-43,0,22.3,22.3,0,0,1,1.3-7.5l.7-2h-2.1l-10,.2h-1.4V82.7h11.5V58.9a30.2,30.2,0,0,0,21.8,8.8,32.4,32.4,0,0,0,32.7-32.9,34,34,0,0,0-1.6-10.4Z"/>
            <path class="cls-2" d="M372.4,23.1H371V66.4h11.5v-44H381Z"/>
            <path class="cls-2" d="M389.9,22.2h-1.3V66.4h11.5V31.6a23.2,23.2,0,0,1,1.4-8.2l.8-2.1-2.3.2Z"/>
            <path class="cls-2" d="M475.2,14.7l-.5-.7h-.9l-10,1.3-3.1.4L463,18a20.8,20.8,0,0,1,6.3,11.3H429.8a21,21,0,0,1,3.6-7.9l1.9-2.6-3.2.3-10.6,1h-.9l-.3.8a35.1,35.1,0,0,0-2.7,13.8c0,19.1,13.9,32.9,33.1,32.9,12,0,22-5.2,27.5-14.4l1.5-2.5-10.1-6-1.4,2.6c-3.1,5.6-9.6,9-17.4,9-10.5,0-18.6-6.1-21-15.7h51.5V37.8c0-.4,0-.8.1-1.2s.1-1,.1-1.6A35.7,35.7,0,0,0,475.2,14.7Z"/>
            <path class="cls-2" d="M199.9,23l-9.8-.8h-1.6V66.4h11.5V33.2a28.6,28.6,0,0,1,1.1-8.4l.5-1.7Z"/>
            <path class="cls-1" d="M217.8,0c-7.1,0-13.1,2.2-17.7,6.5V1.3H188.5V19.2h1.3l11.4.9h.9l.4-.8c2.9-5.3,7.9-8.1,14.7-8.1s11.8,3.4,13.4,9.5l.3,1H232l9,.3h1.7l-.3-1.7C240.5,7.9,231,0,217.8,0Z"/>
            <path class="cls-1" d="M271.9,0c-13,0-22.4,8.1-22.4,19.2,0,.6,0,1.2.1,1.8v1.3h1.3l8.8.2h1.9l-.5-1.8a5.8,5.8,0,0,1-.2-1.5c0-5.4,5.7-7.9,10.9-7.9s10.3,2.6,12,6.9l1.2,3.1,10-5.7L294,13.2C290.4,4.9,282.1,0,271.9,0Z"/>
            <path class="cls-1" d="M334.2,0a30.2,30.2,0,0,0-21.8,8.8V1.3H300.9V22.7h1.5l11.8-.2h.8l.4-.7a21.6,21.6,0,0,1,36.2-1.3l.5.7h.8l9.6-.5h2.1l-.9-1.9A32.2,32.2,0,0,0,334.2,0Z"/>
            <path class="cls-1" d="M371,20.3h1.5l8.6-.6h1.3V1.3H371Z"/>
            <path class="cls-1" d="M400.1,6.3v-5H388.5V19.4h1.5l12.3-.9h.7l.4-.5c3.9-5.3,9.8-6,13-6h2.9V.5h-2.9C409.8.5,404.2,2.5,400.1,6.3Z"/>
            <path class="cls-1" d="M472.2,9.2a29.6,29.6,0,0,0-22-9.2c-11.8,0-21.9,5.4-27.7,14.8L421,17.3l2.9-.3,12.8-1.3h.4l.3-.2a21.1,21.1,0,0,1,12.8-4.2,19.6,19.6,0,0,1,8.2,1.8l.4.2h.4l12.1-1.6,2.8-.4Z"/>
            <path class="cls-2" d="M119.2,3C100.9,3,87.6,16.4,87.6,34.9s13.5,31.8,32,31.8c11.6,0,21.3-5.1,26.6-13.9l1.5-2.6-10.1-6-1.5,2.7c-2.9,5.3-9.1,8.5-16.5,8.5-10,0-17.6-5.6-19.9-14.8h49.5v-.5s.1-4.6.1-5.1C149.4,19.5,138.8,3,119.2,3Zm18.1,26.3H99.8c2.1-9.3,9.5-15.1,19.4-15.1S135.3,20,137.3,29.4Z"/>
            <path class="cls-2" d="M82.7,3.7a4.8,4.8,0,0,0-4.5,3.2L62.8,51.1h0L55.6,39h0L69.6,15.7h0l-7.4-1.2a5.5,5.5,0,0,0-5.4,2.4L49,28.3h0L47.7,26a5.5,5.5,0,0,0-6.3-2.6l-6.7,1.9h0l8,13.6h0L35.1,51.5h0L19.2,7.8a6.2,6.2,0,0,0-5.8-4.1H6L28.3,64.9v.3h8.8a4.4,4.4,0,0,0,3.7-2.1l8-13.3h0l9.3,15.4h8.1a4.4,4.4,0,0,0,4.1-3L90.7,3.7H82.7Z"/>
            <path class="cls-1" d="M0,57.5a8.9,8.9,0,0,0,8.9,8.9H21L0,8.7Z"/>
            <path class="cls-1" d="M152.9,1.1H133.2S156,3.5,155.6,37.5V40h4.8V8.6A7.4,7.4,0,0,0,152.9,1.1Z"/>
        </symbol> -->
        <symbol xmlns="http://www.w3.org/2000/svg" viewBox="0 0 481.5 82.7" id="brand-desktop" aria-labelledby="title, description">
            <title>Brand Desktop Icon</title>
            <desc>We Inspire Brand Logo Icon Desktop Version</desc>
            <path id="shape-left" d="M0,57.5a8.9,8.9,0,0,0,8.9,8.9H21L0,8.7Z"/>
            <path id="letter-w" d="M119.2,3C100.9,3,87.6,16.4,87.6,34.9s13.5,31.8,32,31.8c11.6,0,21.3-5.1,26.6-13.9l1.5-2.6-10.1-6-1.5,2.7c-2.9,5.3-9.1,8.5-16.5,8.5-10,0-17.6-5.6-19.9-14.8h49.5v-.5s.1-4.6.1-5.1C149.4,19.5,138.8,3,119.2,3Zm18.1,26.3H99.8c2.1-9.3,9.5-15.1,19.4-15.1S135.3,20,137.3,29.4Z"/>
            <path id="letter-e" d="M82.7,3.7a4.8,4.8,0,0,0-4.5,3.2L62.8,51.1h0L55.6,39h0L69.6,15.7h0l-7.4-1.2a5.5,5.5,0,0,0-5.4,2.4L49,28.3h0L47.7,26a5.5,5.5,0,0,0-6.3-2.6l-6.7,1.9h0l8,13.6h0L35.1,51.5h0L19.2,7.8a6.2,6.2,0,0,0-5.8-4.1H6L28.3,64.9v.3h8.8a4.4,4.4,0,0,0,3.7-2.1l8-13.3h0l9.3,15.4h8.1a4.4,4.4,0,0,0,4.1-3L90.7,3.7H82.7Z"/>
            <path id="shape-right" d="M152.9,1.1H133.2S156,3.5,155.6,37.5V40h4.8V8.6A7.4,7.4,0,0,0,152.9,1.1Z"/>
            <path id="test-path" d="M181.2,21.8l-8.6-.8-1.6-.2V66.4h11.5V21.9Z"/>
            <path id="test-path" d="M171,1.3V17.9h1.3l8.6.8h1.6V1.3Z"/>
            <path id="test-path" d="M242.9,25.1h-1.3l-8.8-.3h-1.6v1.6c0,.5.1,1,.1,1.5V66.4h11.6V27.8c0-.4,0-.9,0-1.3Z"/>
            <path id="test-path" d="M274.2,29.4c-4.4-1.1-8.3-2.2-10.6-3.7l-.3-.2h-.4l-11-.2h-2.1l.8,2c3.2,8.3,12.7,10.8,20.4,12.8s13.4,3.7,13.4,8.5-6.4,7.9-11.9,7.9c-7.2,0-12.5-3-14.2-8.1L257,44.9l-10.1,5.9.9,2.3c3.4,9.2,12.6,14.6,24.5,14.6,13.8,0,23.5-7.9,23.5-19.2C295.8,34.9,283.3,31.7,274.2,29.4Z"/>
            <path id="test-path" d="M364.9,23.4h-1.1l-9,.5h-2.1l.8,1.9a22,22,0,0,1,1.8,8.9,21.5,21.5,0,1,1-43,0,22.3,22.3,0,0,1,1.3-7.5l.7-2h-2.1l-10,.2h-1.4V82.7h11.5V58.9a30.2,30.2,0,0,0,21.8,8.8,32.4,32.4,0,0,0,32.7-32.9,34,34,0,0,0-1.6-10.4Z"/>
            <path id="test-path" d="M372.4,23.1H371V66.4h11.5v-44H381Z"/>
            <path id="test-path" d="M389.9,22.2h-1.3V66.4h11.5V31.6a23.2,23.2,0,0,1,1.4-8.2l.8-2.1-2.3.2Z"/>
            <path id="test-path" d="M475.2,14.7l-.5-.7h-.9l-10,1.3-3.1.4L463,18a20.8,20.8,0,0,1,6.3,11.3H429.8a21,21,0,0,1,3.6-7.9l1.9-2.6-3.2.3-10.6,1h-.9l-.3.8a35.1,35.1,0,0,0-2.7,13.8c0,19.1,13.9,32.9,33.1,32.9,12,0,22-5.2,27.5-14.4l1.5-2.5-10.1-6-1.4,2.6c-3.1,5.6-9.6,9-17.4,9-10.5,0-18.6-6.1-21-15.7h51.5V37.8c0-.4,0-.8.1-1.2s.1-1,.1-1.6A35.7,35.7,0,0,0,475.2,14.7Z"/>
            <path id="test-path" d="M199.9,23l-9.8-.8h-1.6V66.4h11.5V33.2a28.6,28.6,0,0,1,1.1-8.4l.5-1.7Z"/>
            <path id="test-path" d="M217.8,0c-7.1,0-13.1,2.2-17.7,6.5V1.3H188.5V19.2h1.3l11.4.9h.9l.4-.8c2.9-5.3,7.9-8.1,14.7-8.1s11.8,3.4,13.4,9.5l.3,1H232l9,.3h1.7l-.3-1.7C240.5,7.9,231,0,217.8,0Z"/>
            <path id="test-path" d="M271.9,0c-13,0-22.4,8.1-22.4,19.2,0,.6,0,1.2.1,1.8v1.3h1.3l8.8.2h1.9l-.5-1.8a5.8,5.8,0,0,1-.2-1.5c0-5.4,5.7-7.9,10.9-7.9s10.3,2.6,12,6.9l1.2,3.1,10-5.7L294,13.2C290.4,4.9,282.1,0,271.9,0Z"/>
            <path id="test-path" d="M334.2,0a30.2,30.2,0,0,0-21.8,8.8V1.3H300.9V22.7h1.5l11.8-.2h.8l.4-.7a21.6,21.6,0,0,1,36.2-1.3l.5.7h.8l9.6-.5h2.1l-.9-1.9A32.2,32.2,0,0,0,334.2,0Z"/>
            <path id="test-path" d="M371,20.3h1.5l8.6-.6h1.3V1.3H371Z"/>
            <path id="test-path" d="M400.1,6.3v-5H388.5V19.4h1.5l12.3-.9h.7l.4-.5c3.9-5.3,9.8-6,13-6h2.9V.5h-2.9C409.8.5,404.2,2.5,400.1,6.3Z"/>
            <path id="test-path" d="M472.2,9.2a29.6,29.6,0,0,0-22-9.2c-11.8,0-21.9,5.4-27.7,14.8L421,17.3l2.9-.3,12.8-1.3h.4l.3-.2a21.1,21.1,0,0,1,12.8-4.2,19.6,19.6,0,0,1,8.2,1.8l.4.2h.4l12.1-1.6,2.8-.4Z"/>
        </symbol>
        <symbol
            viewBox="0 0 24 24"
            id="icon-facebook"
            aria-labelledby="title, description">
            <title>Facebook Example</title>
            <desc>This inline svg (Facebook Icon) Example is good for understanding</desc>
            <path
            d="M12 0c-6.627 0-12 5.373-12 12s5.373 12 12 12 12-5.373 12-12-5.373-12-12-12zm3 8h-1.35c-.538 0-.65.221-.65.778v1.222h2l-.209 2h-1.791v7h-3v-7h-2v-2h2v-2.308c0-1.769.931-2.692 3.029-2.692h1.971v3z"
            />
        </symbol>
        <symbol 
            xmlns="http://www.w3.org/2000/svg"
            viewBox="0 0 100 100"
            id="icon-email">
            <title>email fondo</title>
            <path class="cls-3" d="M50,100a50,50,0,1,1,50-50A50.06,50.06,0,0,1,50,100ZM50,2.12A47.88,47.88,0,1,0,97.88,50,47.94,47.94,0,0,0,50,2.12Z"/>
            <path class="cls-3" d="M21.64,31H79L49.93,51.17S21.64,31,21.64,31Z"/>
            <path class="cls-3" d="M75.32,70.08h-51c-.06,0,20-19,20-18.92,2,1.3,3.6,2.71,5.67,4.06C51.82,54,53.06,53,55.3,51.44,61.55,56.87,67.26,63.07,75.32,70.08Z"/>
            <path class="cls-3" d="M21.95,35S22,56,22,68c7.2-6.23,13-12.51,20.1-18.62Z"/>
            <path class="cls-4" d="M56,49.82"/>
            <path class="cls-3" d="M79.08,35.25s0,21.08,0,33C71.85,62,66,55.76,59,49.64Z"/>
        </symbol>
        <symbol 
            viewBox="0 0 512 512" 
            xmlns="http://www.w3.org/2000/svg"
            id="icon-face"
            aria-labelledby="title, description">
            <title>Facebook Icon</title>
            <desc>Facebook Social Network Icon</desc>
            <path d="m297.277344 508.667969c-2.132813.347656-4.273438.667969-6.421875.960937 2.148437-.292968 4.289062-.613281 6.421875-.960937zm0 0"/>
            <path d="m302.398438 507.792969c-1.019532.1875-2.039063.359375-3.058594.535156 1.019531-.175781 2.039062-.347656 3.058594-.535156zm0 0"/>
            <path d="m285.136719 510.339844c-2.496094.28125-5.007813.53125-7.527344.742187 2.519531-.210937 5.03125-.460937 7.527344-.742187zm0 0"/>
            <path d="m290.054688 509.738281c-1.199219.160157-2.40625.308594-3.609376.449219 1.203126-.140625 2.410157-.289062 3.609376-.449219zm0 0"/>
            <path d="m309.367188 506.410156c-.898438.191406-1.800782.382813-2.703126.566406.902344-.183593 1.804688-.375 2.703126-.566406zm0 0"/>
            <path d="m326.664062 502.113281c-.726562.207031-1.453124.402344-2.179687.605469.726563-.203125 1.453125-.398438 2.179687-.605469zm0 0"/>
            <path d="m321.433594 503.542969c-.789063.207031-1.582032.417969-2.375.617187.792968-.199218 1.585937-.40625 2.375-.617187zm0 0"/>
            <path d="m314.589844 505.253906c-.835938.195313-1.679688.378906-2.523438.566406.84375-.1875 1.6875-.371093 2.523438-.566406zm0 0"/>
            <path d="m277.527344 511.089844c-1.347656.113281-2.695313.214844-4.046875.304687 1.351562-.089843 2.699219-.191406 4.046875-.304687zm0 0"/>
            <path d="m512 256c0-141.363281-114.636719-256-256-256s-256 114.636719-256 256 114.636719 256 256 256c1.503906 0 3-.03125 4.5-.058594v-199.285156h-55v-64.097656h55v-47.167969c0-54.703125 33.394531-84.476563 82.191406-84.476563 23.367188 0 43.453125 1.742188 49.308594 2.519532v57.171875h-33.648438c-26.546874 0-31.6875 12.617187-31.6875 31.128906v40.824219h63.476563l-8.273437 64.097656h-55.203126v189.453125c107.003907-30.675781 185.335938-129.257813 185.335938-246.109375zm0 0"/><path d="m272.914062 511.429688c-2.664062.171874-5.339843.308593-8.023437.398437 2.683594-.089844 5.359375-.226563 8.023437-.398437zm0 0"/>
            <path d="m264.753906 511.835938c-1.414062.046874-2.832031.082031-4.25.105468 1.417969-.023437 2.835938-.058594 4.25-.105468zm0 0"/>
        </symbol>
        <symbol 
            xmlns="http://www.w3.org/2000/svg"
            viewBox="0 0 31 31"
            fill="#231f20"
            id="icon-behance"
            aria-labelledby="title, description">
            <title>Behance Icon</title>
            <desc>Behance Social Media Platform Icon</desc>
            <path d="M11.1 11.6H8.3v2.6h3.1c2.1 0 2.5-2.6-.3-2.6zM15.5 0A15.5 15.5 0 1 0 31 15.5 15.5 15.5 0 0 0 15.5 0zm3.1 9h6.1v1.7h-6.1zm-7.3 13H5.7V9h6c4.7.1 4.8 4.7 2.4 6 2.9 1.1 3 7-2.8 7zm15.2-4.3h-7a2.3 2.3 0 0 0 4 1.8h2.7c-.4 1.1-1.8 2.6-4.4 2.6s-4.8-1.6-4.8-5 2-5.1 4.7-5.1a4.3 4.3 0 0 1 4.7 3.8 11.6 11.6 0 0 1 0 1.8z"/>
            <path d="M11.2 16.8H8.3v2.6h2.9c2.6 0 2.4-2.6 0-2.6zM21.7 14a2 2 0 0 0-2.2 1.9h4.3a1.9 1.9 0 0 0-2.1-1.9z"/>
        </symbol>
        <symbol 
            xmlns="http://www.w3.org/2000/svg" 
            viewBox="0 0 31 31"
            id="icon-email1"
            aria-labelledby="title, description">
            <title>Email Icon</title>
            <desc>Contact Email Icon</desc>
            <path d="M15.5,0A15.5,15.5,0,1,0,31,15.5,15.5,15.5,0,0,0,15.5,0Zm9,9-9,7.3L6.5,9ZM6.5,20.7V10.9L12,15.5,6.5,20.7Zm1.3,1.2,5.6-5.4,2.1,1.7,2.1-1.7,5.6,5.4Zm16.8-1.2L19,15.5l5.6-4.5Z" fill="#231f20"/>
        </symbol>
    </defs>
</svg>

