<svg xmlns="http://www.w3.org/2000/svg" viewBox="0 0 456.46 81.12"><style><![CDATA[.E{fill:#005b7f}.F{fill:#00b7aa}]]></style><path d="M162.12 64.18h9V20.7q-4.55-.4-9-.85z" class="F"/><path d="M171.1 1.32h-9v14.5q4.44.44 9 .84zm5.26 62.86h9v-33.1a31.21 31.21 0 0 1 1.26-9.14q-5.2-.37-10.25-.8z" class="E"/><path d="M205.28 0c-8.42 0-15.28 3.12-19.93 9.06V1.32h-9v15.8q5.85.48 11.85.9c3.2-6 8.9-9.27 16.58-9.27 8.1 0 13.55 4 15.4 11q4.66.18 9.4.33C227.58 7.72 218.48 0 205.28 0z" class="F"/><path d="M220.9 25.44v38.74h9.1V24.1q-4.6-.14-9.14-.3l.04 1.64zM256 36.67c8.1 2.1 15.1 3.9 15.1 10.32 0 7.2-7.5 9.75-13.94 9.75-8.14 0-14.2-3.56-16.18-9.5l-.58-1.75-7.88 4.52.44 1.2c3.35 8.93 12.38 14.26 24.15 14.26 13.5 0 22.93-7.6 22.93-18.5 0-13-11.85-16-21.38-18.44h0c-5-1.27-8.88-2.37-11.46-4q-5.77-.1-11.44-.24c3.03 7.95 12.4 10.38 20.23 12.4zm2.48-7.15h0z" class="E"/><path d="M256.65 8.75c6.66 0 11.87 3.05 13.93 8.16l.64 1.6 7.7-4.4-.55-1.24C274.8 4.8 266.68 0 256.65 0 244 0 234.8 7.78 234.8 18.5c0 .6 0 1.18.1 1.75q4.55.12 9.15.2a7.57 7.57 0 0 1-.25-2c0-6.66 6.67-9.7 12.87-9.7zM317.6 0a29.93 29.93 0 0 0-24.24 11.6V1.32h-9V20.6q6.12-.07 12.3-.2a24 24 0 0 1 40.29-1.4q5-.25 10-.53A32.13 32.13 0 0 0 317.59 0z" class="F"/><path d="M341.1 32.75a23.88 23.88 0 1 1-47.76 0 24.7 24.7 0 0 1 1.42-8.3q-5.23.1-10.4.16v56.5h9V53.9a29.93 29.93 0 0 0 24.24 11.6 32.28 32.28 0 0 0 32.49-32.74 33.87 33.87 0 0 0-1.6-10.34q-4.7.27-9.4.5a24.53 24.53 0 0 1 2.02 9.84z" class="E"/><path d="M354.4 1.32v16.73q4.5-.28 9-.57V1.32z" class="F"/><path d="M354.4 64.18h9v-42.7q-4.47.3-9 .58z" class="E"/><path d="M396.13 9.22h1.5V.48h-1.5c-8 0-14.32 2.9-18.5 8.46V1.32h-9v15.8q6.4-.46 12.75-1c3.6-4.9 9.3-6.9 14.74-6.9z" class="F"/><path d="M368.65 64.18h9V29.4a25.46 25.46 0 0 1 1.51-9.07q-5.2.4-10.5.8zm78.4-35.68H402.3a23.71 23.71 0 0 1 4.39-10.64q-5.5.55-11.07 1.06a35.15 35.15 0 0 0-2.73 13.83c0 19 13.87 32.75 33 32.75 11.94 0 21.92-5.2 27.38-14.25l.78-1.3-7.9-4.67-.74 1.36C441.9 53 434.67 56.76 426 56.76c-12.32 0-21.7-7.74-23.66-19.4h54v-1.5c0-.44 0-.88.06-1.34s.06-1 .06-1.53a35.75 35.75 0 0 0-6.3-20.3q-5.17.72-10.45 1.4a23.66 23.66 0 0 1 7.34 14.4z" class="E"/><path d="M425.4 0c-12.07 0-22 5.66-27.6 14.7q6.7-.63 13.3-1.32a23.47 23.47 0 0 1 14.28-4.65 21.87 21.87 0 0 1 9.2 2q6.38-.8 12.62-1.64A29.31 29.31 0 0 0 425.39 0z" class="F"/><path d="M115.63.17c-18.77 0-32.4 13.72-32.4 32.63S97 65.43 116.1 65.43c11.9 0 21.85-5.2 27.3-14.26l1.35-2.23-9.6-5.68-1.28 2.34c-3.13 5.72-9.73 9.13-17.65 9.13-10.88 0-19.1-6.37-21.37-16.36h51.7l.12-5.35C146.64 17.1 135.77.17 115.63.17zm-20.85 27.4c2.07-10.2 10.1-16.7 20.85-16.7 10 0 17.5 6.5 19.48 16.7z" class="E"/><path d="M0 64.17h18.25L0 14.08v50.1z" fill="#c5c7c9"/><path d="M58.77 51.76l-8.27-14 17.3-28.6H54.43L44.2 27.1l-3.5-5.92H28.6l9.75 16.2-8.26 14.48L11.6 1.17H.46l22.95 63h11.12l10-16.53 9.95 16.53h11.07l21.76-63H76.44l-17.67 50.6z" class="E"/><path d="M151 38.17h2v-37h-20c19.9 9.2 18 34.35 18 37z" fill="#c5c7c9"/></svg>