<svg id="Layer_1" data-name="Layer 1" xmlns="http://www.w3.org/2000/svg" viewBox="0 0 456.5 81.1"><defs><style>.cls-1{fill:none;stroke:#2a90ce;stroke-miterlimit:10;stroke-width:4px;}.cls-2{fill:#00b7aa;}.cls-3{fill:#005b7f;}.cls-4{fill:#c5c7c9;}</style></defs><title>weinspire-color-lightgrey-curve</title><path class="cls-1" d="M-538,148.2" transform="translate(-0.1 -1.3)"/><path class="cls-2" d="M162.3,65.5h9V22l-9-.8Z" transform="translate(-0.1 -1.3)"/><path class="cls-3" d="M171.2,2.6h-9V17.1l9,.8Z" transform="translate(-0.1 -1.3)"/><path class="cls-3" d="M176.5,65.5h9V32.3a31.2,31.2,0,0,1,1.3-9.1l-10.2-.8Z" transform="translate(-0.1 -1.3)"/><path class="cls-2" d="M205.4,1.3c-8.4,0-15.2,3.1-19.9,9.1V2.6h-9V18.4l11.9.9c3.2-6,8.9-9.3,16.6-9.3s13.5,4,15.4,11l9.4.3C227.7,9,218.6,1.3,205.4,1.3Z" transform="translate(-0.1 -1.3)"/><path class="cls-3" d="M221,26.7V65.5h9.1V26.7c0-.4,0-.9,0-1.3l-9.1-.3C221,25.6,221,26.2,221,26.7Z" transform="translate(-0.1 -1.3)"/><path class="cls-3" d="M256.1,37.9c8.1,2.1,15.1,3.9,15.1,10.3S263.7,58,257.3,58c-8.1,0-14.2-3.6-16.2-9.5l-.6-1.7-7.8,4.6.4,1.2c3.3,8.9,12.4,14.3,24.2,14.3,13.5,0,22.9-7.6,22.9-18.5,0-13-11.9-16-21.4-18.4h0c-5-1.3-8.9-2.4-11.5-4l-11.4-.2C238.9,33.5,248.3,35.9,256.1,37.9Zm2.5-7.2h0Z" transform="translate(-0.1 -1.3)"/><path class="cls-2" d="M256.8,10c6.7,0,11.9,3.1,13.9,8.2l.6,1.6,7.7-4.4-.5-1.2c-3.6-8.1-11.7-12.9-21.7-12.9-12.7,0-21.9,7.8-21.9,18.5,0,.6,0,1.2.1,1.7l9.1.2a7.6,7.6,0,0,1-.2-2C243.9,13.1,250.6,10,256.8,10Z" transform="translate(-0.1 -1.3)"/><path class="cls-2" d="M317.7,1.3a29.9,29.9,0,0,0-24.2,11.6V2.6h-9V21.9l12.3-.2a24,24,0,0,1,40.3-1.4l10-.5A32.1,32.1,0,0,0,317.7,1.3Z" transform="translate(-0.1 -1.3)"/><path class="cls-3" d="M341.2,34a23.9,23.9,0,1,1-47.8,0,24.7,24.7,0,0,1,1.4-8.3l-10.4.2V82.4h9V55.2a29.9,29.9,0,0,0,24.2,11.6A32.3,32.3,0,0,0,350.2,34a33.9,33.9,0,0,0-1.6-10.3l-9.4.5A24.5,24.5,0,0,1,341.2,34Z" transform="translate(-0.1 -1.3)"/><path class="cls-2" d="M354.5,2.6V19.3l9-.6V2.6Z" transform="translate(-0.1 -1.3)"/><path class="cls-3" d="M354.5,65.5h9V22.8l-9,.6Z" transform="translate(-0.1 -1.3)"/><path class="cls-2" d="M396.3,10.5h1.5V1.8h-1.5c-8,0-14.3,2.9-18.5,8.5V2.6h-9V18.4l12.7-1C385.1,12.5,390.8,10.5,396.3,10.5Z" transform="translate(-0.1 -1.3)"/><path class="cls-3" d="M368.8,65.5h9V30.7a25.5,25.5,0,0,1,1.5-9.1l-10.5.8Z" transform="translate(-0.1 -1.3)"/><path class="cls-3" d="M447.2,29.8H402.4a23.7,23.7,0,0,1,4.4-10.6l-11.1,1.1A35.1,35.1,0,0,0,393,34c0,19,13.9,32.7,33,32.7,11.9,0,21.9-5.2,27.4-14.3l.8-1.3-7.9-4.7-.7,1.4C442.1,54.2,434.8,58,426.1,58c-12.3,0-21.7-7.7-23.7-19.4h54V37.1c0-.4,0-.9.1-1.3s.1-1,.1-1.5A35.8,35.8,0,0,0,450.3,14l-10.4,1.4A23.7,23.7,0,0,1,447.2,29.8Z" transform="translate(-0.1 -1.3)"/><path class="cls-2" d="M425.5,1.3c-12.1,0-22,5.7-27.6,14.7l13.3-1.3A23.5,23.5,0,0,1,425.5,10a21.9,21.9,0,0,1,9.2,2l12.6-1.6A29.3,29.3,0,0,0,425.5,1.3Z" transform="translate(-0.1 -1.3)"/><path class="cls-3" d="M115.8,1.4C97,1.4,83.4,15.2,83.4,34.1s13.8,32.6,32.9,32.6c11.9,0,21.8-5.2,27.3-14.3l1.3-2.2-9.6-5.7L134,46.9c-3.1,5.7-9.7,9.1-17.6,9.1C105.5,56,97.2,49.6,95,39.7h51.7s.1-4.8.1-5.3C146.8,18.4,135.9,1.4,115.8,1.4ZM94.9,28.8C97,18.6,105,12.1,115.8,12.1s17.5,6.5,19.5,16.7Z" transform="translate(-0.1 -1.3)"/><path class="cls-4" d="M7.9,65.4H18.4L.1,15.4V57.7A7.7,7.7,0,0,0,7.9,65.4Z" transform="translate(-0.1 -1.3)"/><path class="cls-3" d="M58.9,53,50.6,39,67.9,10.4H59a7.6,7.6,0,0,0-6.6,3.8l-8,14.1-.9-1.5a9,9,0,0,0-7.7-4.4h-7l9.7,16.2L30.2,53.1,13.2,6.4A6,6,0,0,0,7.5,2.4H.6l23,63h8.1a5.3,5.3,0,0,0,4.5-2.6l8.4-14,9.9,16.5h7.3a5.3,5.3,0,0,0,5-3.6L87.4,2.4H79.7a4.5,4.5,0,0,0-4.2,3Z" transform="translate(-0.1 -1.3)"/><path class="cls-4" d="M151.1,39.4h2V8.7a6.2,6.2,0,0,0-6.2-6.2H133.2C153,11.7,151.2,36.8,151.1,39.4Z" transform="translate(-0.1 -1.3)"/></svg>