<svg xmlns="http://www.w3.org/2000/svg" viewBox="0 0 31 31" fill="#231f20"><path d="M15.5 0A15.5 15.5 0 1 0 31 15.5 15.5 15.5 0 0 0 15.5 0zm-3.9 22.7L7 23.9l1.2-4.4C5.6 15.8 7 6.7 15.7 6.5a8.5 8.5 0 0 1 8.6 8.6 8.6 8.6 0 0 1-12.7 7.6zM15.7 8a7.1 7.1 0 0 0-5.9 11.2l-.7 2.6 2.7-.7A7.1 7.1 0 1 0 15.7 8zm4.2 10.6a2.9 2.9 0 0 1-1.5.8 6.6 6.6 0 0 1-3.7-1.6 9.8 9.8 0 0 1-2.7-3.4 2.6 2.6 0 0 1 .3-3.1 1 1 0 0 1 1.8.4l.3.7A1.3 1.3 0 0 1 14 14a.6.6 0 0 0-.1.6 5.8 5.8 0 0 0 2.5 2.4.7.7 0 0 0 1.1-.2c.7-.8.7-.8 1.6-.3l.5.3a1 1 0 0 1 .3 1.8z"/></svg>