<svg xmlns="http://www.w3.org/2000/svg" viewBox="0 0 178.7 130.3" id="design"><g fill="#00416b"><circle cx="43.1" cy="9.5" r="1.5" transform="rotate(-45 43.026 9.478)"/><circle cx="37.4" cy="15.2" r="1.5" transform="rotate(-45 37.4 15.209)"/><circle cx="31.7" cy="20.8" r="1.5" transform="rotate(-45 31.653 20.89)"/><circle cx="26" cy="26.5" r="1.5" transform="rotate(-45 26.076 26.499)"/><circle cx="20.3" cy="32.2" r="1.5" transform="rotate(-45 20.33 32.18)"/><circle cx="14.6" cy="37.9" r="1.5" transform="rotate(-45 14.703 37.91)"/><circle cx="9" cy="43.6" r="1.5" transform="rotate(-45 8.956 43.59)"/><circle cx="3.3" cy="49.3" r="1.5" transform="rotate(-45 3.209 49.27)"/><circle cx="75.1" cy="41.5" r="1.5" transform="rotate(-45 75.053 41.412)"/><circle cx="69.4" cy="47.2" r="1.5" transform="rotate(-45 69.427 47.142)"/><circle cx="69.8" cy="36.1" r="1.5" transform="rotate(-45 69.756 36.106)"/><circle cx="64.1" cy="41.8" r="1.5" transform="rotate(-45 64.13 41.837)"/><circle cx="59.6" cy="46.7" r="1.5" transform="rotate(-45 59.557 46.73)"/><circle cx="64.4" cy="30.8" r="1.5" transform="rotate(-45 64.458 30.8)"/><circle cx="58.7" cy="36.5" r="1.5" transform="rotate(-45 58.711 36.481)"/><circle cx="53" cy="42.2" r="1.5" transform="rotate(-45 53.085 42.212)"/><circle cx="24.6" cy="70.6" r="1.5" transform="rotate(-45 24.64 70.593)"/><circle cx="59.1" cy="25.5" r="1.5" transform="rotate(-45 59.04 25.445)"/><circle cx="53.4" cy="31.2" r="1.5" transform="rotate(-45 53.413 31.175)"/><circle cx="47.7" cy="36.8" r="1.5" transform="rotate(-45 47.666 36.856)"/><circle cx="42" cy="42.5" r="1.5" transform="rotate(-45 42.04 42.586)"/><circle cx="25" cy="59.6" r="1.5" transform="rotate(-45 24.97 59.557)"/><circle cx="19.3" cy="65.3" r="1.5" transform="rotate(-45 19.222 65.238)"/><circle cx="53.8" cy="20.1" r="1.5" transform="rotate(-45 53.742 20.14)"/><circle cx="48.1" cy="25.8" r="1.5" transform="rotate(-45 47.995 25.82)"/><circle cx="42.4" cy="31.5" r="1.5" transform="rotate(-45 42.369 31.55)"/><circle cx="36.7" cy="37.2" r="1.5" transform="rotate(-45 36.622 37.23)"/><circle cx="31" cy="42.9" r="1.5" transform="rotate(-45 31.045 42.84)"/><circle cx="25.3" cy="48.6" r="1.5" transform="rotate(-45 25.298 48.521)"/><circle cx="19.6" cy="54.3" r="1.5" transform="rotate(-45 19.672 54.252)"/><circle cx="13.9" cy="60" r="1.5" transform="rotate(-45 13.925 59.932)"/><circle cx="48.4" cy="14.8" r="1.5" transform="rotate(-45 48.444 14.834)"/><circle cx="42.7" cy="20.5" r="1.5" transform="rotate(-45 42.697 20.514)"/><circle cx="37" cy="26.2" r="1.5" transform="rotate(-45 37.07 26.245)"/><circle cx="31.4" cy="31.9" r="1.5" transform="rotate(-45 31.324 31.925)"/><circle cx="25.7" cy="37.6" r="1.5" transform="rotate(-45 25.627 37.485)"/><circle cx="20" cy="43.2" r="1.5" transform="rotate(-45 20 43.216)"/><circle cx="14.3" cy="48.9" r="1.5" transform="rotate(-45 14.253 48.896)"/><circle cx="8.6" cy="54.6" r="1.5" transform="rotate(-45 8.627 54.627)"/></g><path d="M117.5 34.6v1.1h2.7v12.2h-12.3v-2.6h-1V49h14.4V34.6h-3.8zM99.1 17.3h2.6v12.2H89.5v-2.6h-1.1v3.7h14.4V16.2h-3.7v1.1z" fill="#009889"/><path d="M103.1 30.9v14.4h14.4V30.9zm13.3 13.3h-12.2V32h12.2zM84.7 12.5v14.4h14.4V12.5zM98 25.8H85.8V13.5H98z" fill="#00416b"/><path d="M8.9 83.8a8.9 8.9 0 01-6.293-15.193A8.9 8.9 0 118.9 83.8zm0-16.8a7.9 7.9 0 105.586 2.314A7.9 7.9 0 008.9 67zM70 130.3a5.5 5.5 0 113.889-1.611A5.5 5.5 0 0170 130.3zm0-9.9a4.4 4.4 0 000 8.8 4.4 4.4 0 100-8.8zM42.7 0L1 41.7l26.6 26.6v-1.5L2.5 41.7 42.7 1.5l40.2 40.2-8.4 8.3 1.4.1 8.4-8.4L42.7 0z" fill="#009889"/><path d="M33.5 113.8a4.4 4.4 0 01-4.7-4.1v-2.1h-1.2v2a5.5 5.5 0 005.5 5.5h.4l37.2-2.8-5.9-.7zM173 98.9l-3.2-34.1a5.5 5.5 0 00-4.9-4.9L33.7 45.6a5.5 5.5 0 00-6.1 5.4v55.3h1.1V51a4.4 4.4 0 014.4-4.4h.5L93 53l71.7 7.8a4.4 4.4 0 013.9 4l3.2 34.1a4.4 4.4 0 01-4 4.8h-.1L70.6 111l5.9.7 91.3-6.9a5.5 5.5 0 005.2-5.9z" fill="#00416b"/><path d="M177.6 51.5a5.4 5.4 0 00-4.6-2.1l-73 3.4 7 .7 66.2-3.1a4.4 4.4 0 014.2 5.7l-6.5 21.2.3 2.8 7.3-23.7a5.4 5.4 0 00-.9-4.9zm-18.9 65.4a4.4 4.4 0 01-4.7 3.1L19.7 105.5a4.4 4.4 0 01-3.5-6.2l11.4-25.2v-2.6L15.2 98.8a5.5 5.5 0 002.7 7.3l1.7.5 76.8 8.3 57.6 6.2h.6a5.5 5.5 0 005.3-3.9l3.7-12.1h-1.2zm-42.6-46l-15.4 8.9v-8.9l-15.3 8.8v-8.8L67.1 81.4 85.4 92v-8.9l15.3 8.8v-8.8l15.4 8.9zM84.3 90.1l-15-8.7 15-8.7v7.6l-1.9 1.1 1.9 1.1zm15.3 0l-14.2-8.2v-1l14.2-8.2v7.6l-1.8 1 1.8 1zm15.4 0l-14.3-8.2v-.8l14.3-8.3zm-32.2 35.7a4.8 4.8 0 114.8-4.8 4.8 4.8 0 01-4.8 4.8zm0-8.6a3.8 3.8 0 103.8 3.8 3.8 3.8 0 00-3.8-3.8z" fill="#009889"/></svg>