<svg xmlns="http://www.w3.org/2000/svg" viewBox="0 0 185.2 272.1" id="marketing"><g fill="none" stroke="#000" stroke-width="2"><path d="M175.9 222.6l3.7 25.1a13.1 13.1 0 01-12.1 14.9L42 271a13 13 0 01-13.8-11.6q-4.8-42.9-9.5-85.6m142.8-50.3l3.8 26m-154-42.6L1.2 15.7A13.1 13.1 0 0114.9 1.2l119 5.9a13.1 13.1 0 0112.3 11.2l1.6 11.1 8.1 55.8"/><path d="M168 223.1l4.2 29.9-135.9 9.4-8-75.8m125.8-63.1l3.6 26M19.1 101.1L9.4 10l129.7 6.7 9.6 68.2"/><path d="M83.3 241.5l-3.8 4.3 4 3.6m47.4-3.4l3.8-4.4-4-3.5"/><path d="M76 159.4l7.1 68.2 102-5.6"/><path d="M89.8 177c35.1 0 46.3-30.4 82.4-27.5m-78.5 42.2l3 28.5 15.5-.8-3-28.2z"/><path d="M122.2 172.7l5.4 47.5 15.5-.8-5.5-46.8z"/><path d="M154.9 163l14.7-.2q3.5 27 6.8 54.2l-15.5.8z"/><path d="M25 178.8c-9.1-5.5-17-17.3-20.3-32.2-4.9-22.4 2.8-43.2 17.2-46.4a18.2 18.2 0 017.7.1"/><path d="M32.1 137.5l-2.5-42.9S45 96.5 58 124.2z"/><path d="M58.3 171.2l-24.6-30.4L59 128.7s7.9 21.7-.7 42.5z"/><path d="M31.3 144.2L24.1 184c21 11.9 31.9-8.7 31.9-8.7z"/><path d="M129.8 84.2l44.3 1.7 4.3 37.5H173l2.8 7.3-12.3-7.3h-29.9l-3.8-39.2z"/><path d="M35.2 20.2l5.9 48 77.5-1.7"/><path d="M95.1 46.4l4.8-6.2M84.3 53.1l5.5-2.2m-35.9 7l24.8-2.4"/><path d="M53.1 55.8c1.3 2 1 4.5-.6 5.5s-4 .2-5.2-1.8-1-4.4.6-5.4 3.9-.3 5.2 1.7zm30.8-3.3c1.3 2 1 4.5-.6 5.5s-3.9.2-5.2-1.8-1-4.4.6-5.4 4-.3 5.2 1.7zm11.8-5.3c1.2 2 1 4.4-.6 5.5s-4 .2-5.3-1.8-.9-4.4.7-5.5 3.9-.2 5.2 1.8zm9.2-11.8c1.2 2 1 4.5-.7 5.5s-3.9.2-5.2-1.8-1-4.4.7-5.4 3.9-.3 5.2 1.7z"/><path d="M158 99.3c.1 2.3-1.4 4.3-3.3 4.4s-3.6-1.7-3.8-4 1.4-4.3 3.3-4.4a3.9 3.9 0 013.8 4zm-3.3 5.4c-3.4.2-6.1 3.7-5.8 7.8h12.5c-.2-4.2-3.2-8-6.7-7.8z"/><path d="M132.7 130.7h17"/><path d="M75.3 112.2l37.1.2m-44.3 6.3l37.1.2m-27.9 6.4l37.1.2"/></g></svg>