<svg xmlns="http://www.w3.org/2000/svg" viewBox="0 0 1922.8 866" id="svg-background"><g fill="#fff"><path id="path-1" d="M965.8 704.5c-121.7-339.6-445.3 59.4-683.2-72.3C197.3 583.1 243.7 199.1 77.8 48 51.8 25.5 25.8 10.2.1 0v697.9l.3.2c343.4 109.8 666.6 148.6 946.5 151 26.5-31.6 34.9-100.1 18.9-144.6z" opacity=".05"/><path id="path-2" d="M1568.2 742.4C865.7 890.9 940.4 533.5 489.3 491.3c-196-22-418.6 98.9-489.3 153v53.6c0 .1.1.1.2.1 1047 335.2 1907.4 9.1 1922.6 3.3V385.4c-5 19-79.7 279.1-354.6 357z" opacity=".15"/><path id="path-3" d="M1470.6 729.3c-105.7 13.2-253.1-168.9-496.8-158.6-218.2 14.8-303.2 151.9-283.5 266.1 473.9 41.6 858.8-30.5 1066-84.5-157.9-69.7 8-376.4 166.6-275.7V291.8c-365.5-170.5-232.8 410.2-452.3 437.5z" opacity=".1"/><path id="path-4" d="M507.7 770.3C294.6 725.3 146.8 662 94.2 625.2 52 595.8 17.2 556.8.3 516.7-.2 515.3.1 637.6.3 698c1054.7 337.7 1919.9 4.4 1922.6 3.3v-67.1c-167.4 118.3-733.2 262-1415.2 136.1z" opacity=".3"/></g><path id="path-5" d="M1922.9 701.3h-.2c-15.2 5.8-875.4 331.8-1922.4-3.4-.1 0-.2 0-.2-.1V866h1922.8V701.3z" fill="#f2f2f2"/></svg>