<svg xmlns="http://www.w3.org/2000/svg" viewBox="0 0 1922.8 689.3" id="svg-background"><g fill="#fff"><path d="M965.8 527.9c-121.7-339.7-457.7 79.6-683.3-72.3-80.1-54-38.8-256.5-204.7-407.6C51.7 25.5 25.7 10.2 0 0v521.3h.4c343.3 109.9 666.5 148.7 946.5 151 26.5-31.4 34.8-100 18.9-144.4z" opacity=".05"/><path d="M1568.1 565.8C865.6 714.3 940.4 356.9 489.2 314.7 293.3 292.6 70.7 413.5 0 467.7v53.6h.2c1047.1 335.3 1907.5 9.2 1922.6 3.4V208.8c-5.1 18.9-79.8 279.1-354.7 357z" opacity=".15"/><path d="M1470.6 552.7c-105.8 13.1-253.1-169-496.8-158.6-218.2 14.7-303.2 151.9-283.6 266 474 41.7 858.9-30.5 1066-84.5-157.9-69.6 8.1-376.4 166.6-275.7V115.2c-365.5-170.5-232.7 410.2-452.2 437.5z" opacity=".1"/><path d="M507.6 593.6c-213-44.9-360.9-108.3-413.4-145C52 419.1 17.2 380.2.3 340c-.5-1.3-.2 121-.1 181.3 1054.8 337.7 1919.9 4.4 1922.6 3.4v-67.2c-167.4 118.3-733.1 262-1415.2 136.1z" opacity=".3"/></g><path d="M1922.8 524.7h-.2c-15.1 5.8-875.3 331.8-1922.4-3.5H0v168h1922.8V524.7z" fill="#f2f2f2"/></svg>