<svg viewBox="0 0 468.8 81" id="brand-desktop" aria-labelledby="title, description"><title>brand</title><desc>We Inspire Brand Logo Icon Desktop Version</desc><path class="green" d="M0 56.1a8.7 8.7 0 008.7 8.7h11.9L0 8.3zM147 1.3h-19.4s22.4 2.4 22 35.6v2.5h4.7V8.6a7.3 7.3 0 00-7.3-7.3zM174.5 21.3l-8.4-.8-1.6-.2v44.8h11.3V21.5z"/><path class="blue" d="M115.7 3c-18 0-31 13.1-31 31.1s13.2 31.2 31.4 31.2c11.4 0 20.9-5 26.1-13.6l1.5-2.5-9.9-5.8-1.4 2.6c-2.9 5.2-8.9 8.3-16.2 8.3-9.8 0-17.2-5.5-19.5-14.4h48.5v-.5s.1-4.6.1-5c0-15.3-10.4-31.4-29.6-31.4zm17.7 25.8H96.6c2.1-9.1 9.3-14.8 19-14.8s15.8 5.6 17.8 14.8zM79.9 3.7a4.8 4.8 0 00-4.5 3.2L60 51l-7.2-12.1 14-23.2-7.4-1.2a5.5 5.5 0 00-5.4 2.3l-7.7 11.4-1.3-2.3a5.5 5.5 0 00-6.3-2.6l-6.7 2 8 13.6-7.6 12.5L16.5 7.7a6.2 6.2 0 00-5.8-4.1H3.3l22.3 61.1v.3h8.8a4.4 4.4 0 003.7-2.1l8-13.3L55.6 65h8.1a4.4 4.4 0 004.1-2.9L88 3.7h-8.1zM167.6 1.2a3.1 3.1 0 00-3.1 3.1v13.3h1.3l8.5.8h1.5v-14a3.1 3.1 0 00-3.1-3.1zM234.8 24.6h-1.3l-8.6-.3h-1.6v1.6c0 .5.1 1 .1 1.5v37.7h11.4V27.2v-1.3zM265.5 28.8c-4.3-1.1-8.1-2.1-10.4-3.6l-.3-.2h-.4l-10.7-.2h-2.1l.7 2c3.1 8.2 12.4 10.6 19.9 12.5s13.2 3.6 13.2 8.3-6.3 7.8-11.7 7.8c-7 0-12.2-3-13.9-8l-1.1-3.4-9.9 5.8.8 2.2c3.4 9 12.4 14.3 24 14.3 13.5 0 23-7.7 23-18.8.1-13.3-12.1-16.4-21.1-18.7zM354.4 22.9h-1.1l-8.8.5h-2l.8 1.9a21.6 21.6 0 011.8 8.7 21.1 21.1 0 11-42.1 0 21.8 21.8 0 011.2-7.3l.7-1.9h-2l-9.8.2h-1.4v56H303V57.7a29.6 29.6 0 0021.4 8.6 31.8 31.8 0 0032-32.2 33.3 33.3 0 00-1.6-10.2zM361.7 22.6h-1.3v42.5h11.3V22h-1.5zM378.9 21.7h-1.3v43.4h11.3V30.9c.4-8.2 2.1-10.1 2.1-10.1l-2.2.2zM462.5 14.3l-.5-.8h-.9l-9.9 1.5-3.4.4 2.5 2.3a20.2 20.2 0 016.1 10.8h-38.3a20.4 20.4 0 013.5-7.5l2.1-2.8-3.5.4-10.4 1h-.9l-.4.9a34.5 34.5 0 00-2.7 13.6c0 18.7 13.7 32.4 32.6 32.4 11.8 0 21.7-5.2 27.1-14.2l1.5-2.6-10-5.9h-.1l-1.5 2.7c-3 5.5-9.3 8.7-16.9 8.7-10.2 0-18-5.8-20.3-15.1h50.4c0-.4 1.5-14.1-6.1-25.8zM192.8 22.5l-9.6-.7h-1.5v43.3H193V32.5a28 28 0 011.1-8.2l.5-1.7z"/><path class="green" d="M210.2 0c-6.9 0-12.8 2.2-17.3 6.3V4.4a3.2 3.2 0 00-3.2-3.2h-4.9a3.2 3.2 0 00-3.2 3.2v14.4h1.3l11.2.9h.9l.4-.8c2.8-5.2 7.8-8 14.4-8s11.5 3.3 13.1 9.3l.3 1h1l8.8.3h1.7l-.3-1.7C232.5 7.7 223.2 0 210.2 0zM263.3 0c-12.7 0-22 7.9-22 18.8 0 .6 0 1.1.1 1.8v1.2h1.3l8.6.2h1.9l-.5-1.8a5.7 5.7 0 01-.2-1.5c0-5.3 5.5-7.8 10.7-7.8s10.1 2.5 11.8 6.8a2.8 2.8 0 004 1.4l4.7-2.7a2.8 2.8 0 001.2-3.6C281.4 4.8 273.3 0 263.3 0zM324.3 0A29.6 29.6 0 00303 8.6V4.4a3.2 3.2 0 00-3.2-3.2h-4.9a3.2 3.2 0 00-3.2 3.2v17.8h1.4l11.6-.2h.8l.4-.7a21.2 21.2 0 0135.5-1.2l.4.7h.8l9.5-.5h2.1l-.9-1.9a31.6 31.6 0 00-29-18.4zM360.4 19.9h1.5l8.5-.5h1.3v-15a3.2 3.2 0 00-3.2-3.2h-5a3.2 3.2 0 00-3.2 3.2zM388.8 6.2V4.4a3.2 3.2 0 00-3.2-3.2h-4.9a3.2 3.2 0 00-3.2 3.2V19h1.5l12-.9h.6l.4-.5a16.1 16.1 0 0112.7-6.4 2.8 2.8 0 002.8-2.8V2.8a2.8 2.8 0 00-2.7-2.8 23.2 23.2 0 00-16 6.2zM459.5 9A29 29 0 00438 0c-11.6 0-21.5 5.3-27.2 14.5l-1.5 2.4 2.8-.3 12.5-1.2h.4l.3-.2A20.7 20.7 0 01438 11a19.2 19.2 0 018.1 1.7l.4.2h.4l11.9-1.5 2.7-.4z"/></svg>