<svg viewBox="0 0 154.2 64" id="brand-mobile" aria-labelledby="title, description"><title>sub_brand</title><desc>We Inspire Brand Logo Icon Mobile Version</desc><path class="brand-blue" d="M115.7 1.7c-17.9 0-30.9 13.1-30.9 31.2S97.9 64 116.1 64c11.4 0 20.9-5 26.1-13.6l1.5-2.5-9.9-5.9-1.4 2.6c-2.9 5.2-8.9 8.3-16.2 8.3-9.8 0-17.2-5.5-19.5-14.4h48.5V38s.1-4.6.1-5c0-15.2-10.4-31.3-29.6-31.3zm17.7 25.8H96.6c2.1-9.1 9.3-14.8 19-14.8s15.8 5.6 17.8 14.7zM79.9 2.3a4.8 4.8 0 00-4.5 3.2L60 49.7l-7.2-12.2 14-23.2-7.4-1.2a5.5 5.5 0 00-5.4 2.4l-7.7 11.4-1.3-2.3a5.5 5.5 0 00-6.2-2.6L32 23.9l8 13.6-7.6 12.6L16.5 6.4a6.2 6.2 0 00-5.8-4.1H3.3l22.3 61.1v.3h8.8a4.4 4.4 0 003.7-2.1l8-13.3 9.3 15.4h8.1a4.4 4.4 0 004.1-2.9L88 2.3h-8.1z"/><path class="brand-green" d="M0 54.8a8.7 8.7 0 008.7 8.7h11.9L0 6.9zM147 0h-19.4s22.4 2.4 22 35.6v2.5h4.7V7.3A7.3 7.3 0 00147 0z"/></svg>