<svg viewBox="0 0 31 31" id="instagram"><path d="M15.4 30.9H8.5a9.4 9.4 0 01-4.4-1.3 8 8 0 01-3.7-5 11 11 0 01-.4-3.1l-.1-8.2.1-4.8a10 10 0 011.1-4.1A8 8 0 015.8.5 10.2 10.2 0 019.3 0h8.8a37 37 0 014.7.2 8.8 8.8 0 014.6 1.6A8 8 0 0130.6 7a19.8 19.8 0 01.3 4.2v8.9a25.6 25.6 0 01-.3 3.9 8.4 8.4 0 01-3.5 5.3 8.2 8.2 0 01-3.7 1.3l-4 .3zm12.8-15.5h-.1v-5.1a14.5 14.5 0 00-.4-3.5 5.4 5.4 0 00-3.3-3.6 16.4 16.4 0 00-3.2-.5c-3.9-.1-7.7-.1-11.6 0a13.5 13.5 0 00-2.8.4A5.4 5.4 0 004 5a5.8 5.8 0 00-1.1 3.1c-.1 1.3-.2 2.5-.2 3.8l.1 9.1a9.2 9.2 0 00.3 2.9 5 5 0 003.3 3.6 8.9 8.9 0 003.2.5c3.9.1 7.8.1 11.6 0a8.6 8.6 0 003.2-.5 5 5 0 003-2.7 7 7 0 00.6-3.2c.1-2.1.1-4.1.2-6.2zm-12.8 7.4a7.4 7.4 0 117.4-7.4 7.4 7.4 0 01-7.4 7.4zm-4.8-7.4a4.8 4.8 0 104.8-4.8 4.9 4.9 0 00-4.8 4.8zm12.6-6.7a1.8 1.8 0 01-.1-3.5A1.8 1.8 0 0124.9 7a1.8 1.8 0 01-1.7 1.7z"/></svg>