<svg viewBox="0 0 31 31" id="instagram-circle"><path d="M19.1 8.1h-7.3c-2.4.2-3.6 1.3-3.7 3.7v7.4c.1 2.4 1.3 3.5 3.7 3.7h7.3c2.5-.1 3.6-1.3 3.7-3.7a30.5 30.5 0 00.1-3.7 30.5 30.5 0 00-.1-3.7c-.1-2.4-1.2-3.5-3.7-3.7zm-3.6 12a4.6 4.6 0 114.6-4.6 4.6 4.6 0 01-4.6 4.6zm4.8-8.3a1.1 1.1 0 111.1-1.1 1.1 1.1 0 01-1.1 1.1zm-1.8 3.7a3 3 0 11-3-3 3 3 0 013 3zM15.5 0A15.5 15.5 0 1031 15.5 15.4 15.4 0 0015.5 0zm9 19.2c-.2 3.3-2 5.1-5.3 5.3h-7.4c-3.3-.2-5.2-2-5.3-5.3a28.6 28.6 0 01-.1-3.7 28.6 28.6 0 01.1-3.7c.1-3.3 2-5.1 5.3-5.3h7.4c3.3.2 5.1 2 5.3 5.3v7.4z"/></svg>