<svg version="1.1" id="screen" x="0" y="0" width="702.5" height="489.1" viewBox="0 0 702.5 489.1" xml:space="preserve"><path fill="none" stroke="#000" stroke-width="2" stroke-miterlimit="10" d="M700.8 487.4H.8V8.8c0-4.4 3.6-8 8-8h684c4.4 0 8 3.6 8 8v478.6z"/><circle fill="none" stroke="#000" stroke-width="2" stroke-miterlimit="10" cx="25.2" cy="17.1" r="4.9"/><circle fill="none" stroke="#000" stroke-width="2" stroke-miterlimit="10" cx="42.4" cy="17.1" r="4.9"/><circle fill="none" stroke="#000" stroke-width="2" stroke-miterlimit="10" cx="59.5" cy="17.1" r="4.9"/><g fill="none" stroke="#000" stroke-width="2" stroke-linecap="round" stroke-linejoin="round" stroke-miterlimit="10"><path d="M676.9 44h15.6M676.9 49.8h15.6M676.9 55.6h15.6"/></g><path fill="none" stroke="#000" stroke-width="2" stroke-linecap="round" stroke-linejoin="round" stroke-miterlimit="10" d="M17.2 57.2l-7.5-7.4 7.5-7.5M9.7 49.8H25M44.4 42.3l7.4 7.5-7.5 7.4M51.8 49.8H36.5"/><g stroke="#000" stroke-width="2" stroke-linecap="round" stroke-miterlimit="10"><path fill="none" d="M75.2 54.5c-1 .7-2.2 1.2-3.6 1.2-3.3 0-5.9-2.6-5.9-5.9s2.6-5.9 5.9-5.9c2.5 0 4.7 1.6 5.5 3.9"/><path stroke-linejoin="round" d="M74 48.9l4.7-4.7v4.7z"/></g><path fill="none" stroke="#000" stroke-width="2" stroke-miterlimit="10" d="M665.6 61.3H95.1c-1.1 0-2-.9-2-2v-19c0-1.1.9-2 2-2h570.5c1.1 0 2 .9 2 2v19c0 1.1-.9 2-2 2z"/><path fill="none" stroke="#000" stroke-width="2" stroke-miterlimit="10" d="M284.5 32.7h416.3v34.2H.8V32.7h76.1s2-.1 3-2.3c1-2.2 6.7-17.4 8.1-19.4 1-1.5 2.5-2.3 3.5-2.3H270.1c1 0 2.5.8 3.5 2.3 1.4 2 7.1 17.3 8.1 19.4s2.8 2.3 2.8 2.3z"/><path fill="none" stroke="#000" stroke-width="2" stroke-miterlimit="10" d="M309.4 26.8h-20.8c-.9 0-1.7-.5-2-1.4L282.4 15c-.6-1.4.5-3 2-3h20.8c.9 0 1.7.5 2 1.4l4.2 10.4c.6 1.5-.4 3-2 3z"/></svg>