<svg viewBox="0 0 541 543.6" id="whatsapp" aria-labelledby="title, description"><title>Whatsapp Icon</title><desc>Whatsapp Email Icon</desc><path fill="#f0f2f5" d="M142.8 506.1c135.3 80.3 387.4 9.1 398.2-236.5C541 94.4 394.3-.8 271.6 0 0 4.5-46.2 290.3 38.2 404L0 543.6zM271.7 45.5c123.8 0 223.9 100.3 223.8 224s-100.6 223.9-224 223.9c-47.9 0-84.1-13.5-122.1-36l-84.7 22.2Q76 438.2 87.3 397c-24.8-39.5-39.6-77.3-39.6-127.7.1-123.4 100.5-223.8 224-223.8z"/><path fill="#46c655" d="M464.1 155.4c-39-65.7-110.4-110-192.5-110s-153.4 44.3-192.5 110a222.7 222.7 0 00-31.4 113.9c-.1 50.4 14.7 88.1 39.5 127.6l-22.6 82.6 84.7-22.2c38 22.5 74.2 36 122.1 36 123.4 0 224-100.4 224-223.9a223 223 0 00-31.3-114zm-61.8 223c-14.5 12.4-33 25.8-47.7 25.8-40 0-84.2-24.8-116.6-50.4-36.9-29.3-64.8-66.2-85.3-108.3-16.4-33.4-14-65.7 4.2-90.1a102.8 102.8 0 016.7-8.1c19.4-19.9 43.7-15.8 54.5 8.1a29.6 29.6 0 011.5 3.1c2.8 7.3 4.5 15.1 8.2 21.9 11.1 20.6 9.1 38.1-8.9 54.2-3.5 3.2-5 13.5-2.6 17.9 17.7 33 43.5 58.1 76.8 75.8 13.8 7.4 22.9 6.6 33.5-5.7 20.9-24.7 21.6-24.2 50.8-8.9 5.8 3 11.5 6.2 17.3 9.3 24.2 12.9 29 37.1 7.6 55.4z"/><path fill="#f0f2f5" d="M238 353.8c32.4 25.6 76.6 50.4 116.6 50.4 14.7 0 33.2-13.4 47.7-25.8 21.4-18.3 16.6-42.5-7.6-55.4l-17.3-9.3c-29.2-15.3-29.9-15.8-50.8 8.9-10.6 12.3-19.7 13.1-33.5 5.7-33.3-17.7-59.1-42.8-76.8-75.8-2.4-4.4-.9-14.7 2.6-17.9 18-16.1 20-33.6 8.9-54.2-3.7-6.8-5.4-14.6-8.2-21.9a29.6 29.6 0 00-1.5-3.1c-10.8-23.9-35.1-28-54.5-8.1a102.8 102.8 0 00-6.7 8.1c-18.2 24.4-20.6 56.7-4.2 90.1 20.5 42.1 48.4 79 85.3 108.3z"/></svg>