<svg viewBox="0 0 30.9 31" id="whatsapp-transparent" aria-labelledby="title, description"><title>Whatsapp Icon</title><desc>Whatsapp Email Icon</desc><path d="M8.1 28.9c7.7 4.6 22.1.5 22.7-13.5A15.3 15.3 0 0015.5 0C0 .3-2.6 16.6 2.2 23L0 31zm7.4-26.3a12.8 12.8 0 11-7 23.5l-4.8 1.3L5 22.6a12.8 12.8 0 0110.5-20zm-1.9 17.6c1.8 1.5 4.4 2.9 6.6 2.9a5.2 5.2 0 002.7-1.5c1.2-1 .9-2.4-.4-3.2l-1-.5c-1.7-.9-1.7-.9-2.9.5a1.3 1.3 0 01-1.9.3 10.4 10.4 0 01-4.4-4.3 1.1 1.1 0 01.1-1 2.3 2.3 0 00.5-3.1 10 10 0 01-.4-1.3 1.8 1.8 0 00-3.2-.6 4.7 4.7 0 00-.6 5.6 17.6 17.6 0 004.9 6.2z"/></svg>