<svg xmlns="http://www.w3.org/2000/svg" xmlns:xlink="http://www.w3.org/1999/xlink"><symbol viewBox="0 0 63.2 120.2" id="arrow-left"><path d="M59.6 116.3l-3.9 3.9L3.1 67.5a10.44 10.44 0 010-14.8l5.1-5.1 51.5 51.5c4.6 4.7 4.6 12.4-.1 17.2zm-47-73.2l12.6 12.6 34.5-34.5a12.38 12.38 0 000-17.3L55.8 0 12.6 43.1z"/></symbol><symbol viewBox="0 0 63.2 120.2" id="arrow-right"><path d="M3.6 116.3a12.38 12.38 0 010-17.3L55 47.6l5.2 5.1c4.1 4 4.1 10.7 0 14.8L7.5 120.2l-3.9-3.9zM7.4 0L3.5 3.9a12.38 12.38 0 000 17.3L38 55.7l12.6-12.6L7.4 0z"/></symbol><symbol viewBox="0 0 120.2 63.2" id="arrow-up"><path d="M116.3 59.6a12.38 12.38 0 01-17.3 0L47.6 8.2l5.1-5.1a10.44 10.44 0 0114.8 0l52.7 52.7-3.9 3.8zM0 55.8l3.9 3.9a12.38 12.38 0 0017.3 0l34.5-34.5-12.6-12.6L0 55.8z"/></symbol><symbol viewBox="0 0 31 31" id="behance"><path d="M11.1 11.6H8.3v2.6h3.1c2.1 0 2.5-2.6-.3-2.6zM15.5 0A15.5 15.5 0 1031 15.5 15.5 15.5 0 0015.5 0zm3.1 9h6.1v1.7h-6.1zm-7.3 13H5.7V9h6c4.7.1 4.8 4.7 2.4 6 2.9 1.1 3 7-2.8 7zm15.2-4.3h-7a2.3 2.3 0 004 1.8h2.7c-.4 1.1-1.8 2.6-4.4 2.6s-4.8-1.6-4.8-5 2-5.1 4.7-5.1a4.3 4.3 0 014.7 3.8 11.6 11.6 0 010 1.8z"/><path d="M11.2 16.8H8.3v2.6h2.9c2.6 0 2.4-2.6 0-2.6zM21.7 14a2 2 0 00-2.2 1.9h4.3a1.9 1.9 0 00-2.1-1.9z"/></symbol><symbol viewBox="0 0 468.8 81" id="brand-desktop"><path class="green" d="M0 56.1a8.7 8.7 0 008.7 8.7h11.9L0 8.3zM147 1.3h-19.4s22.4 2.4 22 35.6v2.5h4.7V8.6a7.3 7.3 0 00-7.3-7.3zm27.5 20l-8.4-.8-1.6-.2v44.8h11.3V21.5z"/><path class="blue" d="M115.7 3c-18 0-31 13.1-31 31.1s13.2 31.2 31.4 31.2c11.4 0 20.9-5 26.1-13.6l1.5-2.5-9.9-5.8-1.4 2.6c-2.9 5.2-8.9 8.3-16.2 8.3-9.8 0-17.2-5.5-19.5-14.4h48.5v-.5s.1-4.6.1-5c0-15.3-10.4-31.4-29.6-31.4zm17.7 25.8H96.6c2.1-9.1 9.3-14.8 19-14.8s15.8 5.6 17.8 14.8zM79.9 3.7a4.8 4.8 0 00-4.5 3.2L60 51l-7.2-12.1 14-23.2-7.4-1.2a5.5 5.5 0 00-5.4 2.3l-7.7 11.4-1.3-2.3a5.5 5.5 0 00-6.3-2.6l-6.7 2 8 13.6-7.6 12.5L16.5 7.7a6.2 6.2 0 00-5.8-4.1H3.3l22.3 61.1v.3h8.8a4.4 4.4 0 003.7-2.1l8-13.3L55.6 65h8.1a4.4 4.4 0 004.1-2.9L88 3.7h-8.1zm87.7-2.5a3.1 3.1 0 00-3.1 3.1v13.3h1.3l8.5.8h1.5v-14a3.1 3.1 0 00-3.1-3.1zm67.2 23.4h-1.3l-8.6-.3h-1.6v1.6c0 .5.1 1 .1 1.5v37.7h11.4V25.9zm30.7 4.2c-4.3-1.1-8.1-2.1-10.4-3.6l-.3-.2h-.4l-10.7-.2h-2.1l.7 2c3.1 8.2 12.4 10.6 19.9 12.5s13.2 3.6 13.2 8.3-6.3 7.8-11.7 7.8c-7 0-12.2-3-13.9-8l-1.1-3.4-9.9 5.8.8 2.2c3.4 9 12.4 14.3 24 14.3 13.5 0 23-7.7 23-18.8.1-13.3-12.1-16.4-21.1-18.7zm88.9-5.9h-1.1l-8.8.5h-2l.8 1.9a21.6 21.6 0 011.8 8.7 21.1 21.1 0 11-42.1 0 21.8 21.8 0 011.2-7.3l.7-1.9h-2l-9.8.2h-1.4v56H303V57.7a29.6 29.6 0 0021.4 8.6 31.8 31.8 0 0032-32.2 33.3 33.3 0 00-1.6-10.2zm7.3-.3h-1.3v42.5h11.3V22h-1.5zm17.2-.9h-1.3v43.4h11.3V30.9c.4-8.2 2.1-10.1 2.1-10.1l-2.2.2zm83.6-7.4l-.5-.8h-.9l-9.9 1.5-3.4.4 2.5 2.3a20.2 20.2 0 016.1 10.8h-38.3a20.4 20.4 0 013.5-7.5l2.1-2.8-3.5.4-10.4 1h-.9l-.4.9a34.5 34.5 0 00-2.7 13.6c0 18.7 13.7 32.4 32.6 32.4 11.8 0 21.7-5.2 27.1-14.2l1.5-2.6-10-5.9h-.1l-1.5 2.7c-3 5.5-9.3 8.7-16.9 8.7-10.2 0-18-5.8-20.3-15.1h50.4c0-.4 1.5-14.1-6.1-25.8zm-269.7 8.2l-9.6-.7h-1.5v43.3H193V32.5a28 28 0 011.1-8.2l.5-1.7z"/><path class="green" d="M210.2 0c-6.9 0-12.8 2.2-17.3 6.3V4.4a3.2 3.2 0 00-3.2-3.2h-4.9a3.2 3.2 0 00-3.2 3.2v14.4h1.3l11.2.9h.9l.4-.8c2.8-5.2 7.8-8 14.4-8s11.5 3.3 13.1 9.3l.3 1h1l8.8.3h1.7l-.3-1.7C232.5 7.7 223.2 0 210.2 0zm53.1 0c-12.7 0-22 7.9-22 18.8 0 .6 0 1.1.1 1.8v1.2h1.3l8.6.2h1.9l-.5-1.8a5.7 5.7 0 01-.2-1.5c0-5.3 5.5-7.8 10.7-7.8s10.1 2.5 11.8 6.8a2.8 2.8 0 004 1.4l4.7-2.7a2.8 2.8 0 001.2-3.6C281.4 4.8 273.3 0 263.3 0zm61 0A29.6 29.6 0 00303 8.6V4.4a3.2 3.2 0 00-3.2-3.2h-4.9a3.2 3.2 0 00-3.2 3.2v17.8h1.4l11.6-.2h.8l.4-.7a21.2 21.2 0 0135.5-1.2l.4.7h.8l9.5-.5h2.1l-.9-1.9a31.6 31.6 0 00-29-18.4zm36.1 19.9h1.5l8.5-.5h1.3v-15a3.2 3.2 0 00-3.2-3.2h-5a3.2 3.2 0 00-3.2 3.2zm28.4-13.7V4.4a3.2 3.2 0 00-3.2-3.2h-4.9a3.2 3.2 0 00-3.2 3.2V19h1.5l12-.9h.6l.4-.5a16.1 16.1 0 0112.7-6.4 2.8 2.8 0 002.8-2.8V2.8a2.8 2.8 0 00-2.7-2.8 23.2 23.2 0 00-16 6.2zM459.5 9A29 29 0 00438 0c-11.6 0-21.5 5.3-27.2 14.5l-1.5 2.4 2.8-.3 12.5-1.2h.4l.3-.2A20.7 20.7 0 01438 11a19.2 19.2 0 018.1 1.7l.4.2h.4l11.9-1.5 2.7-.4z"/></symbol><symbol viewBox="0 0 154.2 64" id="brand-mobile"><path class="blue" d="M115.7 1.7c-17.9 0-30.9 13.1-30.9 31.2S97.9 64 116.1 64c11.4 0 20.9-5 26.1-13.6l1.5-2.5-9.9-5.9-1.4 2.6c-2.9 5.2-8.9 8.3-16.2 8.3-9.8 0-17.2-5.5-19.5-14.4h48.5V38s.1-4.6.1-5c0-15.2-10.4-31.3-29.6-31.3zm17.7 25.8H96.6c2.1-9.1 9.3-14.8 19-14.8s15.8 5.6 17.8 14.7zM79.9 2.3a4.8 4.8 0 00-4.5 3.2L60 49.7l-7.2-12.2 14-23.2-7.4-1.2a5.5 5.5 0 00-5.4 2.4l-7.7 11.4-1.3-2.3a5.5 5.5 0 00-6.2-2.6L32 23.9l8 13.6-7.6 12.6L16.5 6.4a6.2 6.2 0 00-5.8-4.1H3.3l22.3 61.1v.3h8.8a4.4 4.4 0 003.7-2.1l8-13.3 9.3 15.4h8.1a4.4 4.4 0 004.1-2.9L88 2.3h-8.1z"/><path class="green" d="M0 54.8a8.7 8.7 0 008.7 8.7h11.9L0 6.9zM147 0h-19.4s22.4 2.4 22 35.6v2.5h4.7V7.3A7.3 7.3 0 00147 0z"/></symbol><symbol viewBox="0 0 120.2 109" id="cross"><path d="M73.2 54.5l47-47-3.9-3.9c-4.8-4.7-12.5-4.7-17.2-.1L60.7 42 21.2 3.5a12.38 12.38 0 00-17.3 0L0 7.4 47.5 54 0 101.5l3.9 3.9c4.8 4.7 12.5 4.7 17.2.1l39-39 38.9 39a12.38 12.38 0 0017.3 0l3.9-3.9-47-47.1z"/></symbol><symbol viewBox="0 0 31 20.9" id="email"><path d="M0 18.3V2.6l.3-.8a3 3 0 013-1.8h24.9a3 3 0 012.6 2 5.1 5.1 0 01.2.6v15.7l-.3.9a3 3 0 01-3 1.8H2.8a3 3 0 01-2.7-2.4zM3.1 2l.2.2 11.4 11.3a1 1 0 001.7 0L27.8 2.1zm17.4 10.2L17.7 15a3 3 0 01-4.3.1h-.1l-2.8-2.8L4 18.8h23.1zM2 17.7l6.9-6.9L2 3.9zM29 3.9l-6.9 6.9 6.9 6.8z"/></symbol><symbol viewBox="0 0 31 31" id="email-circle"><path d="M15.5 0A15.5 15.5 0 1031 15.5 15.5 15.5 0 0015.5 0zm9 9l-9 7.3-9-7.3zm-18 11.7v-9.8l5.5 4.6-5.5 5.2zm1.3 1.2l5.6-5.4 2.1 1.7 2.1-1.7 5.6 5.4zm16.8-1.2L19 15.5l5.6-4.5z"/></symbol><symbol viewBox="0 0 31 31" id="facebook"><path d="M15.5 0A15.5 15.5 0 1031 15.5 15.5 15.5 0 0015.5 0zm4 10.3h-1.7c-.7 0-.8.3-.8 1v1.6h2.6l-.3 2.6H17v9h-3.9v-9h-2.6v-2.6h2.6v-3c0-2.3 1.2-3.5 3.9-3.5h2.5z"/></symbol><symbol viewBox="0 0 18.7 26.5" id="footer-location"><path d="M9.2 0c-5.4.1-18 7.6.5 26.5C27.3 6.8 14.6-.1 9.2 0zm.4 13.9a4.6 4.6 0 01-4.8-4.5 4.7 4.7 0 014.6-4.8 4.7 4.7 0 014.7 4.6 4.7 4.7 0 01-4.5 4.7z"/></symbol><symbol viewBox="0 0 31 31" id="instagram"><path d="M15.4 30.9H8.5a9.4 9.4 0 01-4.4-1.3 8 8 0 01-3.7-5 11 11 0 01-.4-3.1l-.1-8.2.1-4.8a10 10 0 011.1-4.1A8 8 0 015.8.5 10.2 10.2 0 019.3 0h8.8a37 37 0 014.7.2 8.8 8.8 0 014.6 1.6A8 8 0 0130.6 7a19.8 19.8 0 01.3 4.2v8.9a25.6 25.6 0 01-.3 3.9 8.4 8.4 0 01-3.5 5.3 8.2 8.2 0 01-3.7 1.3l-4 .3zm12.8-15.5h-.1v-5.1a14.5 14.5 0 00-.4-3.5 5.4 5.4 0 00-3.3-3.6 16.4 16.4 0 00-3.2-.5c-3.9-.1-7.7-.1-11.6 0a13.5 13.5 0 00-2.8.4A5.4 5.4 0 004 5a5.8 5.8 0 00-1.1 3.1c-.1 1.3-.2 2.5-.2 3.8l.1 9.1a9.2 9.2 0 00.3 2.9 5 5 0 003.3 3.6 8.9 8.9 0 003.2.5c3.9.1 7.8.1 11.6 0a8.6 8.6 0 003.2-.5 5 5 0 003-2.7 7 7 0 00.6-3.2c.1-2.1.1-4.1.2-6.2zm-12.8 7.4a7.4 7.4 0 117.4-7.4 7.4 7.4 0 01-7.4 7.4zm-4.8-7.4a4.8 4.8 0 104.8-4.8 4.9 4.9 0 00-4.8 4.8zm12.6-6.7a1.8 1.8 0 01-.1-3.5A1.8 1.8 0 0124.9 7a1.8 1.8 0 01-1.7 1.7z"/></symbol><symbol viewBox="0 0 31 31" id="instagram-circle"><path d="M19.1 8.1h-7.3c-2.4.2-3.6 1.3-3.7 3.7v7.4c.1 2.4 1.3 3.5 3.7 3.7h7.3c2.5-.1 3.6-1.3 3.7-3.7a30.5 30.5 0 00.1-3.7 30.5 30.5 0 00-.1-3.7c-.1-2.4-1.2-3.5-3.7-3.7zm-3.6 12a4.6 4.6 0 114.6-4.6 4.6 4.6 0 01-4.6 4.6zm4.8-8.3a1.1 1.1 0 111.1-1.1 1.1 1.1 0 01-1.1 1.1zm-1.8 3.7a3 3 0 11-3-3 3 3 0 013 3zM15.5 0A15.5 15.5 0 1031 15.5 15.4 15.4 0 0015.5 0zm9 19.2c-.2 3.3-2 5.1-5.3 5.3h-7.4c-3.3-.2-5.2-2-5.3-5.3a28.6 28.6 0 01-.1-3.7 28.6 28.6 0 01.1-3.7c.1-3.3 2-5.1 5.3-5.3h7.4c3.3.2 5.1 2 5.3 5.3v7.4z"/></symbol><symbol viewBox="0 0 31 31" id="linkedin"><path d="M15.5 0A15.5 15.5 0 1031 15.5 15.5 15.5 0 0015.5 0zm-3.6 22.3h-3v-11h3zM10.4 10a1.8 1.8 0 111.8-1.8 1.8 1.8 0 01-1.8 1.8zm13.5 12.3h-3v-5.6c0-3.4-4-3.1-4 0v5.6h-3v-11h3v1.8c1.4-2.6 7-2.8 7 2.5z"/></symbol><symbol viewBox="0 0 31 31" id="location"><path d="M15.5 31l-1.1-1.2C3.3 18 3 10.6 4.8 6.5S11.7 0 15.5 0s8.7 1.9 10.7 6.3 1.5 11.5-9.6 23.4zm0-28C12.6 3 9 4.6 7.6 7.7s.9 11 7.9 18.7c6.9-7.8 9.7-14.5 7.8-18.8S18.3 3 15.5 3zm0 11.6a3.5 3.5 0 010-7 3.5 3.5 0 010 7z"/></symbol><symbol viewBox="0 0 31 31" id="location-circle"><path d="M15.5 0C6.94 0 0 6.94 0 15.5S6.94 31 15.5 31 31 24.06 31 15.5A15.4 15.4 0 0015.5 0zm0 26c-13.7-14.5-4.1-20 0-20s13.5 5.4 0 20z"/><circle cx="15.5" cy="13" r="2.7"/></symbol><symbol viewBox="0 0 541 543.6" id="whatsapp"><path fill="#f0f2f5" d="M142.8 506.1c135.3 80.3 387.4 9.1 398.2-236.5C541 94.4 394.3-.8 271.6 0 0 4.5-46.2 290.3 38.2 404L0 543.6zM271.7 45.5c123.8 0 223.9 100.3 223.8 224s-100.6 223.9-224 223.9c-47.9 0-84.1-13.5-122.1-36l-84.7 22.2Q76 438.2 87.3 397c-24.8-39.5-39.6-77.3-39.6-127.7.1-123.4 100.5-223.8 224-223.8z"/><path fill="#46c655" d="M464.1 155.4c-39-65.7-110.4-110-192.5-110s-153.4 44.3-192.5 110a222.7 222.7 0 00-31.4 113.9c-.1 50.4 14.7 88.1 39.5 127.6l-22.6 82.6 84.7-22.2c38 22.5 74.2 36 122.1 36 123.4 0 224-100.4 224-223.9a223 223 0 00-31.3-114zm-61.8 223c-14.5 12.4-33 25.8-47.7 25.8-40 0-84.2-24.8-116.6-50.4-36.9-29.3-64.8-66.2-85.3-108.3-16.4-33.4-14-65.7 4.2-90.1a102.8 102.8 0 016.7-8.1c19.4-19.9 43.7-15.8 54.5 8.1a29.6 29.6 0 011.5 3.1c2.8 7.3 4.5 15.1 8.2 21.9 11.1 20.6 9.1 38.1-8.9 54.2-3.5 3.2-5 13.5-2.6 17.9 17.7 33 43.5 58.1 76.8 75.8 13.8 7.4 22.9 6.6 33.5-5.7 20.9-24.7 21.6-24.2 50.8-8.9 5.8 3 11.5 6.2 17.3 9.3 24.2 12.9 29 37.1 7.6 55.4z"/><path fill="#f0f2f5" d="M238 353.8c32.4 25.6 76.6 50.4 116.6 50.4 14.7 0 33.2-13.4 47.7-25.8 21.4-18.3 16.6-42.5-7.6-55.4l-17.3-9.3c-29.2-15.3-29.9-15.8-50.8 8.9-10.6 12.3-19.7 13.1-33.5 5.7-33.3-17.7-59.1-42.8-76.8-75.8-2.4-4.4-.9-14.7 2.6-17.9 18-16.1 20-33.6 8.9-54.2-3.7-6.8-5.4-14.6-8.2-21.9a29.6 29.6 0 00-1.5-3.1c-10.8-23.9-35.1-28-54.5-8.1a102.8 102.8 0 00-6.7 8.1c-18.2 24.4-20.6 56.7-4.2 90.1 20.5 42.1 48.4 79 85.3 108.3z"/></symbol><symbol viewBox="0 0 31 31" id="whatsapp-circle"><path d="M15.5 0A15.5 15.5 0 1031 15.5 15.5 15.5 0 0015.5 0zm-3.9 22.7L7 23.9l1.2-4.4C5.6 15.8 7 6.7 15.7 6.5a8.5 8.5 0 018.6 8.6 8.6 8.6 0 01-12.7 7.6zM15.7 8a7.1 7.1 0 00-5.9 11.2l-.7 2.6 2.7-.7A7.1 7.1 0 1015.7 8zm4.2 10.6a2.9 2.9 0 01-1.5.8 6.6 6.6 0 01-3.7-1.6 9.8 9.8 0 01-2.7-3.4 2.6 2.6 0 01.3-3.1 1 1 0 011.8.4l.3.7A1.3 1.3 0 0114 14a.6.6 0 00-.1.6 5.8 5.8 0 002.5 2.4.7.7 0 001.1-.2c.7-.8.7-.8 1.6-.3l.5.3a1 1 0 01.3 1.8z"/></symbol><symbol viewBox="0 0 30.9 31" id="whatsapp-transparent"><path d="M8.1 28.9c7.7 4.6 22.1.5 22.7-13.5A15.3 15.3 0 0015.5 0C0 .3-2.6 16.6 2.2 23L0 31zm7.4-26.3a12.8 12.8 0 11-7 23.5l-4.8 1.3L5 22.6a12.8 12.8 0 0110.5-20zm-1.9 17.6c1.8 1.5 4.4 2.9 6.6 2.9a5.2 5.2 0 002.7-1.5c1.2-1 .9-2.4-.4-3.2l-1-.5c-1.7-.9-1.7-.9-2.9.5a1.3 1.3 0 01-1.9.3 10.4 10.4 0 01-4.4-4.3 1.1 1.1 0 01.1-1 2.3 2.3 0 00.5-3.1 10 10 0 01-.4-1.3 1.8 1.8 0 00-3.2-.6 4.7 4.7 0 00-.6 5.6 17.6 17.6 0 004.9 6.2z"/></symbol></svg>