<!-- 11/4 brand mobile email behance  -->
<svg 
    id="svg-definitions"
    style="display: none"
    xmlns="http://www.w3.org/2000/svg"
    xmlns:xlink="http://www.w3.org/1999/xlink">
    <symbol viewBox="0 0 154.2 64" id="brand-mobile" aria-labelledby="title, description">
        <title>sub_brand</title><desc>We Inspire Brand Logo Icon Mobile Version</desc>
        <path class="brand-blue" d="M115.7,1.7c-17.9,0-30.9,13.1-30.9,31.2S97.9,64,116.1,64c11.4,0,20.9-5,26.1-13.6l1.5-2.5L133.8,42l-1.4,2.6c-2.9,5.2-8.9,8.3-16.2,8.3-9.8,0-17.2-5.5-19.5-14.4h48.5v-.5s.1-4.6.1-5C145.3,17.8,134.9,1.7,115.7,1.7Zm17.7,25.8H96.6c2.1-9.1,9.3-14.8,19-14.8S131.4,18.3,133.4,27.4Z"/>
        <path class="brand-blue" d="M79.9,2.3a4.8,4.8,0,0,0-4.5,3.2L60,49.7h0L52.8,37.5h0l14-23.2h0l-7.4-1.2A5.5,5.5,0,0,0,54,15.5L46.3,26.9h0L45,24.6A5.5,5.5,0,0,0,38.8,22L32,23.9h0l8,13.6h0L32.4,50.1h0L16.5,6.4a6.2,6.2,0,0,0-5.8-4.1H3.3L25.6,63.4v.3h8.8a4.4,4.4,0,0,0,3.7-2.1l8-13.3h0l9.3,15.4h8.1a4.4,4.4,0,0,0,4.1-2.9L88,2.3H79.9Z"/>
        <path class="brand-green" d="M0,54.8a8.7,8.7,0,0,0,8.7,8.7H20.6L0,6.9Z"/>
        <path class="brand-green" d="M147,0H127.6S150,2.4,149.6,35.6v2.5h4.7V7.3A7.3,7.3,0,0,0,147,0Z"/>
    </symbol>
    <symbol viewBox="0 0 468.8 81" id="brand-desktop" aria-labelledby="title, description">
        <title>brand</title><desc>We Inspire Brand Logo Icon Desktop Version</desc>
        <path class="brand-green" d="M0,56.1a8.7,8.7,0,0,0,8.7,8.7H20.6L0,8.3Z"/>
        <path class="brand-green" d="M147,1.3H127.6S150,3.7,149.6,36.9v2.5h4.7V8.6A7.3,7.3,0,0,0,147,1.3Z"/>
        <path class="brand-green" d="M174.5,21.3l-8.4-.8-1.6-.2V65.1h11.3V21.5Z"/>
        <path class="brand-blue" d="M115.7,3C97.7,3,84.7,16.1,84.7,34.1s13.2,31.2,31.4,31.2c11.4,0,20.9-5,26.1-13.6l1.5-2.5-9.9-5.8L132.4,46c-2.9,5.2-8.9,8.3-16.2,8.3-9.8,0-17.2-5.5-19.5-14.4h48.5v-.5s.1-4.6.1-5C145.3,19.1,134.9,3,115.7,3Zm17.7,25.8H96.6c2.1-9.1,9.3-14.8,19-14.8S131.4,19.6,133.4,28.8Z"/>
        <path class="brand-blue" d="M79.9,3.7a4.8,4.8,0,0,0-4.5,3.2L60,51h0L52.8,38.9h0l14-23.2h0l-7.4-1.2A5.5,5.5,0,0,0,54,16.8L46.3,28.2h0L45,25.9a5.5,5.5,0,0,0-6.3-2.6L32,25.3h0l8,13.6h0L32.4,51.4h0L16.5,7.7a6.2,6.2,0,0,0-5.8-4.1H3.3L25.6,64.7V65h8.8a4.4,4.4,0,0,0,3.7-2.1l8-13.3h0L55.6,65h8.1a4.4,4.4,0,0,0,4.1-2.9L88,3.7H79.9Z"/>
        <path class="brand-blue" d="M167.6,1.2a3.1,3.1,0,0,0-3.1,3.1V17.6h1.3l8.5.8h1.5V4.4a3.1,3.1,0,0,0-3.1-3.1Z"/>
        <path class="brand-blue" d="M234.8,24.6h-1.3l-8.6-.3h-1.6v1.6c0,.5.1,1,.1,1.5V65.1h11.4V27.2c0-.4,0-.9,0-1.3Z"/>
        <path class="brand-blue" d="M265.5,28.8c-4.3-1.1-8.1-2.1-10.4-3.6l-.3-.2h-.4l-10.7-.2h-2.1l.7,2c3.1,8.2,12.4,10.6,19.9,12.5s13.2,3.6,13.2,8.3-6.3,7.8-11.7,7.8c-7,0-12.2-3-13.9-8L248.7,44l-9.9,5.8.8,2.2c3.4,9,12.4,14.3,24,14.3,13.5,0,23-7.7,23-18.8C286.7,34.2,274.5,31.1,265.5,28.8Z"/>
        <path class="brand-blue" d="M354.4,22.9h-1.1l-8.8.5h-2l.8,1.9a21.6,21.6,0,0,1,1.8,8.7,21.1,21.1,0,1,1-42.1,0,21.8,21.8,0,0,1,1.2-7.3l.7-1.9h-2l-9.8.2h-1.4V81H303V57.7a29.6,29.6,0,0,0,21.4,8.6,31.8,31.8,0,0,0,32-32.2,33.3,33.3,0,0,0-1.6-10.2Z"/>
        <path class="brand-blue" d="M361.7,22.6h-1.3V65.1h11.3V22h-1.5Z"/>
        <path class="brand-blue" d="M378.9,21.7h-1.3V65.1h11.3V30.9c.4-8.2,2.1-10.1,2.1-10.1l-2.2.2Z"/>
        <path class="brand-blue" d="M462.5,14.3l-.5-.8h-.9L451.2,15l-3.4.4,2.5,2.3a20.2,20.2,0,0,1,6.1,10.8H418.1a20.4,20.4,0,0,1,3.5-7.5l2.1-2.8-3.5.4-10.4,1h-.9l-.4.9a34.5,34.5,0,0,0-2.7,13.6c0,18.7,13.7,32.4,32.6,32.4,11.8,0,21.7-5.2,27.1-14.2l1.5-2.6-10-5.9h-.1l-1.5,2.7c-3,5.5-9.3,8.7-16.9,8.7-10.2,0-18-5.8-20.3-15.1h50.4C468.6,39.7,470.1,26,462.5,14.3Z"/>
        <path class="brand-blue" d="M192.8,22.5l-9.6-.7h-1.5V65.1h11.3V32.5a28,28,0,0,1,1.1-8.2l.5-1.7Z"/>
        <path class="brand-green" d="M210.2,0c-6.9,0-12.8,2.2-17.3,6.3V4.4a3.2,3.2,0,0,0-3.2-3.2h-4.9a3.2,3.2,0,0,0-3.2,3.2V18.8h1.3l11.2.9h.9l.4-.8c2.8-5.2,7.8-8,14.4-8s11.5,3.3,13.1,9.3l.3,1h1l8.8.3h1.7l-.3-1.7C232.5,7.7,223.2,0,210.2,0Z"/>
        <path class="brand-green" d="M263.3,0c-12.7,0-22,7.9-22,18.8,0,.6,0,1.1.1,1.8v1.2h1.3l8.6.2h1.9l-.5-1.8a5.7,5.7,0,0,1-.2-1.5c0-5.3,5.5-7.8,10.7-7.8s10.1,2.5,11.8,6.8h0a2.8,2.8,0,0,0,4,1.4l4.7-2.7a2.8,2.8,0,0,0,1.2-3.6h0C281.4,4.8,273.3,0,263.3,0Z"/>
        <path class="brand-green" d="M324.3,0A29.6,29.6,0,0,0,303,8.6V4.4a3.2,3.2,0,0,0-3.2-3.2h-4.9a3.2,3.2,0,0,0-3.2,3.2V22.2h1.4l11.6-.2h.8l.4-.7a21.2,21.2,0,0,1,35.5-1.2l.4.7h.8l9.5-.5h2.1l-.9-1.9A31.6,31.6,0,0,0,324.3,0Z"/>
        <path class="brand-green" d="M360.4,19.9h1.5l8.5-.5h1.3V4.4a3.2,3.2,0,0,0-3.2-3.2h-5a3.2,3.2,0,0,0-3.2,3.2Z"/>
        <path class="brand-green" d="M388.8,6.2V4.4a3.2,3.2,0,0,0-3.2-3.2h-4.9a3.2,3.2,0,0,0-3.2,3.2V19h1.5l12-.9h.6l.4-.5a16.1,16.1,0,0,1,12.7-6.4h0a2.8,2.8,0,0,0,2.8-2.8V2.8A2.8,2.8,0,0,0,404.8,0h0A23.2,23.2,0,0,0,388.8,6.2Z"/>
        <path class="brand-green" d="M459.5,9A29,29,0,0,0,438,0c-11.6,0-21.5,5.3-27.2,14.5l-1.5,2.4,2.8-.3,12.5-1.2h.4l.3-.2A20.7,20.7,0,0,1,438,11a19.2,19.2,0,0,1,8.1,1.7l.4.2h.4l11.9-1.5,2.7-.4Z"/>
    </symbol>
    <symbol viewBox="0 0 31 20.9" id="email" aria-labelledby="title, description">
        <title>Email Icon</title>
        <desc>Contact Email Icon</desc>
        <path d="M0 18.3V2.6l.3-.8a3 3 0 0 1 3-1.8h24.9a3 3 0 0 1 2.6 2 5.1 5.1 0 0 1 .2.6v15.7l-.3.9a3 3 0 0 1-3 1.8H2.8a3 3 0 0 1-2.7-2.4zM3.1 2l.2.2 11.4 11.3a1 1 0 0 0 1.7 0L27.8 2.1zm17.4 10.2L17.7 15a3 3 0 0 1-4.3.1h-.1l-2.8-2.8L4 18.8h23.1zM2 17.7l6.9-6.9L2 3.9zM29 3.9l-6.9 6.9 6.9 6.8z"/>
    </symbol>
    <symbol viewBox="0 0 31 31" id="email-circle" aria-labelledby="title, description">
        <title>Email Icon</title>
        <desc>Contact Email Icon</desc>
        <path d="M15.5,0A15.5,15.5,0,1,0,31,15.5,15.5,15.5,0,0,0,15.5,0Zm9,9-9,7.3L6.5,9ZM6.5,20.7V10.9L12,15.5,6.5,20.7Zm1.3,1.2,5.6-5.4,2.1,1.7,2.1-1.7,5.6,5.4Zm16.8-1.2L19,15.5l5.6-4.5Z"/>
    </symbol>
    <symbol viewBox="0 0 30.9 31" id="whatsapp" aria-labelledby="title, description">
        <title>Whatsapp Icon</title>
        <desc>Whatsapp Email Icon</desc>
        <path d="M8.1 28.9c7.7 4.6 22.1.5 22.7-13.5A15.3 15.3 0 0 0 15.5 0C0 .3-2.6 16.6 2.2 23L0 31zm7.4-26.3a12.8 12.8 0 1 1-7 23.5l-4.8 1.3L5 22.6a12.8 12.8 0 0 1 10.5-20zm-1.9 17.6c1.8 1.5 4.4 2.9 6.6 2.9a5.2 5.2 0 0 0 2.7-1.5c1.2-1 .9-2.4-.4-3.2l-1-.5c-1.7-.9-1.7-.9-2.9.5a1.3 1.3 0 0 1-1.9.3 10.4 10.4 0 0 1-4.4-4.3 1.1 1.1 0 0 1 .1-1 2.3 2.3 0 0 0 .5-3.1 10 10 0 0 1-.4-1.3 1.8 1.8 0 0 0-3.2-.6 4.7 4.7 0 0 0-.6 5.6 17.6 17.6 0 0 0 4.9 6.2z"/>
    </symbol>
    <symbol viewBox="0 0 31 31" id="whatsapp-circle" aria-labelledby="title, description">
        <title>Whatsapp Icon</title>
        <desc>Whatsapp Email Icon</desc>
        <path d="M15.5 0A15.5 15.5 0 1 0 31 15.5 15.5 15.5 0 0 0 15.5 0zm-3.9 22.7L7 23.9l1.2-4.4C5.6 15.8 7 6.7 15.7 6.5a8.5 8.5 0 0 1 8.6 8.6 8.6 8.6 0 0 1-12.7 7.6zM15.7 8a7.1 7.1 0 0 0-5.9 11.2l-.7 2.6 2.7-.7A7.1 7.1 0 1 0 15.7 8zm4.2 10.6a2.9 2.9 0 0 1-1.5.8 6.6 6.6 0 0 1-3.7-1.6 9.8 9.8 0 0 1-2.7-3.4 2.6 2.6 0 0 1 .3-3.1 1 1 0 0 1 1.8.4l.3.7A1.3 1.3 0 0 1 14 14a.6.6 0 0 0-.1.6 5.8 5.8 0 0 0 2.5 2.4.7.7 0 0 0 1.1-.2c.7-.8.7-.8 1.6-.3l.5.3a1 1 0 0 1 .3 1.8z"/>
    </symbol>
    <symbol viewBox="0 0 31 31" id="facebook" aria-labelledby="title, description">
        <title>Facebook Icon</title>
        <desc>Facebook Social Media Platform Icon</desc>
        <path d="M15.5,0A15.5,15.5,0,1,0,31,15.5,15.5,15.5,0,0,0,15.5,0Zm4,10.3H17.8c-.7,0-.8.3-.8,1v1.6h2.6l-.3,2.6H17v9H13.1v-9H10.5V12.9h2.6v-3c0-2.3,1.2-3.5,3.9-3.5h2.5Z"/>
    </symbol>
    <symbol viewBox="0 0 31 31" id="behance" aria-labelledby="title, description">
        <title>Behance Icon</title>
        <desc>Behance Social Media Platform Icon</desc>
        <path d="M11.1 11.6H8.3v2.6h3.1c2.1 0 2.5-2.6-.3-2.6zM15.5 0A15.5 15.5 0 1 0 31 15.5 15.5 15.5 0 0 0 15.5 0zm3.1 9h6.1v1.7h-6.1zm-7.3 13H5.7V9h6c4.7.1 4.8 4.7 2.4 6 2.9 1.1 3 7-2.8 7zm15.2-4.3h-7a2.3 2.3 0 0 0 4 1.8h2.7c-.4 1.1-1.8 2.6-4.4 2.6s-4.8-1.6-4.8-5 2-5.1 4.7-5.1a4.3 4.3 0 0 1 4.7 3.8 11.6 11.6 0 0 1 0 1.8z"/>
        <path d="M11.2 16.8H8.3v2.6h2.9c2.6 0 2.4-2.6 0-2.6zM21.7 14a2 2 0 0 0-2.2 1.9h4.3a1.9 1.9 0 0 0-2.1-1.9z"/>
    </symbol>
    <symbol viewBox="0 0 31 31" id="linkedin" aria-labelledby="title, description">
        <title>Linkedin Icon</title>
        <desc>Linkedin Social Media Platform Icon</desc>
        <path d="M15.5,0A15.5,15.5,0,1,0,31,15.5,15.5,15.5,0,0,0,15.5,0ZM11.9,22.3h-3v-11h3ZM10.4,10a1.8,1.8,0,1,1,1.8-1.8A1.8,1.8,0,0,1,10.4,10ZM23.9,22.3h-3V16.7c0-3.4-4-3.1-4,0v5.6h-3v-11h3v1.8c1.4-2.6,7-2.8,7,2.5Z"/>
    </symbol>
</svg>

