<svg xmlns="http://www.w3.org/2000/svg" xmlns:xlink="http://www.w3.org/1999/xlink"><symbol viewBox="0 0 120.2 63.2" fill="#d1d3d4" id="arrow-up"><path d="M3.903 59.652l-3.9-3.9 52.68-52.68c4.1-4.1 10.75-4.1 14.85 0l5.1 5.1L21.156 59.65a12.32 12.32 0 01-17.253 0zM75.1 10.6L62.5 23.2 99 59.7c4.814 4.687 12.486 4.687 17.3 0l3.9-3.9z"/></symbol><symbol viewBox="0 0 31 31" id="behance"><path d="M11.1 11.6H8.3v2.6h3.1c2.1 0 2.5-2.6-.3-2.6zM15.5 0A15.5 15.5 0 1031 15.5 15.5 15.5 0 0015.5 0zm3.1 9h6.1v1.7h-6.1zm-7.3 13H5.7V9h6c4.7.1 4.8 4.7 2.4 6 2.9 1.1 3 7-2.8 7zm15.2-4.3h-7a2.3 2.3 0 004 1.8h2.7c-.4 1.1-1.8 2.6-4.4 2.6s-4.8-1.6-4.8-5 2-5.1 4.7-5.1a4.3 4.3 0 014.7 3.8 11.6 11.6 0 010 1.8z"/><path d="M11.2 16.8H8.3v2.6h2.9c2.6 0 2.4-2.6 0-2.6zM21.7 14a2 2 0 00-2.2 1.9h4.3a1.9 1.9 0 00-2.1-1.9z"/></symbol><symbol viewBox="0 0 468.8 81" id="brand-desktop"><path class="brand-green" d="M0 56.1a8.7 8.7 0 008.7 8.7h11.9L0 8.3zM147 1.3h-19.4s22.4 2.4 22 35.6v2.5h4.7V8.6a7.3 7.3 0 00-7.3-7.3zm27.5 20l-8.4-.8-1.6-.2v44.8h11.3V21.5z"/><path class="brand-blue" d="M115.7 3c-18 0-31 13.1-31 31.1s13.2 31.2 31.4 31.2c11.4 0 20.9-5 26.1-13.6l1.5-2.5-9.9-5.8-1.4 2.6c-2.9 5.2-8.9 8.3-16.2 8.3-9.8 0-17.2-5.5-19.5-14.4h48.5v-.5s.1-4.6.1-5c0-15.3-10.4-31.4-29.6-31.4zm17.7 25.8H96.6c2.1-9.1 9.3-14.8 19-14.8s15.8 5.6 17.8 14.8zM79.9 3.7a4.8 4.8 0 00-4.5 3.2L60 51l-7.2-12.1 14-23.2-7.4-1.2a5.5 5.5 0 00-5.4 2.3l-7.7 11.4-1.3-2.3a5.5 5.5 0 00-6.3-2.6l-6.7 2 8 13.6-7.6 12.5L16.5 7.7a6.2 6.2 0 00-5.8-4.1H3.3l22.3 61.1v.3h8.8a4.4 4.4 0 003.7-2.1l8-13.3L55.6 65h8.1a4.4 4.4 0 004.1-2.9L88 3.7h-8.1zm87.7-2.5a3.1 3.1 0 00-3.1 3.1v13.3h1.3l8.5.8h1.5v-14a3.1 3.1 0 00-3.1-3.1zm67.2 23.4h-1.3l-8.6-.3h-1.6v1.6c0 .5.1 1 .1 1.5v37.7h11.4V25.9zm30.7 4.2c-4.3-1.1-8.1-2.1-10.4-3.6l-.3-.2h-.4l-10.7-.2h-2.1l.7 2c3.1 8.2 12.4 10.6 19.9 12.5s13.2 3.6 13.2 8.3-6.3 7.8-11.7 7.8c-7 0-12.2-3-13.9-8l-1.1-3.4-9.9 5.8.8 2.2c3.4 9 12.4 14.3 24 14.3 13.5 0 23-7.7 23-18.8.1-13.3-12.1-16.4-21.1-18.7zm88.9-5.9h-1.1l-8.8.5h-2l.8 1.9a21.6 21.6 0 011.8 8.7 21.1 21.1 0 11-42.1 0 21.8 21.8 0 011.2-7.3l.7-1.9h-2l-9.8.2h-1.4v56H303V57.7a29.6 29.6 0 0021.4 8.6 31.8 31.8 0 0032-32.2 33.3 33.3 0 00-1.6-10.2zm7.3-.3h-1.3v42.5h11.3V22h-1.5zm17.2-.9h-1.3v43.4h11.3V30.9c.4-8.2 2.1-10.1 2.1-10.1l-2.2.2zm83.6-7.4l-.5-.8h-.9l-9.9 1.5-3.4.4 2.5 2.3a20.2 20.2 0 016.1 10.8h-38.3a20.4 20.4 0 013.5-7.5l2.1-2.8-3.5.4-10.4 1h-.9l-.4.9a34.5 34.5 0 00-2.7 13.6c0 18.7 13.7 32.4 32.6 32.4 11.8 0 21.7-5.2 27.1-14.2l1.5-2.6-10-5.9h-.1l-1.5 2.7c-3 5.5-9.3 8.7-16.9 8.7-10.2 0-18-5.8-20.3-15.1h50.4c0-.4 1.5-14.1-6.1-25.8zm-269.7 8.2l-9.6-.7h-1.5v43.3H193V32.5a28 28 0 011.1-8.2l.5-1.7z"/><path class="brand-green" d="M210.2 0c-6.9 0-12.8 2.2-17.3 6.3V4.4a3.2 3.2 0 00-3.2-3.2h-4.9a3.2 3.2 0 00-3.2 3.2v14.4h1.3l11.2.9h.9l.4-.8c2.8-5.2 7.8-8 14.4-8s11.5 3.3 13.1 9.3l.3 1h1l8.8.3h1.7l-.3-1.7C232.5 7.7 223.2 0 210.2 0zm53.1 0c-12.7 0-22 7.9-22 18.8 0 .6 0 1.1.1 1.8v1.2h1.3l8.6.2h1.9l-.5-1.8a5.7 5.7 0 01-.2-1.5c0-5.3 5.5-7.8 10.7-7.8s10.1 2.5 11.8 6.8a2.8 2.8 0 004 1.4l4.7-2.7a2.8 2.8 0 001.2-3.6C281.4 4.8 273.3 0 263.3 0zm61 0A29.6 29.6 0 00303 8.6V4.4a3.2 3.2 0 00-3.2-3.2h-4.9a3.2 3.2 0 00-3.2 3.2v17.8h1.4l11.6-.2h.8l.4-.7a21.2 21.2 0 0135.5-1.2l.4.7h.8l9.5-.5h2.1l-.9-1.9a31.6 31.6 0 00-29-18.4zm36.1 19.9h1.5l8.5-.5h1.3v-15a3.2 3.2 0 00-3.2-3.2h-5a3.2 3.2 0 00-3.2 3.2zm28.4-13.7V4.4a3.2 3.2 0 00-3.2-3.2h-4.9a3.2 3.2 0 00-3.2 3.2V19h1.5l12-.9h.6l.4-.5a16.1 16.1 0 0112.7-6.4 2.8 2.8 0 002.8-2.8V2.8a2.8 2.8 0 00-2.7-2.8 23.2 23.2 0 00-16 6.2zM459.5 9A29 29 0 00438 0c-11.6 0-21.5 5.3-27.2 14.5l-1.5 2.4 2.8-.3 12.5-1.2h.4l.3-.2A20.7 20.7 0 01438 11a19.2 19.2 0 018.1 1.7l.4.2h.4l11.9-1.5 2.7-.4z"/></symbol><symbol viewBox="0 0 154.2 64" id="brand-mobile"><path class="brand-blue" d="M115.7 1.7c-17.9 0-30.9 13.1-30.9 31.2S97.9 64 116.1 64c11.4 0 20.9-5 26.1-13.6l1.5-2.5-9.9-5.9-1.4 2.6c-2.9 5.2-8.9 8.3-16.2 8.3-9.8 0-17.2-5.5-19.5-14.4h48.5V38s.1-4.6.1-5c0-15.2-10.4-31.3-29.6-31.3zm17.7 25.8H96.6c2.1-9.1 9.3-14.8 19-14.8s15.8 5.6 17.8 14.7zM79.9 2.3a4.8 4.8 0 00-4.5 3.2L60 49.7l-7.2-12.2 14-23.2-7.4-1.2a5.5 5.5 0 00-5.4 2.4l-7.7 11.4-1.3-2.3a5.5 5.5 0 00-6.2-2.6L32 23.9l8 13.6-7.6 12.6L16.5 6.4a6.2 6.2 0 00-5.8-4.1H3.3l22.3 61.1v.3h8.8a4.4 4.4 0 003.7-2.1l8-13.3 9.3 15.4h8.1a4.4 4.4 0 004.1-2.9L88 2.3h-8.1z"/><path class="brand-green" d="M0 54.8a8.7 8.7 0 008.7 8.7h11.9L0 6.9zM147 0h-19.4s22.4 2.4 22 35.6v2.5h4.7V7.3A7.3 7.3 0 00147 0z"/></symbol><symbol viewBox="0 0 178.7 130.3" id="design"><g fill="#00416b"><circle cx="43.1" cy="9.5" r="1.5" transform="rotate(-45 43.026 9.478)"/><circle cx="37.4" cy="15.2" r="1.5" transform="rotate(-45 37.4 15.209)"/><circle cx="31.7" cy="20.8" r="1.5" transform="rotate(-45 31.653 20.89)"/><circle cx="26" cy="26.5" r="1.5" transform="rotate(-45 26.076 26.499)"/><circle cx="20.3" cy="32.2" r="1.5" transform="rotate(-45 20.33 32.18)"/><circle cx="14.6" cy="37.9" r="1.5" transform="rotate(-45 14.703 37.91)"/><circle cx="9" cy="43.6" r="1.5" transform="rotate(-45 8.956 43.59)"/><circle cx="3.3" cy="49.3" r="1.5" transform="rotate(-45 3.209 49.27)"/><circle cx="75.1" cy="41.5" r="1.5" transform="rotate(-45 75.053 41.412)"/><circle cx="69.4" cy="47.2" r="1.5" transform="rotate(-45 69.427 47.142)"/><circle cx="69.8" cy="36.1" r="1.5" transform="rotate(-45 69.756 36.106)"/><circle cx="64.1" cy="41.8" r="1.5" transform="rotate(-45 64.13 41.837)"/><circle cx="59.6" cy="46.7" r="1.5" transform="rotate(-45 59.557 46.73)"/><circle cx="64.4" cy="30.8" r="1.5" transform="rotate(-45 64.458 30.8)"/><circle cx="58.7" cy="36.5" r="1.5" transform="rotate(-45 58.711 36.481)"/><circle cx="53" cy="42.2" r="1.5" transform="rotate(-45 53.085 42.212)"/><circle cx="24.6" cy="70.6" r="1.5" transform="rotate(-45 24.64 70.593)"/><circle cx="59.1" cy="25.5" r="1.5" transform="rotate(-45 59.04 25.445)"/><circle cx="53.4" cy="31.2" r="1.5" transform="rotate(-45 53.413 31.175)"/><circle cx="47.7" cy="36.8" r="1.5" transform="rotate(-45 47.666 36.856)"/><circle cx="42" cy="42.5" r="1.5" transform="rotate(-45 42.04 42.586)"/><circle cx="25" cy="59.6" r="1.5" transform="rotate(-45 24.97 59.557)"/><circle cx="19.3" cy="65.3" r="1.5" transform="rotate(-45 19.222 65.238)"/><circle cx="53.8" cy="20.1" r="1.5" transform="rotate(-45 53.742 20.14)"/><circle cx="48.1" cy="25.8" r="1.5" transform="rotate(-45 47.995 25.82)"/><circle cx="42.4" cy="31.5" r="1.5" transform="rotate(-45 42.369 31.55)"/><circle cx="36.7" cy="37.2" r="1.5" transform="rotate(-45 36.622 37.23)"/><circle cx="31" cy="42.9" r="1.5" transform="rotate(-45 31.045 42.84)"/><circle cx="25.3" cy="48.6" r="1.5" transform="rotate(-45 25.298 48.521)"/><circle cx="19.6" cy="54.3" r="1.5" transform="rotate(-45 19.672 54.252)"/><circle cx="13.9" cy="60" r="1.5" transform="rotate(-45 13.925 59.932)"/><circle cx="48.4" cy="14.8" r="1.5" transform="rotate(-45 48.444 14.834)"/><circle cx="42.7" cy="20.5" r="1.5" transform="rotate(-45 42.697 20.514)"/><circle cx="37" cy="26.2" r="1.5" transform="rotate(-45 37.07 26.245)"/><circle cx="31.4" cy="31.9" r="1.5" transform="rotate(-45 31.324 31.925)"/><circle cx="25.7" cy="37.6" r="1.5" transform="rotate(-45 25.627 37.485)"/><circle cx="20" cy="43.2" r="1.5" transform="rotate(-45 20 43.216)"/><circle cx="14.3" cy="48.9" r="1.5" transform="rotate(-45 14.253 48.896)"/><circle cx="8.6" cy="54.6" r="1.5" transform="rotate(-45 8.627 54.627)"/></g><path d="M117.5 34.6v1.1h2.7v12.2h-12.3v-2.6h-1V49h14.4V34.6h-3.8zM99.1 17.3h2.6v12.2H89.5v-2.6h-1.1v3.7h14.4V16.2h-3.7v1.1z" fill="#009889"/><path d="M103.1 30.9v14.4h14.4V30.9zm13.3 13.3h-12.2V32h12.2zM84.7 12.5v14.4h14.4V12.5zM98 25.8H85.8V13.5H98z" fill="#00416b"/><path d="M8.9 83.8a8.9 8.9 0 01-6.293-15.193A8.9 8.9 0 118.9 83.8zm0-16.8a7.9 7.9 0 105.586 2.314A7.9 7.9 0 008.9 67zM70 130.3a5.5 5.5 0 113.889-1.611A5.5 5.5 0 0170 130.3zm0-9.9a4.4 4.4 0 000 8.8 4.4 4.4 0 100-8.8zM42.7 0L1 41.7l26.6 26.6v-1.5L2.5 41.7 42.7 1.5l40.2 40.2-8.4 8.3 1.4.1 8.4-8.4L42.7 0z" fill="#009889"/><path d="M33.5 113.8a4.4 4.4 0 01-4.7-4.1v-2.1h-1.2v2a5.5 5.5 0 005.5 5.5h.4l37.2-2.8-5.9-.7zM173 98.9l-3.2-34.1a5.5 5.5 0 00-4.9-4.9L33.7 45.6a5.5 5.5 0 00-6.1 5.4v55.3h1.1V51a4.4 4.4 0 014.4-4.4h.5L93 53l71.7 7.8a4.4 4.4 0 013.9 4l3.2 34.1a4.4 4.4 0 01-4 4.8h-.1L70.6 111l5.9.7 91.3-6.9a5.5 5.5 0 005.2-5.9z" fill="#00416b"/><path d="M177.6 51.5a5.4 5.4 0 00-4.6-2.1l-73 3.4 7 .7 66.2-3.1a4.4 4.4 0 014.2 5.7l-6.5 21.2.3 2.8 7.3-23.7a5.4 5.4 0 00-.9-4.9zm-18.9 65.4a4.4 4.4 0 01-4.7 3.1L19.7 105.5a4.4 4.4 0 01-3.5-6.2l11.4-25.2v-2.6L15.2 98.8a5.5 5.5 0 002.7 7.3l1.7.5 76.8 8.3 57.6 6.2h.6a5.5 5.5 0 005.3-3.9l3.7-12.1h-1.2zm-42.6-46l-15.4 8.9v-8.9l-15.3 8.8v-8.8L67.1 81.4 85.4 92v-8.9l15.3 8.8v-8.8l15.4 8.9zM84.3 90.1l-15-8.7 15-8.7v7.6l-1.9 1.1 1.9 1.1zm15.3 0l-14.2-8.2v-1l14.2-8.2v7.6l-1.8 1 1.8 1zm15.4 0l-14.3-8.2v-.8l14.3-8.3zm-32.2 35.7a4.8 4.8 0 114.8-4.8 4.8 4.8 0 01-4.8 4.8zm0-8.6a3.8 3.8 0 103.8 3.8 3.8 3.8 0 00-3.8-3.8z" fill="#009889"/></symbol><symbol viewBox="0 0 31 20.9" id="email"><path d="M0 18.3V2.6l.3-.8a3 3 0 013-1.8h24.9a3 3 0 012.6 2 5.1 5.1 0 01.2.6v15.7l-.3.9a3 3 0 01-3 1.8H2.8a3 3 0 01-2.7-2.4zM3.1 2l.2.2 11.4 11.3a1 1 0 001.7 0L27.8 2.1zm17.4 10.2L17.7 15a3 3 0 01-4.3.1h-.1l-2.8-2.8L4 18.8h23.1zM2 17.7l6.9-6.9L2 3.9zM29 3.9l-6.9 6.9 6.9 6.8z"/></symbol><symbol viewBox="0 0 31 31" id="email-circle"><path d="M15.5 0A15.5 15.5 0 1031 15.5 15.5 15.5 0 0015.5 0zm9 9l-9 7.3-9-7.3zm-18 11.7v-9.8l5.5 4.6-5.5 5.2zm1.3 1.2l5.6-5.4 2.1 1.7 2.1-1.7 5.6 5.4zm16.8-1.2L19 15.5l5.6-4.5z"/></symbol><symbol viewBox="0 0 31 31" id="facebook"><path d="M15.5 0A15.5 15.5 0 1031 15.5 15.5 15.5 0 0015.5 0zm4 10.3h-1.7c-.7 0-.8.3-.8 1v1.6h2.6l-.3 2.6H17v9h-3.9v-9h-2.6v-2.6h2.6v-3c0-2.3 1.2-3.5 3.9-3.5h2.5z"/></symbol><symbol viewBox="0 0 31 31" id="linkedin"><path d="M15.5 0A15.5 15.5 0 1031 15.5 15.5 15.5 0 0015.5 0zm-3.6 22.3h-3v-11h3zM10.4 10a1.8 1.8 0 111.8-1.8 1.8 1.8 0 01-1.8 1.8zm13.5 12.3h-3v-5.6c0-3.4-4-3.1-4 0v5.6h-3v-11h3v1.8c1.4-2.6 7-2.8 7 2.5z"/></symbol><symbol viewBox="0 0 1923.1 745" id="svg-background"><g fill="#fff"><path d="M618.8 708.7l-9-1zm-9.4-1.1A3170.5 3170.5 0 01.1 576.9a3163.2 3163.2 0 00609.3 130.7zm18.9 2.1l-6.1-.7zm9.6 1l-3-.3zM634.9 710.4l-6.6-.7zm-12.7-1.3l-3.4-.4zm15.7 1.6c720.4 75.4 1248.7-115.6 1285-129.2v-1.3s-539.3 208.4-1285 130.5zm-28.1-3z" opacity=".25"/><path d="M1922.9 580.3v-67.1c-167.4 118.3-733.1 262-1415.2 136.1-213.1-45-360.9-108.3-413.5-145.1C52 474.8 17.2 435.8.3 395.7-.2 394.3.1 516.6.3 577c1054.7 337.7 1919.9 4.4 1922.6 3.3z" opacity=".3"/></g><g fill="#fff"><path d="M1922.9 580.3l.3-317s-69.7 277.2-355 358.1C865.7 769.9 940.4 412.5 489.3 370.3c-196-22-418.5 98.8-489.2 153v53.6h.2c1047 335.3 1907.4 9.2 1922.6 3.4z" opacity=".15"/><path d="M965.8 583.5c-121.7-339.6-445.3 59.4-683.3-72.3C197.3 462.1 243.7 199.1 77.8 48 51.8 25.5 25.8 10.2.1 0v576.9h.3c343.3 109.9 666.5 148.7 946.4 151 26.6-31.4 35-99.9 19-144.4z" opacity=".05"/><path d="M1923.2 355.7V171c-365.9-171-233 410-452.5 437.3-105.8 13.2-253.1-168.9-496.8-158.6-218.2 14.8-303.2 151.9-283.5 266 474 41.7 858.9-30.5 1066-84.5-158.1-69.6 8.1-376.7 166.8-275.5z" opacity=".1"/></g><path d="M1922.9 580.3h-.2C1907.5 586.2 1047.3 912.2.3 577H.1v168h1922.8z" fill="#f2f2f2"/></symbol><symbol viewBox="0 0 30.9 31" id="whatsapp"><path d="M8.1 28.9c7.7 4.6 22.1.5 22.7-13.5A15.3 15.3 0 0015.5 0C0 .3-2.6 16.6 2.2 23L0 31zm7.4-26.3a12.8 12.8 0 11-7 23.5l-4.8 1.3L5 22.6a12.8 12.8 0 0110.5-20zm-1.9 17.6c1.8 1.5 4.4 2.9 6.6 2.9a5.2 5.2 0 002.7-1.5c1.2-1 .9-2.4-.4-3.2l-1-.5c-1.7-.9-1.7-.9-2.9.5a1.3 1.3 0 01-1.9.3 10.4 10.4 0 01-4.4-4.3 1.1 1.1 0 01.1-1 2.3 2.3 0 00.5-3.1 10 10 0 01-.4-1.3 1.8 1.8 0 00-3.2-.6 4.7 4.7 0 00-.6 5.6 17.6 17.6 0 004.9 6.2z"/></symbol><symbol viewBox="0 0 31 31" id="whatsapp-circle"><path d="M15.5 0A15.5 15.5 0 1031 15.5 15.5 15.5 0 0015.5 0zm-3.9 22.7L7 23.9l1.2-4.4C5.6 15.8 7 6.7 15.7 6.5a8.5 8.5 0 018.6 8.6 8.6 8.6 0 01-12.7 7.6zM15.7 8a7.1 7.1 0 00-5.9 11.2l-.7 2.6 2.7-.7A7.1 7.1 0 1015.7 8zm4.2 10.6a2.9 2.9 0 01-1.5.8 6.6 6.6 0 01-3.7-1.6 9.8 9.8 0 01-2.7-3.4 2.6 2.6 0 01.3-3.1 1 1 0 011.8.4l.3.7A1.3 1.3 0 0114 14a.6.6 0 00-.1.6 5.8 5.8 0 002.5 2.4.7.7 0 001.1-.2c.7-.8.7-.8 1.6-.3l.5.3a1 1 0 01.3 1.8z"/></symbol></svg>